<svg width="211" height="122" viewBox="0 0 211 122" fill="none" xmlns="http://www.w3.org/2000/svg">
<path d="M38.5827 0.221157C38.1526 -0.125246 37.523 -0.057362 37.1766 0.372781C36.8302 0.802924 36.8981 1.43244 37.3283 1.77884L38.5827 0.221157ZM79.9452 67.7237L80.9435 67.7825L79.9452 67.7237ZM23.0298 98.0764L23.1248 97.081L23.0298 98.0764ZM1.09082 88.9183L0.139942 88.6087L1.09082 88.9183ZM33.8195 81.0684L33.8308 82.0684L33.8195 81.0684ZM154.634 98.0764L154.234 98.9928L154.234 98.9928L154.634 98.0764ZM211 121L204.652 111.355L199.473 121.675L211 121ZM39.6195 3.62695C40.049 3.97416 40.6786 3.90747 41.0259 3.47798C41.3731 3.04849 41.3064 2.41885 40.8769 2.07163L39.6195 3.62695ZM46.9649 7.05774C46.5407 6.70402 45.9102 6.76112 45.5565 7.18528C45.2027 7.60943 45.2598 8.24001 45.684 8.59373L46.9649 7.05774ZM50.1539 12.3984C50.5703 12.7612 51.202 12.7179 51.5648 12.3015C51.9276 11.8851 51.8842 11.2534 51.4679 10.8906L50.1539 12.3984ZM57.3144 16.2007C56.9144 15.8198 56.2814 15.8353 55.9006 16.2353C55.5197 16.6352 55.5352 17.2682 55.9351 17.6491L57.3144 16.2007ZM60.0784 21.7714C60.4605 22.1702 61.0935 22.1837 61.4922 21.8016C61.891 21.4196 61.9046 20.7865 61.5225 20.3878L60.0784 21.7714ZM66.7873 26.3204C66.4384 25.8923 65.8085 25.8281 65.3804 26.177C64.9523 26.526 64.8881 27.1559 65.237 27.584L66.7873 26.3204ZM68.7421 32.2212C69.0577 32.6744 69.681 32.7859 70.1342 32.4703C70.5874 32.1546 70.6989 31.5314 70.3833 31.0782L68.7421 32.2212ZM74.5468 37.8744C74.2882 37.3864 73.6829 37.2005 73.1949 37.4591C72.7069 37.7177 72.521 38.3229 72.7796 38.8109L74.5468 37.8744ZM75.2239 44.0528C75.4307 44.5649 76.0135 44.8124 76.5256 44.6056C77.0377 44.3988 77.2852 43.816 77.0784 43.3039L75.2239 44.0528ZM79.5216 50.9152C79.3922 50.3783 78.8521 50.048 78.3152 50.1774C77.7783 50.3068 77.4479 50.8469 77.5773 51.3838L79.5216 50.9152ZM78.6175 57.0674C78.687 57.6153 79.1875 58.0032 79.7354 57.9337C80.2833 57.8643 80.6711 57.3638 80.6016 56.8159L78.6175 57.0674ZM81.0494 64.7908C81.0558 64.2385 80.6132 63.7857 80.061 63.7793C79.5087 63.773 79.0559 64.2155 79.0495 64.7678L81.0494 64.7908ZM78.6325 70.6673C78.5491 71.2133 78.924 71.7235 79.4699 71.8069C80.0159 71.8904 80.5261 71.5155 80.6096 70.9695L78.6325 70.6673ZM78.1444 79.1382C78.3813 78.6392 78.1689 78.0428 77.67 77.8059C77.1711 77.569 76.5746 77.7815 76.3377 78.2804L78.1444 79.1382ZM73.1661 83.3221C72.8193 83.7519 72.8867 84.3815 73.3166 84.7282C73.7465 85.075 74.376 85.0076 74.7228 84.5777L73.1661 83.3221ZM68.4749 90.3757C68.9262 90.0574 69.034 89.4335 68.7156 88.9822C68.3973 88.5309 67.7734 88.4231 67.3221 88.7414L68.4749 90.3757ZM62.1122 91.7889C61.6151 92.0295 61.4071 92.6275 61.6478 93.1246C61.8884 93.6218 62.4865 93.8297 62.9836 93.589L62.1122 91.7889ZM55.1021 96.5899C55.6321 96.4345 55.9358 95.8789 55.7804 95.3489C55.625 94.8189 55.0694 94.5153 54.5394 94.6706L55.1021 96.5899ZM48.5992 96.0965C48.0568 96.2003 47.7013 96.7243 47.8052 97.2667C47.9091 97.8091 48.433 98.1646 48.9754 98.0608L48.5992 96.0965ZM40.6754 99.1921C41.2256 99.1451 41.6336 98.6609 41.5865 98.1106C41.5395 97.5603 41.0553 97.1524 40.505 97.1994L40.6754 99.1921ZM34.375 97.5142C33.8228 97.5244 33.3834 97.9803 33.3936 98.5325C33.4038 99.0847 33.8597 99.5241 34.4119 99.5139L34.375 97.5142ZM26.054 99.3207C26.6052 99.3561 27.0807 98.938 27.1161 98.3869C27.1515 97.8357 26.7334 97.3602 26.1823 97.3248L26.054 99.3207ZM20.5632 96.6831C20.0199 96.5843 19.4993 96.9447 19.4005 97.4881C19.3018 98.0315 19.6622 98.5521 20.2056 98.6508L20.5632 96.6831ZM13.1441 97.089C13.6785 97.2284 14.2248 96.9082 14.3642 96.3738C14.5036 95.8394 14.1834 95.2932 13.649 95.1537L13.1441 97.089ZM8.58986 93.6324C8.06875 93.4495 7.49802 93.7236 7.3151 94.2448C7.13218 94.7659 7.40634 95.3366 7.92745 95.5195L8.58986 93.6324ZM1.24641 92.0202C1.64208 92.4055 2.27519 92.3971 2.66049 92.0014C3.0458 91.6057 3.0374 90.9726 2.64173 90.5873L1.24641 92.0202ZM3.11259 87.4792C3.49066 87.0766 3.47076 86.4438 3.06816 86.0657C2.66556 85.6877 2.03271 85.7076 1.65465 86.1102L3.11259 87.4792ZM7.84075 82.6167C7.31573 82.7881 7.02907 83.3526 7.20047 83.8777C7.37187 84.4027 7.93643 84.6893 8.46145 84.5179L7.84075 82.6167ZM13.1947 83.3549C13.7379 83.2553 14.0976 82.7343 13.9981 82.191C13.8985 81.6478 13.3774 81.2881 12.8342 81.3876L13.1947 83.3549ZM19.5546 80.5186C19.0043 80.5657 18.5964 81.0499 18.6435 81.6002C18.6905 82.1505 19.1748 82.5584 19.7251 82.5113L19.5546 80.5186ZM24.6823 82.2061C25.2342 82.1838 25.6635 81.7184 25.6412 81.1666C25.619 80.6148 25.1536 80.1854 24.6017 80.2077L24.6823 82.2061ZM31.3219 80.0779C30.7696 80.0798 30.3234 80.5289 30.3252 81.0812C30.327 81.6335 30.7762 82.0797 31.3285 82.0779L31.3219 80.0779ZM36.7571 82.0375C37.3094 82.0321 37.7528 81.5801 37.7474 81.0279C37.7421 80.4756 37.29 80.0322 36.7378 80.0376L36.7571 82.0375ZM44.5522 79.9851C43.9999 79.9869 43.5536 80.4361 43.5555 80.9884C43.5573 81.5407 44.0064 81.9869 44.5587 81.9851L44.5522 79.9851ZM50.4083 81.9845C50.9605 81.9864 51.4098 81.5402 51.4116 80.9879C51.4135 80.4356 50.9672 79.9864 50.415 79.9846L50.4083 81.9845ZM58.2341 80.0531C57.6819 80.045 57.2277 80.4861 57.2196 81.0383C57.2115 81.5906 57.6526 82.0448 58.2048 82.0529L58.2341 80.0531ZM64.0493 82.1681C64.6014 82.1819 65.0602 81.7456 65.074 81.1935C65.0878 80.6414 64.6514 80.1826 64.0993 80.1688L64.0493 82.1681ZM71.9195 80.4268C71.3677 80.4039 70.9018 80.8327 70.8789 81.3845C70.856 81.9363 71.2848 82.4022 71.8366 82.4251L71.9195 80.4268ZM77.6718 82.7078C78.2232 82.7386 78.6952 82.3165 78.7259 81.765C78.7567 81.2136 78.3346 80.7417 77.7831 80.7109L77.6718 82.7078ZM85.5956 81.2294C85.0449 81.1867 84.564 81.5985 84.5213 82.1491C84.4786 82.6997 84.8904 83.1807 85.441 83.2234L85.5956 81.2294ZM91.2566 83.7268C91.8064 83.7795 92.2948 83.3766 92.3475 82.8268C92.4003 82.2771 91.9973 81.7887 91.4476 81.7359L91.2566 83.7268ZM99.236 82.5876C98.6879 82.52 98.1888 82.9095 98.1212 83.4576C98.0535 84.0058 98.4431 84.5049 98.9912 84.5725L99.236 82.5876ZM104.773 85.3506C105.319 85.4305 105.827 85.0522 105.907 84.5057C105.987 83.9592 105.609 83.4515 105.062 83.3716L104.773 85.3506ZM112.801 84.6295C112.257 84.5319 111.737 84.8934 111.64 85.437C111.542 85.9806 111.904 86.5004 112.447 86.598L112.801 84.6295ZM118.171 87.7032C118.712 87.8152 119.241 87.4675 119.353 86.9267C119.465 86.3859 119.117 85.8567 118.576 85.7447L118.171 87.7032ZM126.228 87.4781C125.692 87.3458 125.15 87.6732 125.017 88.2094C124.885 88.7456 125.212 89.2876 125.749 89.4199L126.228 87.4781ZM131.383 90.9C131.915 91.0485 132.466 90.7376 132.615 90.2056C132.763 89.6736 132.452 89.1221 131.92 88.9736L131.383 90.9ZM139.435 91.2422C138.91 91.0713 138.346 91.3585 138.175 91.8836C138.004 92.4088 138.291 92.9731 138.816 93.144L139.435 91.2422ZM144.322 95.0374C144.841 95.2258 145.415 94.9576 145.603 94.4384C145.792 93.9192 145.523 93.3457 145.004 93.1573L144.322 95.0374ZM152.323 96.0041C151.813 95.792 151.228 96.0334 151.016 96.5434C150.804 97.0533 151.045 97.6386 151.555 97.8507L152.323 96.0041ZM157.245 100.28C157.754 100.494 158.34 100.254 158.554 99.7443C158.767 99.2349 158.527 98.649 158.018 98.4356L157.245 100.28ZM166.063 101.666C165.548 101.466 164.969 101.722 164.769 102.237C164.57 102.751 164.825 103.331 165.34 103.53L166.063 101.666ZM171.445 105.858C171.962 106.052 172.539 105.791 172.733 105.274C172.928 104.757 172.667 104.18 172.15 103.986L171.445 105.858ZM180.294 107.03C179.777 106.837 179.2 107.1 179.007 107.617C178.814 108.134 179.076 108.71 179.594 108.904L180.294 107.03ZM185.693 111.2C186.209 111.397 186.787 111.138 186.983 110.622C187.18 110.105 186.92 109.528 186.404 109.331L185.693 111.2ZM194.523 112.5C194.011 112.293 193.429 112.542 193.222 113.054C193.016 113.566 193.264 114.149 193.777 114.355L194.523 112.5ZM199.78 116.848C200.288 117.066 200.876 116.831 201.094 116.324C201.312 115.817 201.077 115.228 200.57 115.01L199.78 116.848ZM208.525 118.639C208.028 118.397 207.43 118.603 207.188 119.1C206.946 119.596 207.152 120.195 207.649 120.437L208.525 118.639ZM37.3283 1.77884C38.0935 2.39508 38.8575 3.01088 39.6195 3.62695L40.8769 2.07163C40.1134 1.45441 39.3483 0.837702 38.5827 0.221157L37.3283 1.77884ZM45.684 8.59373C47.1952 9.85393 48.6876 11.1206 50.1539 12.3984L51.4679 10.8906C49.9884 9.60138 48.4848 8.32519 46.9649 7.05774L45.684 8.59373ZM55.9351 17.6491C57.3578 19.0038 58.7416 20.3763 60.0784 21.7714L61.5225 20.3878C60.1621 18.968 58.7564 17.5739 57.3144 16.2007L55.9351 17.6491ZM65.237 27.584C66.4704 29.0972 67.6416 30.6411 68.7421 32.2212L70.3833 31.0782C69.2517 29.4534 68.0498 27.8693 66.7873 26.3204L65.237 27.584ZM72.7796 38.8109C73.6812 40.5121 74.4989 42.2575 75.2239 44.0528L77.0784 43.3039C76.3263 41.4416 75.4791 39.6337 74.5468 37.8744L72.7796 38.8109ZM77.5773 51.3838C78.0208 53.2238 78.3702 55.1166 78.6175 57.0674L80.6016 56.8159C80.345 54.7918 79.9823 52.8265 79.5216 50.9152L77.5773 51.3838ZM79.0495 64.7678C79.0386 65.72 79.0047 66.6855 78.947 67.6649L80.9435 67.7825C81.003 66.7721 81.0381 65.7749 81.0494 64.7908L79.0495 64.7678ZM78.947 67.6649C78.886 68.6998 78.7803 69.7003 78.6325 70.6673L80.6096 70.9695C80.767 69.9395 80.879 68.8774 80.9435 67.7825L78.947 67.6649ZM76.3377 78.2804C75.4663 80.1158 74.3999 81.7924 73.1661 83.3221L74.7228 84.5777C76.0523 82.9294 77.2036 81.1198 78.1444 79.1382L76.3377 78.2804ZM67.3221 88.7414C65.7064 89.881 63.9611 90.8938 62.1122 91.7889L62.9836 93.589C64.9204 92.6515 66.7612 91.5845 68.4749 90.3757L67.3221 88.7414ZM54.5394 94.6706C52.6094 95.2365 50.6219 95.7091 48.5992 96.0965L48.9754 98.0608C51.0551 97.6625 53.1053 97.1753 55.1021 96.5899L54.5394 94.6706ZM40.505 97.1994C38.4574 97.3745 36.4067 97.4767 34.375 97.5142L34.4119 99.5139C36.4856 99.4756 38.5809 99.3712 40.6754 99.1921L40.505 97.1994ZM26.1823 97.3248C25.1475 97.2583 24.1272 97.1766 23.1248 97.081L22.9348 99.0719C23.9577 99.1695 24.9986 99.2529 26.054 99.3207L26.1823 97.3248ZM23.1248 97.081C22.6964 97.0401 21.7923 96.9065 20.5632 96.6831L20.2056 98.6508C21.4449 98.8761 22.418 99.0226 22.9348 99.0719L23.1248 97.081ZM13.649 95.1537C11.9377 94.7074 10.1967 94.1964 8.58986 93.6324L7.92745 95.5195C9.60005 96.1066 11.3963 96.633 13.1441 97.089L13.649 95.1537ZM2.64173 90.5873C1.99202 89.9546 1.94153 89.5356 2.04171 89.2278L0.139942 88.6087C-0.299816 89.9596 0.341102 91.1386 1.24641 92.0202L2.64173 90.5873ZM2.04171 89.2278C2.24493 88.6036 2.60208 88.0229 3.11259 87.4792L1.65465 86.1102C0.973233 86.8358 0.446978 87.6656 0.139942 88.6087L2.04171 89.2278ZM8.46145 84.5179C9.90444 84.0468 11.5061 83.6643 13.1947 83.3549L12.8342 81.3876C11.0831 81.7086 9.39047 82.1107 7.84075 82.6167L8.46145 84.5179ZM19.7251 82.5113C21.4206 82.3663 23.0959 82.2701 24.6823 82.2061L24.6017 80.2077C22.992 80.2727 21.2861 80.3705 19.5546 80.5186L19.7251 82.5113ZM31.3285 82.0779C32.3369 82.0746 33.1959 82.0756 33.8308 82.0684L33.8081 80.0685C33.1837 80.0756 32.3454 80.0745 31.3219 80.0779L31.3285 82.0779ZM33.8308 82.0684C34.8064 82.0573 35.7819 82.0469 36.7571 82.0375L36.7378 80.0376C35.7613 80.047 34.7847 80.0574 33.8081 80.0685L33.8308 82.0684ZM44.5587 81.9851C46.5099 81.9787 48.4599 81.978 50.4083 81.9845L50.415 79.9846C48.4616 79.978 46.5072 79.9787 44.5522 79.9851L44.5587 81.9851ZM58.2048 82.0529C60.1551 82.0815 62.1033 82.1194 64.0493 82.1681L64.0993 80.1688C62.1459 80.1198 60.1908 80.0818 58.2341 80.0531L58.2048 82.0529ZM71.8366 82.4251C73.7846 82.5058 75.7298 82.5996 77.6718 82.7078L77.7831 80.7109C75.831 80.6021 73.8764 80.5079 71.9195 80.4268L71.8366 82.4251ZM85.441 83.2234C87.3833 83.3739 89.3219 83.5412 91.2566 83.7268L91.4476 81.7359C89.5002 81.5491 87.5494 81.3808 85.5956 81.2294L85.441 83.2234ZM98.9912 84.5725C100.923 84.8108 102.85 85.0696 104.773 85.3506L105.062 83.3716C103.124 83.0884 101.182 82.8276 99.236 82.5876L98.9912 84.5725ZM112.447 86.598C114.36 86.9416 116.268 87.3094 118.171 87.7032L118.576 85.7447C116.656 85.3473 114.731 84.9761 112.801 84.6295L112.447 86.598ZM125.749 89.4199C127.633 89.8848 129.511 90.3776 131.383 90.9L131.92 88.9736C130.029 88.4457 128.131 87.9477 126.228 87.4781L125.749 89.4199ZM138.816 93.144C140.658 93.7435 142.494 94.3741 144.322 95.0374L145.004 93.1573C143.154 92.4862 141.298 91.8484 139.435 91.2422L138.816 93.144ZM151.555 97.8507C152.45 98.2229 153.343 98.6035 154.234 98.9928L155.035 97.1601C154.133 96.766 153.229 96.3807 152.323 96.0041L151.555 97.8507ZM154.234 98.9928C155.223 99.4252 156.228 99.8541 157.245 100.28L158.018 98.4356C157.009 98.013 156.014 97.588 155.035 97.1601L154.234 98.9928ZM165.34 103.53C167.35 104.309 169.389 105.084 171.445 105.858L172.15 103.986C170.097 103.213 168.064 102.441 166.063 101.666L165.34 103.53ZM179.594 108.904C181.629 109.664 183.666 110.429 185.693 111.2L186.404 109.331C184.371 108.557 182.331 107.792 180.294 107.03L179.594 108.904ZM193.777 114.355C195.808 115.173 197.813 116.002 199.78 116.848L200.57 115.01C198.586 114.158 196.567 113.322 194.523 112.5L193.777 114.355Z" fill="#BB8B9E"/>
</svg>
