<svg width="211" height="125" viewBox="0 0 211 125" fill="none" xmlns="http://www.w3.org/2000/svg">
<path d="M180.379 0.543377C180.127 0.430874 179.832 0.544109 179.719 0.796295C179.607 1.04848 179.72 1.34412 179.972 1.45662L180.379 0.543377ZM209.976 29.4018L209.477 29.4187L209.477 29.4187L209.976 29.4018ZM170.681 83.1918L170.929 83.626L170.929 83.626L170.681 83.1918ZM57.8278 106.297L57.7513 105.803L57.7513 105.803L57.8278 106.297ZM0 121L5.52921 122.662L4.20365 117.042L0 121ZM3.23094 120.752C3.49925 120.686 3.66383 120.416 3.59853 120.148C3.53324 119.879 3.26279 119.715 2.99448 119.78L3.23094 120.752ZM11.2354 117.639C10.969 117.712 10.8122 117.987 10.8851 118.254C10.9579 118.52 11.2329 118.677 11.4993 118.604L11.2354 117.639ZM17.6636 116.875C17.9291 116.799 18.0828 116.522 18.0068 116.256C17.9308 115.991 17.654 115.837 17.3886 115.913L17.6636 116.875ZM25.5809 113.546C25.3156 113.623 25.1627 113.9 25.2394 114.165C25.3161 114.431 25.5934 114.583 25.8587 114.507L25.5809 113.546ZM32.0053 112.749C32.2711 112.675 32.426 112.399 32.3513 112.133C32.2765 111.867 32.0005 111.712 31.7346 111.787L32.0053 112.749ZM39.9786 109.558C39.7111 109.627 39.55 109.899 39.6188 110.167C39.6875 110.434 39.96 110.595 40.2274 110.527L39.9786 109.558ZM46.4293 109.017C46.6985 108.955 46.8668 108.687 46.8053 108.418C46.7437 108.149 46.4756 107.98 46.2064 108.042L46.4293 109.017ZM54.5856 106.33C54.3137 106.378 54.1324 106.637 54.1807 106.909C54.2291 107.181 54.4886 107.362 54.7605 107.314L54.5856 106.33ZM60.9742 106.336C61.2476 106.297 61.4378 106.044 61.399 105.771C61.3602 105.497 61.1071 105.307 60.8337 105.346L60.9742 106.336ZM69.0737 104.296C68.7993 104.328 68.6024 104.576 68.6338 104.85C68.6652 105.124 68.9131 105.321 69.1874 105.29L69.0737 104.296ZM75.3658 104.629C75.6405 104.601 75.8409 104.356 75.8134 104.082C75.7858 103.807 75.5407 103.606 75.2659 103.634L75.3658 104.629ZM83.5277 102.855C83.2527 102.88 83.0497 103.123 83.0744 103.398C83.099 103.673 83.342 103.876 83.617 103.851L83.5277 102.855ZM89.8126 103.304C90.0877 103.28 90.2911 103.038 90.267 102.763C90.2429 102.488 90.0003 102.284 89.7252 102.308L89.8126 103.304ZM97.9828 101.569C97.7079 101.594 97.5057 101.838 97.5312 102.113C97.5568 102.388 97.8004 102.59 98.0754 102.564L97.9828 101.569ZM104.271 101.961C104.546 101.933 104.746 101.687 104.718 101.412C104.689 101.138 104.444 100.938 104.169 100.966L104.271 101.961ZM112.4 100.041C112.126 100.075 111.932 100.325 111.965 100.599C111.999 100.873 112.249 101.068 112.523 101.034L112.4 100.041ZM118.699 100.207C118.972 100.167 119.161 99.9137 119.122 99.6404C119.082 99.3671 118.828 99.1777 118.555 99.2174L118.699 100.207ZM126.722 97.8884C126.451 97.9378 126.271 98.1981 126.32 98.4698C126.369 98.7415 126.63 98.9216 126.901 98.8722L126.722 97.8884ZM133.019 97.6586C133.289 97.6003 133.46 97.3343 133.402 97.0644C133.344 96.7944 133.078 96.6228 132.808 96.6811L133.019 97.6586ZM140.843 94.739C140.576 94.8109 140.418 95.0852 140.49 95.3519C140.562 95.6185 140.836 95.7765 141.103 95.7046L140.843 94.739ZM147.094 93.9541C147.358 93.8709 147.504 93.59 147.421 93.3267C147.337 93.0634 147.056 92.9174 146.793 93.0006L147.094 93.9541ZM154.587 90.2688C154.33 90.3685 154.202 90.658 154.301 90.9156C154.401 91.1731 154.69 91.3011 154.948 91.2014L154.587 90.2688ZM160.716 88.8004C160.968 88.6878 161.081 88.3921 160.968 88.14C160.856 87.8879 160.56 87.7748 160.308 87.8874L160.716 88.8004ZM167.72 84.257C167.476 84.3873 167.385 84.6903 167.515 84.9338C167.645 85.1772 167.948 85.269 168.192 85.1387L167.72 84.257ZM173.525 82.1036C173.762 81.9611 173.838 81.6539 173.695 81.4173C173.553 81.1808 173.246 81.1045 173.009 81.247L173.525 82.1036ZM179.689 76.9208C179.463 77.0786 179.407 77.3902 179.565 77.6168C179.722 77.8435 180.034 77.8992 180.261 77.7415L179.689 76.9208ZM185.113 74.1647C185.331 73.9948 185.37 73.6806 185.2 73.4629C185.03 73.2453 184.716 73.2066 184.498 73.3766L185.113 74.1647ZM190.567 68.2271C190.364 68.4146 190.352 68.7309 190.54 68.9336C190.727 69.1363 191.044 69.1486 191.246 68.9611L190.567 68.2271ZM195.528 64.7062C195.716 64.5044 195.705 64.188 195.503 63.9996C195.301 63.8111 194.985 63.822 194.797 64.0238L195.528 64.7062ZM199.88 57.9274C199.717 58.1496 199.764 58.4627 199.986 58.6265C200.209 58.7904 200.522 58.743 200.685 58.5207L199.88 57.9274ZM204.025 53.4768C204.165 53.2388 204.086 52.9323 203.848 52.7922C203.61 52.6522 203.303 52.7316 203.163 52.9695L204.025 53.4768ZM206.628 45.8584C206.528 46.1158 206.656 46.4055 206.914 46.5054C207.171 46.6054 207.461 46.4777 207.561 46.2203L206.628 45.8584ZM209.368 40.4336C209.432 40.165 209.266 39.8954 208.997 39.8316C208.728 39.7678 208.459 39.9338 208.395 40.2025L209.368 40.4336ZM209.469 32.3852C209.458 32.6611 209.673 32.8935 209.949 32.9042C210.225 32.915 210.458 32.7 210.468 32.4241L209.469 32.3852ZM210.25 26.102C210.221 25.8275 209.975 25.6286 209.7 25.6578C209.425 25.687 209.227 25.9334 209.256 26.2079L210.25 26.102ZM207.265 17.9906C207.372 18.2451 207.665 18.3647 207.92 18.2576C208.174 18.1506 208.294 17.8574 208.187 17.6029L207.265 17.9906ZM204.701 11.9913C204.519 11.7843 204.203 11.7647 203.996 11.9476C203.789 12.1304 203.769 12.4464 203.952 12.6533L204.701 11.9913ZM197.206 7.6689C197.454 7.79102 197.753 7.68924 197.876 7.44157C197.998 7.1939 197.896 6.89412 197.648 6.772L197.206 7.6689ZM191.566 4.36024C191.304 4.27344 191.021 4.4156 190.935 4.67774C190.848 4.93989 190.99 5.22276 191.252 5.30956L191.566 4.36024ZM183.017 2.66314C183.277 2.7558 183.563 2.62003 183.656 2.3599C183.749 2.09977 183.613 1.81377 183.353 1.72111L183.017 2.66314ZM11.4993 118.604C13.5569 118.041 15.6114 117.462 17.6636 116.875L17.3886 115.913C15.3386 116.5 13.2881 117.078 11.2354 117.639L11.4993 118.604ZM25.8587 114.507C27.9074 113.914 29.9557 113.326 32.0053 112.749L31.7346 111.787C29.6815 112.364 27.6305 112.953 25.5809 113.546L25.8587 114.507ZM40.2274 110.527C42.2914 109.996 44.3582 109.49 46.4293 109.017L46.2064 108.042C44.1253 108.518 42.0498 109.026 39.9786 109.558L40.2274 110.527ZM54.7605 107.314C55.8069 107.128 56.8548 106.953 57.9043 106.791L57.7513 105.803C56.6941 105.966 55.6389 106.142 54.5856 106.33L54.7605 107.314ZM57.9043 106.791C58.9256 106.633 59.949 106.481 60.9742 106.336L60.8337 105.346C59.8045 105.492 58.777 105.644 57.7513 105.803L57.9043 106.791ZM69.1874 105.29C71.2413 105.055 73.301 104.836 75.3658 104.629L75.2659 103.634C73.1975 103.842 71.133 104.061 69.0737 104.296L69.1874 105.29ZM83.617 103.851C85.6792 103.666 87.7445 103.486 89.8126 103.304L89.7252 102.308C87.6576 102.49 85.5911 102.67 83.5277 102.855L83.617 103.851ZM98.0754 102.564C100.14 102.372 102.206 102.173 104.271 101.961L104.169 100.966C102.107 101.178 100.045 101.377 97.9828 101.569L98.0754 102.564ZM112.523 101.034C114.583 100.779 116.642 100.505 118.699 100.207L118.555 99.2174C116.506 99.5147 114.454 99.7876 112.4 100.041L112.523 101.034ZM126.901 98.8722C128.945 98.5005 130.984 98.0976 133.019 97.6586L132.808 96.6811C130.784 97.1177 128.756 97.5184 126.722 97.8884L126.901 98.8722ZM141.103 95.7046C143.107 95.165 145.104 94.5831 147.094 93.9541L146.793 93.0006C144.817 93.6251 142.833 94.2029 140.843 94.739L141.103 95.7046ZM154.948 91.2014C156.879 90.4542 158.802 89.6554 160.716 88.8004L160.308 87.8874C158.41 88.7352 156.503 89.5275 154.587 90.2688L154.948 91.2014ZM168.192 85.1387C169.106 84.6493 170.019 84.1452 170.929 83.626L170.433 82.7575C169.531 83.2722 168.627 83.7718 167.72 84.257L168.192 85.1387ZM170.929 83.626C171.737 83.1648 172.606 82.6572 173.525 82.1036L173.009 81.247C172.097 81.7962 171.235 82.2999 170.433 82.7575L170.929 83.626ZM180.261 77.7415C181.837 76.6436 183.467 75.4508 185.113 74.1647L184.498 73.3766C182.867 74.6504 181.252 75.8324 179.689 76.9208L180.261 77.7415ZM191.246 68.9611C192.701 67.615 194.136 66.1963 195.528 64.7062L194.797 64.0238C193.424 65.4946 192.006 66.8961 190.567 68.2271L191.246 68.9611ZM200.685 58.5207C201.877 56.9048 202.997 55.2232 204.025 53.4768L203.163 52.9695C202.154 54.684 201.053 56.337 199.88 57.9274L200.685 58.5207ZM207.561 46.2203C208.286 44.3515 208.896 42.4223 209.368 40.4336L208.395 40.2025C207.934 42.1444 207.338 44.03 206.628 45.8584L207.561 46.2203ZM210.468 32.4241C210.507 31.4235 210.511 30.4103 210.476 29.3849L209.477 29.4187C209.51 30.4198 209.507 31.4087 209.469 32.3852L210.468 32.4241ZM210.476 29.3849C210.437 28.2366 210.361 27.1434 210.25 26.102L209.256 26.2079C209.364 27.2239 209.438 28.293 209.477 29.4187L210.476 29.3849ZM208.187 17.6029C207.253 15.3838 206.071 13.5417 204.701 11.9913L203.952 12.6533C205.248 14.1209 206.373 15.8699 207.265 17.9906L208.187 17.6029ZM197.648 6.772C195.694 5.80852 193.636 5.04526 191.566 4.36024L191.252 5.30956C193.302 5.98811 195.311 6.73465 197.206 7.6689L197.648 6.772ZM183.353 1.72111C182.33 1.35685 181.336 0.969945 180.379 0.543377L179.972 1.45662C180.958 1.89639 181.977 2.29275 183.017 2.66314L183.353 1.72111ZM180.583 0.0867549C180.079 -0.138252 179.487 0.0882181 179.262 0.592589C179.037 1.09696 179.264 1.68824 179.768 1.91325L180.583 0.0867549ZM209.976 29.4018L208.977 29.4357L208.977 29.4357L209.976 29.4018ZM170.681 83.1918L171.176 84.0603L171.176 84.0603L170.681 83.1918ZM57.8278 106.297L57.6748 105.309L57.6748 105.309L57.8278 106.297ZM0 121L11.0584 124.323L8.40731 113.085L0 121ZM3.34917 121.237C3.88579 121.107 4.21494 120.566 4.08435 120.029C3.95376 119.493 3.41288 119.164 2.87625 119.294L3.34917 121.237ZM11.1034 117.157C10.5707 117.303 10.257 117.853 10.4028 118.386C10.5485 118.918 11.0985 119.232 11.6312 119.086L11.1034 117.157ZM17.8012 117.355C18.3321 117.203 18.6394 116.65 18.4875 116.119C18.3356 115.588 17.782 115.28 17.251 115.432L17.8012 117.355ZM25.442 113.066C24.9114 113.219 24.6057 113.774 24.7591 114.304C24.9125 114.835 25.467 115.141 25.9975 114.987L25.442 113.066ZM32.1406 113.231C32.6723 113.081 32.9821 112.529 32.8326 111.997C32.6831 111.466 32.1309 111.156 31.5993 111.305L32.1406 113.231ZM39.8542 109.074C39.3193 109.211 38.997 109.756 39.1345 110.291C39.2719 110.826 39.817 111.148 40.3519 111.011L39.8542 109.074ZM46.5407 109.504C47.0791 109.381 47.4158 108.845 47.2927 108.306C47.1696 107.768 46.6334 107.431 46.095 107.554L46.5407 109.504ZM54.4981 105.837C53.9543 105.934 53.5918 106.453 53.6885 106.997C53.7851 107.541 54.3042 107.903 54.848 107.806L54.4981 105.837ZM61.0444 106.831C61.5912 106.753 61.9716 106.247 61.894 105.7C61.8164 105.153 61.3102 104.773 60.7634 104.851L61.0444 106.831ZM69.0168 103.8C68.4681 103.862 68.0742 104.358 68.137 104.907C68.1999 105.456 68.6956 105.849 69.2443 105.787L69.0168 103.8ZM75.4157 105.127C75.9652 105.071 76.366 104.581 76.3109 104.032C76.2557 103.482 75.7656 103.081 75.216 103.137L75.4157 105.127ZM83.483 102.357C82.933 102.407 82.527 102.893 82.5764 103.443C82.6257 103.993 83.1116 104.399 83.6617 104.349L83.483 102.357ZM89.8563 103.803C90.4065 103.754 90.8133 103.269 90.7651 102.719C90.7168 102.169 90.2317 101.762 89.6815 101.81L89.8563 103.803ZM97.9366 101.071C97.3867 101.122 96.9823 101.609 97.0334 102.159C97.0845 102.709 97.5717 103.113 98.1216 103.062L97.9366 101.071ZM104.322 102.458C104.872 102.402 105.271 101.911 105.215 101.361C105.159 100.812 104.667 100.412 104.118 100.469L104.322 102.458ZM112.339 99.5451C111.791 99.6128 111.401 100.112 111.469 100.66C111.537 101.208 112.036 101.598 112.584 101.53L112.339 99.5451ZM118.77 100.702C119.317 100.623 119.696 100.115 119.616 99.5686C119.537 99.0221 119.03 98.6433 118.483 98.7226L118.77 100.702ZM126.633 97.3964C126.09 97.4953 125.729 98.0159 125.828 98.5593C125.927 99.1026 126.448 99.463 126.991 99.3641L126.633 97.3964ZM133.124 98.1473C133.664 98.0309 134.007 97.4988 133.891 96.9589C133.774 96.4191 133.242 96.0758 132.702 96.1923L133.124 98.1473ZM140.713 94.2563C140.18 94.3999 139.864 94.9486 140.007 95.4819C140.151 96.0152 140.7 96.3311 141.233 96.1874L140.713 94.2563ZM147.245 94.4309C147.772 94.2645 148.064 93.7027 147.897 93.1761C147.731 92.6494 147.169 92.3574 146.642 92.5239L147.245 94.4309ZM154.407 89.8025C153.892 90.0018 153.636 90.5809 153.835 91.096C154.034 91.6111 154.613 91.867 155.128 91.6677L154.407 89.8025ZM160.92 89.257C161.424 89.0317 161.65 88.4403 161.425 87.936C161.2 87.4318 160.608 87.2056 160.104 87.4309L160.92 89.257ZM167.484 83.8161C166.997 84.0767 166.813 84.6827 167.074 85.1696C167.335 85.6566 167.941 85.8402 168.427 85.5796L167.484 83.8161ZM173.783 82.5319C174.256 82.247 174.409 81.6324 174.124 81.1593C173.839 80.6863 173.224 80.5338 172.751 80.8187L173.783 82.5319ZM179.404 76.5105C178.95 76.8261 178.839 77.4493 179.154 77.9025C179.47 78.3558 180.093 78.4674 180.546 78.1518L179.404 76.5105ZM185.421 74.5588C185.856 74.2189 185.934 73.5905 185.594 73.1552C185.254 72.7199 184.626 72.6426 184.19 72.9825L185.421 74.5588ZM190.228 67.8601C189.822 68.2351 189.798 68.8678 190.173 69.2732C190.548 69.6786 191.18 69.7032 191.586 69.3281L190.228 67.8601ZM195.893 65.0474C196.27 64.6437 196.248 64.011 195.845 63.6341C195.441 63.2572 194.808 63.2789 194.431 63.6826L195.893 65.0474ZM199.478 57.6307C199.15 58.0752 199.245 58.7013 199.69 59.029C200.134 59.3567 200.76 59.262 201.088 58.8174L199.478 57.6307ZM204.456 53.7304C204.736 53.2544 204.577 52.6414 204.101 52.3613C203.625 52.0812 203.012 52.24 202.732 52.7159L204.456 53.7304ZM206.162 45.6774C205.962 46.1922 206.218 46.7716 206.733 46.9715C207.247 47.1714 207.827 46.9161 208.027 46.4013L206.162 45.6774ZM209.855 40.5492C209.982 40.0118 209.65 39.4728 209.113 39.3451C208.575 39.2175 208.036 39.5496 207.909 40.087L209.855 40.5492ZM208.97 32.3657C208.948 32.9176 209.378 33.3824 209.93 33.4039C210.482 33.4254 210.947 32.9954 210.968 32.4436L208.97 32.3657ZM210.747 26.0491C210.689 25.4999 210.196 25.1021 209.647 25.1606C209.098 25.2191 208.7 25.7117 208.759 26.2609L210.747 26.0491ZM206.804 18.1844C207.018 18.6935 207.604 18.9326 208.113 18.7185C208.622 18.5044 208.862 17.9181 208.647 17.409L206.804 18.1844ZM205.076 11.6603C204.711 11.2464 204.079 11.2072 203.665 11.5728C203.251 11.9384 203.212 12.5704 203.577 12.9843L205.076 11.6603ZM196.985 8.11735C197.48 8.36159 198.08 8.15803 198.324 7.66268C198.568 7.16734 198.365 6.56779 197.869 6.32355L196.985 8.11735ZM191.724 3.88558C191.199 3.71199 190.634 3.99629 190.46 4.52059C190.286 5.04488 190.571 5.61063 191.095 5.78422L191.724 3.88558ZM182.85 3.13415C183.37 3.31947 183.942 3.04794 184.127 2.52768C184.312 2.00741 184.041 1.43542 183.521 1.2501L182.85 3.13415ZM11.6312 119.086C13.6914 118.523 15.7478 117.943 17.8012 117.355L17.251 115.432C15.2022 116.019 13.1537 116.596 11.1034 117.157L11.6312 119.086ZM25.9975 114.987C28.0459 114.395 30.0928 113.807 32.1406 113.231L31.5993 111.305C29.5444 111.883 27.4921 112.473 25.442 113.066L25.9975 114.987ZM40.3519 111.011C42.4123 110.482 44.4747 109.976 46.5407 109.504L46.095 107.554C44.0089 108.031 41.929 108.541 39.8542 109.074L40.3519 111.011ZM54.848 107.806C55.8909 107.621 56.9351 107.447 57.9808 107.285L57.6748 105.309C56.6137 105.473 55.5549 105.649 54.4981 105.837L54.848 107.806ZM57.9808 107.285C58.9999 107.127 60.0212 106.976 61.0444 106.831L60.7634 104.851C59.7323 104.997 58.7027 105.149 57.6748 105.309L57.9808 107.285ZM69.2443 105.787C71.2954 105.552 73.3528 105.333 75.4157 105.127L75.216 103.137C73.1457 103.344 71.0788 103.563 69.0168 103.8L69.2443 105.787ZM83.6617 104.349C85.7233 104.165 87.788 103.984 89.8563 103.803L89.6815 101.81C87.6141 101.992 85.5471 102.172 83.483 102.357L83.6617 104.349ZM98.1216 103.062C100.187 102.87 102.255 102.671 104.322 102.458L104.118 100.469C102.058 100.68 99.9977 100.879 97.9366 101.071L98.1216 103.062ZM112.584 101.53C114.648 101.275 116.71 101.001 118.77 100.702L118.483 98.7226C116.438 99.0193 114.39 99.2918 112.339 99.5451L112.584 101.53ZM126.991 99.3641C129.039 98.9915 131.084 98.5876 133.124 98.1473L132.702 96.1923C130.685 96.6277 128.661 97.0274 126.633 97.3964L126.991 99.3641ZM141.233 96.1874C143.243 95.646 145.248 95.0622 147.245 94.4309L146.642 92.5239C144.674 93.146 142.697 93.7219 140.713 94.2563L141.233 96.1874ZM155.128 91.6677C157.067 90.9175 158.998 90.1155 160.92 89.257L160.104 87.4309C158.214 88.2752 156.315 89.0642 154.407 89.8025L155.128 91.6677ZM168.427 85.5796C169.346 85.088 170.263 84.5818 171.176 84.0603L170.185 82.3233C169.287 82.8356 168.387 83.3331 167.484 83.8161L168.427 85.5796ZM171.176 84.0603C171.988 83.5973 172.86 83.0877 173.783 82.5319L172.751 80.8187C171.843 81.3657 170.984 81.8674 170.185 82.3233L171.176 84.0603ZM180.546 78.1518C182.13 77.0492 183.766 75.851 185.421 74.5588L184.19 72.9825C182.567 74.2502 180.96 75.4267 179.404 76.5105L180.546 78.1518ZM191.586 69.3281C193.049 67.9744 194.493 66.5472 195.893 65.0474L194.431 63.6826C193.067 65.1438 191.658 66.5367 190.228 67.8601L191.586 69.3281ZM201.088 58.8174C202.288 57.1887 203.419 55.4927 204.456 53.7304L202.732 52.7159C201.733 54.4145 200.641 56.0531 199.478 57.6307L201.088 58.8174ZM208.027 46.4013C208.76 44.5123 209.377 42.5612 209.855 40.5492L207.909 40.087C207.453 42.0055 206.864 43.8692 206.162 45.6774L208.027 46.4013ZM210.968 32.4436C211.008 31.4308 211.011 30.4056 210.976 29.368L208.977 29.4357C209.01 30.4246 209.007 31.4013 208.97 32.3657L210.968 32.4436ZM210.976 29.368C210.936 28.2085 210.86 27.1032 210.747 26.0491L208.759 26.2609C208.865 27.2641 208.939 28.3212 208.977 29.4357L210.976 29.368ZM208.647 17.409C207.693 15.1407 206.482 13.2521 205.076 11.6603L203.577 12.9843C204.837 14.4105 205.933 16.113 206.804 18.1844L208.647 17.409ZM197.869 6.32355C195.886 5.34545 193.802 4.57383 191.724 3.88558L191.095 5.78422C193.135 6.45953 195.12 7.19771 196.985 8.11735L197.869 6.32355ZM183.521 1.2501C182.507 0.888906 181.525 0.506721 180.583 0.0867549L179.768 1.91325C180.769 2.35962 181.801 2.7607 182.85 3.13415L183.521 1.2501Z" fill="#B3A8A8" fill-opacity="0.99"/>
</svg>
