<svg width="219" height="135" viewBox="0 0 219 135" fill="none" xmlns="http://www.w3.org/2000/svg">
<g filter="url(#filter0_d_162_21423)">
<path d="M5.4801 0.860355C5.40298 0.595201 5.12551 0.442773 4.86035 0.519897C4.5952 0.597021 4.44277 0.874492 4.5199 1.13965L5.4801 0.860355ZM30.9359 39.5455L30.5849 39.9016L30.5849 39.9016L30.9359 39.5455ZM102.282 90.4545L102.516 90.0127L102.516 90.0127L102.282 90.4545ZM215 121L210.023 118.073L209.977 123.847L215 121ZM5.54855 4.36415C5.63924 4.62497 5.9242 4.7629 6.18503 4.67221C6.44585 4.58152 6.58377 4.29656 6.49309 4.03573L5.54855 4.36415ZM9.97677 12.2054C9.8516 11.9593 9.55059 11.8612 9.30444 11.9864C9.0583 12.1115 8.96023 12.4125 9.0854 12.6587L9.97677 12.2054ZM12.4351 18.5324C12.5828 18.7657 12.8917 18.8351 13.125 18.6873C13.3583 18.5396 13.4277 18.2307 13.28 17.9974L12.4351 18.5324ZM18.4469 25.2425C18.2754 25.0261 17.9609 24.9897 17.7445 25.1612C17.5281 25.3327 17.4917 25.6472 17.6632 25.8636L18.4469 25.2425ZM22.0183 31.0153C22.2026 31.221 22.5187 31.2383 22.7244 31.0541C22.93 30.8698 22.9474 30.5537 22.7631 30.348L22.0183 31.0153ZM28.9102 36.8246C28.7155 36.6287 28.3989 36.6278 28.2031 36.8224C28.0072 37.0171 28.0062 37.3337 28.2009 37.5295L28.9102 36.8246ZM32.8409 42.0976C33.04 42.289 33.3565 42.2828 33.5479 42.0837C33.7393 41.8847 33.7331 41.5681 33.534 41.3768L32.8409 42.0976ZM39.6556 47.0711C39.4504 46.8863 39.1342 46.9029 38.9495 47.1082C38.7647 47.3134 38.7814 47.6296 38.9866 47.8143L39.6556 47.0711ZM43.7172 51.9692C43.9269 52.1489 44.2425 52.1246 44.4222 51.9149C44.6019 51.7052 44.5776 51.3896 44.368 51.2099L43.7172 51.9692ZM50.8024 56.5495C50.5871 56.3765 50.2724 56.4108 50.0994 56.6261C49.9265 56.8413 49.9607 57.156 50.176 57.329L50.8024 56.5495ZM55.1283 61.2149C55.3475 61.3829 55.6614 61.3413 55.8293 61.1221C55.9973 60.9029 55.9557 60.5891 55.7366 60.4211L55.1283 61.2149ZM62.4498 65.4073C62.2257 65.2459 61.9133 65.2968 61.7519 65.5209C61.5905 65.745 61.6414 66.0575 61.8655 66.2188L62.4498 65.4073ZM67.0121 69.841C67.2396 69.9976 67.5509 69.94 67.7074 69.7125C67.8639 69.485 67.8064 69.1737 67.5789 69.0172L67.0121 69.841ZM74.5337 73.6627C74.3021 73.5124 73.9924 73.5784 73.8422 73.8101C73.6919 74.0418 73.7579 74.3514 73.9896 74.5017L74.5337 73.6627ZM79.3024 77.8747C79.5369 78.0204 79.8452 77.9485 79.991 77.7139C80.1367 77.4794 80.0648 77.1711 79.8303 77.0253L79.3024 77.8747ZM86.9888 81.3539C86.7508 81.2138 86.4443 81.2932 86.3043 81.5312C86.1642 81.7692 86.2436 82.0757 86.4816 82.2157L86.9888 81.3539ZM91.931 85.3603C92.1713 85.4963 92.4764 85.4118 92.6124 85.1714C92.7484 84.9311 92.6638 84.626 92.4235 84.49L91.931 85.3603ZM99.7483 88.5342C99.5052 88.4032 99.2019 88.4941 99.0709 88.7372C98.94 88.9803 99.0308 89.2835 99.2739 89.4145L99.7483 88.5342ZM104.852 92.3642C105.098 92.4911 105.399 92.3951 105.526 92.1498C105.653 91.9045 105.557 91.6028 105.312 91.476L104.852 92.3642ZM112.834 95.2412C112.585 95.1209 112.286 95.2249 112.166 95.4735C112.045 95.7221 112.149 96.0211 112.398 96.1414L112.834 95.2412ZM118.125 98.8396C118.376 98.9547 118.672 98.8445 118.788 98.5934C118.903 98.3424 118.792 98.0456 118.541 97.9306L118.125 98.8396ZM126.236 101.325C125.982 101.217 125.688 101.336 125.58 101.59C125.473 101.844 125.591 102.138 125.846 102.246L126.236 101.325ZM131.702 104.651C131.959 104.753 132.25 104.627 132.352 104.371C132.454 104.114 132.328 103.823 132.072 103.721L131.702 104.651ZM139.934 106.705C139.674 106.611 139.387 106.745 139.293 107.005C139.2 107.265 139.334 107.551 139.594 107.645L139.934 106.705ZM145.574 109.725C145.836 109.813 146.119 109.671 146.207 109.409C146.294 109.148 146.153 108.864 145.891 108.777L145.574 109.725ZM153.909 111.306C153.644 111.228 153.366 111.379 153.288 111.643C153.209 111.908 153.36 112.186 153.625 112.265L153.909 111.306ZM159.719 113.988C159.985 114.059 160.259 113.901 160.331 113.634C160.403 113.368 160.244 113.093 159.978 113.022L159.719 113.988ZM168.135 115.054C167.866 114.993 167.597 115.161 167.535 115.43C167.474 115.699 167.642 115.967 167.911 116.029L168.135 115.054ZM174.102 117.362C174.373 117.416 174.637 117.24 174.691 116.97C174.745 116.699 174.57 116.435 174.299 116.381L174.102 117.362ZM182.571 117.875C182.298 117.831 182.041 118.017 181.998 118.289C181.954 118.562 182.139 118.819 182.412 118.862L182.571 117.875ZM188.68 119.774C188.954 119.81 189.205 119.617 189.24 119.343C189.276 119.069 189.083 118.818 188.809 118.783L188.68 119.774ZM197.164 119.7C196.889 119.676 196.646 119.879 196.621 120.154C196.597 120.429 196.8 120.672 197.075 120.696L197.164 119.7ZM203.392 121.162C203.668 121.178 203.904 120.968 203.92 120.692C203.936 120.416 203.726 120.18 203.45 120.164L203.392 121.162ZM211.848 120.475C211.572 120.47 211.345 120.691 211.34 120.967C211.336 121.243 211.556 121.47 211.832 121.475L211.848 120.475ZM4.5199 1.13965C4.83892 2.23646 5.18235 3.31092 5.54855 4.36415L6.49309 4.03573C6.13248 2.99861 5.79429 1.94053 5.4801 0.860355L4.5199 1.13965ZM9.0854 12.6587C10.1224 14.6979 11.2444 16.652 12.4351 18.5324L13.28 17.9974C12.1049 16.1417 10.9986 14.2148 9.97677 12.2054L9.0854 12.6587ZM17.6632 25.8636C19.0709 27.6399 20.5289 29.3528 22.0183 31.0153L22.7631 30.348C21.285 28.6982 19.8403 27.0007 18.4469 25.2425L17.6632 25.8636ZM28.2009 37.5295C28.9947 38.3282 29.7903 39.1184 30.5849 39.9016L31.2869 39.1893C30.494 38.4079 29.701 37.6203 28.9102 36.8246L28.2009 37.5295ZM30.5849 39.9016C31.3343 40.6402 32.0863 41.3721 32.8409 42.0976L33.534 41.3768C32.7824 40.6541 32.0333 39.925 31.2869 39.1893L30.5849 39.9016ZM38.9866 47.8143C40.5534 49.2246 42.1304 50.6092 43.7172 51.9692L44.368 51.2099C42.7872 49.8551 41.2163 48.4758 39.6556 47.0711L38.9866 47.8143ZM50.176 57.329C51.8174 58.648 53.4683 59.943 55.1283 61.2149L55.7366 60.4211C54.0826 59.1538 52.4377 57.8636 50.8024 56.5495L50.176 57.329ZM61.8655 66.2188C63.5725 67.448 65.2882 68.655 67.0121 69.841L67.5789 69.0172C65.8607 67.8351 64.1509 66.6322 62.4498 65.4073L61.8655 66.2188ZM73.9896 74.5017C75.7529 75.6455 77.524 76.7694 79.3024 77.8747L79.8303 77.0253C78.0572 75.9234 76.2916 74.8029 74.5337 73.6627L73.9896 74.5017ZM86.4816 82.2157C88.2915 83.2809 90.1082 84.3286 91.931 85.3603L92.4235 84.49C90.6055 83.461 88.7937 82.4161 86.9888 81.3539L86.4816 82.2157ZM99.2739 89.4145C100.197 89.9121 101.122 90.406 102.048 90.8964L102.516 90.0127C101.592 89.5234 100.669 89.0306 99.7483 88.5342L99.2739 89.4145ZM102.048 90.8964C102.982 91.3908 103.917 91.8801 104.852 92.3642L105.312 91.476C104.379 90.9934 103.447 90.5056 102.516 90.0127L102.048 90.8964ZM112.398 96.1414C114.302 97.0628 116.211 97.9624 118.125 98.8396L118.541 97.9306C116.634 97.0563 114.732 96.1597 112.834 95.2412L112.398 96.1414ZM125.846 102.246C127.794 103.071 129.746 103.873 131.702 104.651L132.072 103.721C130.122 102.947 128.177 102.148 126.236 101.325L125.846 102.246ZM139.594 107.645C141.583 108.364 143.576 109.058 145.574 109.725L145.891 108.777C143.901 108.112 141.915 107.421 139.934 106.705L139.594 107.645ZM153.625 112.265C155.652 112.867 157.683 113.441 159.719 113.988L159.978 113.022C157.951 112.478 155.928 111.906 153.909 111.306L153.625 112.265ZM167.911 116.029C169.971 116.503 172.035 116.947 174.102 117.362L174.299 116.381C172.241 115.968 170.186 115.526 168.135 115.054L167.911 116.029ZM182.412 118.862C184.498 119.197 186.587 119.502 188.68 119.774L188.809 118.783C186.726 118.511 184.647 118.209 182.571 117.875L182.412 118.862ZM197.075 120.696C199.177 120.884 201.283 121.04 203.392 121.162L203.45 120.164C201.351 120.042 199.256 119.887 197.164 119.7L197.075 120.696ZM5.96021 0.720709C5.80596 0.190402 5.25102 -0.114455 4.72071 0.0397934C4.1904 0.194042 3.88555 0.748983 4.03979 1.27929L5.96021 0.720709ZM30.9359 39.5455L30.2339 40.2577L30.2339 40.2577L30.9359 39.5455ZM102.282 90.4545L102.75 89.5708L102.75 89.5708L102.282 90.4545ZM215 121L205.046 115.147L204.954 126.694L215 121ZM5.07628 4.52835C5.25766 5.05 5.82758 5.32585 6.34923 5.14447C6.87088 4.9631 7.14673 4.39318 6.96535 3.87153L5.07628 4.52835ZM10.4225 11.9788C10.1721 11.4865 9.57009 11.2903 9.0778 11.5407C8.58551 11.791 8.38937 12.393 8.63971 12.8853L10.4225 11.9788ZM12.0126 18.7999C12.3081 19.2665 12.9259 19.4052 13.3925 19.1098C13.8591 18.8143 13.9978 18.1966 13.7024 17.7299L12.0126 18.7999ZM18.8388 24.9319C18.4957 24.4991 17.8668 24.4263 17.4339 24.7693C17.0011 25.1124 16.9283 25.7413 17.2713 26.1742L18.8388 24.9319ZM21.6459 31.3489C22.0144 31.7603 22.6467 31.795 23.058 31.4265C23.4694 31.0579 23.5041 30.4257 23.1355 30.0144L21.6459 31.3489ZM29.2648 36.4721C28.8755 36.0804 28.2423 36.0785 27.8506 36.4678C27.4589 36.8571 27.4569 37.4903 27.8463 37.882L29.2648 36.4721ZM32.4944 42.4581C32.8925 42.8408 33.5256 42.8284 33.9084 42.4303C34.2911 42.0321 34.2787 41.3991 33.8805 41.0163L32.4944 42.4581ZM39.9901 46.6994C39.5796 46.33 38.9473 46.3632 38.5778 46.7737C38.2084 47.1842 38.2416 47.8165 38.6521 48.186L39.9901 46.6994ZM43.3918 52.3488C43.8112 52.7082 44.4425 52.6596 44.8019 52.2403C45.1613 51.8209 45.1127 51.1897 44.6933 50.8302L43.3918 52.3488ZM51.1156 56.1598C50.6851 55.8138 50.0556 55.8824 49.7097 56.3129C49.3637 56.7434 49.4323 57.3728 49.8628 57.7188L51.1156 56.1598ZM54.8242 61.6118C55.2626 61.9477 55.8903 61.8646 56.2262 61.4263C56.5621 60.9879 56.479 60.3602 56.0407 60.0243L54.8242 61.6118ZM62.742 65.0015C62.2938 64.6788 61.6689 64.7805 61.3461 65.2287C61.0234 65.6769 61.1251 66.3019 61.5733 66.6246L62.742 65.0015ZM66.7286 70.253C67.1836 70.566 67.8063 70.4509 68.1193 69.9959C68.4324 69.5409 68.3173 68.9183 67.8623 68.6053L66.7286 70.253ZM74.8058 73.2432C74.3425 72.9427 73.7232 73.0747 73.4227 73.538C73.1221 74.0014 73.2541 74.6206 73.7175 74.9212L74.8058 73.2432ZM79.0384 78.2993C79.5075 78.5909 80.1241 78.4469 80.4156 77.9779C80.7072 77.5088 80.5633 76.8922 80.0942 76.6007L79.0384 78.2993ZM87.2424 80.923C86.7664 80.6429 86.1534 80.8016 85.8733 81.2776C85.5932 81.7536 85.752 82.3665 86.228 82.6466L87.2424 80.923ZM91.6847 85.7954C92.1653 86.0675 92.7755 85.8984 93.0475 85.4177C93.3196 84.9371 93.1504 84.3269 92.6698 84.0549L91.6847 85.7954ZM99.9855 88.0941C99.4993 87.8321 98.8928 88.0138 98.6308 88.5C98.3688 88.9862 98.5505 89.5927 99.0367 89.8547L99.9855 88.0941ZM104.623 92.8083C105.113 93.062 105.717 92.8701 105.97 92.3795C106.224 91.889 106.032 91.2856 105.542 91.0319L104.623 92.8083ZM113.051 94.7911C112.554 94.5506 111.956 94.7586 111.716 95.2557C111.475 95.7528 111.683 96.3509 112.18 96.5914L113.051 94.7911ZM117.916 99.2941C118.418 99.5243 119.012 99.3038 119.242 98.8018C119.472 98.2997 119.252 97.7062 118.75 97.476L117.916 99.2941ZM126.431 100.865C125.922 100.649 125.336 100.887 125.12 101.395C124.905 101.904 125.142 102.491 125.651 102.706L126.431 100.865ZM131.518 105.115C132.031 105.319 132.612 105.069 132.816 104.555C133.02 104.042 132.77 103.461 132.256 103.257L131.518 105.115ZM140.104 106.235C139.584 106.047 139.011 106.316 138.823 106.835C138.635 107.354 138.904 107.928 139.424 108.115L140.104 106.235ZM145.416 110.199C145.94 110.374 146.506 110.092 146.681 109.568C146.856 109.044 146.573 108.478 146.05 108.303L145.416 110.199ZM154.051 110.827C153.522 110.67 152.965 110.972 152.808 111.501C152.651 112.031 152.953 112.587 153.482 112.744L154.051 110.827ZM159.589 114.471C160.122 114.614 160.671 114.297 160.814 113.764C160.957 113.231 160.641 112.682 160.107 112.539L159.589 114.471ZM168.247 114.567C167.709 114.443 167.172 114.779 167.048 115.318C166.924 115.856 167.26 116.393 167.799 116.516L168.247 114.567ZM174.004 117.852C174.546 117.96 175.073 117.609 175.181 117.068C175.29 116.526 174.939 115.999 174.397 115.891L174.004 117.852ZM182.65 117.381C182.105 117.294 181.592 117.665 181.504 118.21C181.416 118.755 181.787 119.268 182.333 119.356L182.65 117.381ZM188.615 120.27C189.163 120.342 189.665 119.955 189.736 119.408C189.808 118.86 189.421 118.358 188.874 118.287L188.615 120.27ZM197.208 119.202C196.658 119.153 196.172 119.559 196.123 120.109C196.074 120.66 196.48 121.145 197.03 121.194L197.208 119.202ZM203.363 121.661C203.914 121.693 204.387 121.272 204.419 120.721C204.451 120.169 204.03 119.697 203.479 119.665L203.363 121.661ZM211.856 119.975C211.304 119.966 210.849 120.407 210.84 120.959C210.832 121.511 211.272 121.966 211.824 121.975L211.856 119.975ZM4.03979 1.27929C4.36124 2.38443 4.70728 3.46707 5.07628 4.52835L6.96535 3.87153C6.60754 2.84245 6.27197 1.79256 5.96021 0.720709L4.03979 1.27929ZM8.63971 12.8853C9.68427 14.9394 10.8142 16.9071 12.0126 18.7999L13.7024 17.7299C12.5352 15.8866 11.4367 13.9733 10.4225 11.9788L8.63971 12.8853ZM17.2713 26.1742C18.6862 27.9595 20.1509 29.6802 21.6459 31.3489L23.1355 30.0144C21.6631 28.3708 20.225 26.6811 18.8388 24.9319L17.2713 26.1742ZM27.8463 37.882C28.6416 38.6822 29.4384 39.4736 30.2339 40.2577L31.6379 38.8332C30.8459 38.0527 30.0541 37.2663 29.2648 36.4721L27.8463 37.882ZM30.2339 40.2577C30.9848 40.9977 31.7383 41.7312 32.4944 42.4581L33.8805 41.0163C33.1304 40.2951 32.3828 39.5675 31.6379 38.8332L30.2339 40.2577ZM38.6521 48.186C40.222 49.599 41.802 50.9862 43.3918 52.3488L44.6933 50.8302C43.1157 49.4781 41.5478 48.1015 39.9901 46.6994L38.6521 48.186ZM49.8628 57.7188C51.5073 59.0402 53.1612 60.3375 54.8242 61.6118L56.0407 60.0243C54.3897 58.7592 52.7479 57.4714 51.1156 56.1598L49.8628 57.7188ZM61.5733 66.6246C63.2833 67.8558 65.0019 69.0649 66.7286 70.253L67.8623 68.6053C66.147 67.4252 64.4401 66.2243 62.742 65.0015L61.5733 66.6246ZM73.7175 74.9212C75.4836 76.0667 77.2574 77.1924 79.0384 78.2993L80.0942 76.6007C78.3238 75.5004 76.5609 74.3816 74.8058 73.2432L73.7175 74.9212ZM86.228 82.6466C88.0405 83.7132 89.8595 84.7624 91.6847 85.7954L92.6698 84.0549C90.8541 83.0272 89.0448 81.9837 87.2424 80.923L86.228 82.6466ZM99.0367 89.8547C99.9612 90.3529 100.887 90.8473 101.814 91.3383L102.75 89.5708C101.827 89.0821 100.906 88.5899 99.9855 88.0941L99.0367 89.8547ZM101.814 91.3383C102.749 91.8334 103.685 92.3235 104.623 92.8083L105.542 91.0319C104.61 90.55 103.679 90.063 102.75 89.5708L101.814 91.3383ZM112.18 96.5914C114.088 97.5144 116 98.4155 117.916 99.2941L118.75 97.476C116.846 96.6033 114.946 95.7082 113.051 94.7911L112.18 96.5914ZM125.651 102.706C127.602 103.533 129.558 104.336 131.518 105.115L132.256 103.257C130.31 102.483 128.369 101.686 126.431 100.865L125.651 102.706ZM139.424 108.115C141.417 108.836 143.414 109.531 145.416 110.199L146.05 108.303C144.064 107.639 142.082 106.95 140.104 106.235L139.424 108.115ZM153.482 112.744C155.514 113.347 157.549 113.923 159.589 114.471L160.107 112.539C158.085 111.996 156.066 111.425 154.051 110.827L153.482 112.744ZM167.799 116.516C169.863 116.991 171.932 117.436 174.004 117.852L174.397 115.891C172.343 115.479 170.293 115.038 168.247 114.567L167.799 116.516ZM182.333 119.356C184.423 119.692 186.517 119.997 188.615 120.27L188.874 118.287C186.796 118.016 184.721 117.714 182.65 117.381L182.333 119.356ZM197.03 121.194C199.138 121.383 201.249 121.538 203.363 121.661L203.479 119.665C201.385 119.543 199.295 119.389 197.208 119.202L197.03 121.194Z" fill="#B3A8A8" fill-opacity="0.99"/>
</g>
<defs>
<filter id="filter0_d_162_21423" x="-0.000244141" y="-0.000244141" width="219" height="134.694" filterUnits="userSpaceOnUse" color-interpolation-filters="sRGB">
<feFlood flood-opacity="0" result="BackgroundImageFix"/>
<feColorMatrix in="SourceAlpha" type="matrix" values="0 0 0 0 0 0 0 0 0 0 0 0 0 0 0 0 0 0 127 0" result="hardAlpha"/>
<feOffset dy="4"/>
<feGaussianBlur stdDeviation="2"/>
<feComposite in2="hardAlpha" operator="out"/>
<feColorMatrix type="matrix" values="0 0 0 0 0 0 0 0 0 0 0 0 0 0 0 0 0 0 0.25 0"/>
<feBlend mode="normal" in2="BackgroundImageFix" result="effect1_dropShadow_162_21423"/>
<feBlend mode="normal" in="SourceGraphic" in2="effect1_dropShadow_162_21423" result="shape"/>
</filter>
</defs>
</svg>
