<svg width="202" height="128" viewBox="0 0 202 128" fill="none" xmlns="http://www.w3.org/2000/svg">
<path d="M170.991 3.17351C169.982 2.7235 168.799 3.17644 168.349 4.18518C167.899 5.19392 168.352 6.37648 169.361 6.82649L170.991 3.17351ZM199.976 33.4018L201.975 33.3342L199.976 33.4018ZM160.681 87.1918L161.672 88.9288L161.672 88.9288L160.681 87.1918ZM47.8278 110.297L47.5218 108.32L47.8278 110.297ZM0.5 121.5L22.7318 127.751L17.0297 105.372L0.5 121.5ZM169.361 6.82649C172.451 8.20518 175.902 9.18543 179.103 10.1931C182.375 11.2233 185.466 12.3027 188.192 13.8997C190.882 15.4764 193.194 17.5464 194.898 20.5604C196.611 23.5902 197.782 27.7031 197.977 33.4695L201.975 33.3342C201.764 27.0955 200.484 22.3147 198.38 18.5919C196.266 14.8534 193.394 12.3121 190.214 10.4485C187.068 8.60528 183.6 7.41564 180.304 6.37776C176.936 5.31746 173.809 4.43076 170.991 3.17351L169.361 6.82649ZM197.977 33.4695C198.427 46.7404 192.115 57.8962 183.954 66.7273C175.791 75.5594 165.931 81.8929 159.689 85.4547L161.672 88.9288C168.067 85.2791 178.328 78.7073 186.891 69.4422C195.455 60.1759 202.473 48.0425 201.975 33.3342L197.977 33.4695ZM159.689 85.4547C142.118 95.4823 123.514 99.7689 104.551 102.255C95.063 103.5 85.5264 104.289 75.9767 105.132C66.4461 105.973 56.9115 106.867 47.5218 108.32L48.1338 112.273C57.3797 110.842 66.7963 109.958 76.3284 109.116C85.8413 108.277 95.4788 107.479 105.072 106.222C124.272 103.704 143.458 99.323 161.672 88.9288L159.689 85.4547ZM47.5218 108.32C34.7732 110.294 26.6965 112.582 17.4134 115.127L18.471 118.985C27.7515 116.44 35.6331 114.209 48.1338 112.273L47.5218 108.32Z" fill="#D9D9D9"/>
<path d="M171.044 5.79376C171.004 5.47662 170.164 5.07739 169.858 4.77137C169.226 4.1393 169.745 3.62368 169.919 3.01286C170.548 0.813365 174.232 2.00092 175.747 2.11316C178.143 2.29062 183.16 4.65948 184.846 6.34585C185.904 7.40352 187.411 8.30249 188.711 9.02451C190.145 9.82091 191.473 11.0916 192.596 12.2144C196.338 15.9565 199.385 21.3253 199.385 26.7732" stroke="#D9D9D9" stroke-width="3" stroke-linecap="round"/>
<path d="M196.072 53.6416C195.942 54.8172 194.905 56.1459 194.416 57.1791C193.466 59.1848 192.529 61.4154 191.206 63.2112C187.799 67.8344 184.611 72.449 180.655 76.6249C179.597 77.7411 178.479 78.8865 177.465 80.0601C176.259 81.4554 174.687 82.4368 173.539 83.8225C172.176 85.4674 170.135 88.045 168.181 88.9754C167.305 89.3926 166.453 90.1575 165.626 90.693C163.784 91.8844 161.74 92.6535 159.839 93.7397C156.839 95.454 154.102 96.9319 150.801 97.9929C142.924 100.525 134.905 104.625 126.509 105.15C122.306 105.412 118.153 106.21 113.913 106.274C109.489 106.341 104.762 106.43 100.377 107.092C98.2984 107.406 96.2669 107.378 94.1605 107.378C91.0779 107.378 88.0712 108.115 84.9794 108.115C80.5491 108.115 76.1414 108.851 71.6884 108.851C65.381 108.851 59.22 109.219 52.8969 109.219" stroke="#D9D9D9" stroke-width="3" stroke-linecap="round"/>
<path d="M172.148 80.8782C172.148 83.8838 169.665 86.6741 167.732 88.6074C167.051 89.2878 161.333 92.3731 161.107 91.92" stroke="#D9D9D9" stroke-width="3" stroke-linecap="round"/>
<path d="M170.308 83.0864C170.008 85.7844 165.203 87.7657 163.11 88.8118C160.666 90.034 158.405 91.5217 155.667 92.2061C154.099 92.5982 152.646 93.6031 151.251 94.4145C148.743 95.8723 146.13 96.8922 143.44 97.9929C137.377 100.473 130.284 100.739 124.485 103.861C121.724 105.348 117.86 105.17 115.099 105.17" stroke="#D9D9D9" stroke-width="3" stroke-linecap="round"/>
<path d="M148.593 94.8644C150.818 94.8644 152.757 93.7298 154.768 93.1059C157.053 92.3966 159.759 91.1888 161.843 89.9979C165.419 87.9541 166.006 83.7464 169.204 81.6143" stroke="#D9D9D9" stroke-width="3" stroke-linecap="round"/>
<path d="M171.78 81.2461C173.288 80.9112 174.192 78.5679 175.461 77.9336" stroke="#D9D9D9" stroke-width="3" stroke-linecap="round"/>
<path d="M172.885 3.58545C175.32 3.88989 178.206 5.39713 180.491 6.20277C181.638 6.60698 182.403 7.26605 183.558 7.26605" stroke="#D9D9D9" stroke-width="3" stroke-linecap="round"/>
<path d="M191.798 61.2993C191.798 62.5208 190.9 63.124 190.487 64.1981C190.069 65.2859 189.083 66.7392 188.345 67.601C186.534 69.7137 185.228 72.1473 183.228 74.1799C181.67 75.7623 180.215 77.4199 178.64 78.9943C175.614 82.02 172.582 85.1043 169.137 87.6654C166.892 89.3347 164.609 91.0909 162.155 92.4294C158.491 94.4281 154.808 96.0829 150.951 97.7102C149.078 98.5001 147.104 98.858 145.216 99.5628C143.284 100.284 141.368 100.979 139.381 101.554C135.49 102.681 131.466 103.583 127.521 104.516C119.965 106.302 112.335 106.743 104.659 107.528C101.16 107.886 97.464 107.805 93.9462 107.805C90.9609 107.805 87.9755 108.145 84.9979 108.272C81.8117 108.407 78.6289 108.584 75.4446 108.725C69.7066 108.98 63.8927 109.847 58.1781 109.847" stroke="#D9D9D9" stroke-width="3" stroke-linecap="round"/>
<path d="M60.9004 109.847C58.1694 110.151 55.3445 110.074 52.557 110.074C50.3916 110.074 48.2637 110.755 46.1545 110.755" stroke="#D9D9D9" stroke-width="3" stroke-linecap="round"/>
</svg>
