<svg width="212" height="135" viewBox="0 0 212 135" fill="none" xmlns="http://www.w3.org/2000/svg">
<path d="M3.92041 3.44142C3.61192 2.3808 2.50203 1.77109 1.44142 2.07959C0.380803 2.38808 -0.228909 3.49797 0.0795869 4.55858L3.92041 3.44142ZM27.9359 42.5455L29.3398 41.121L29.3398 41.121L27.9359 42.5455ZM99.2821 93.4545L100.218 91.6871L100.218 91.6871L99.2821 93.4545ZM212 124L192.54 111.564L191.5 134.635L212 124ZM0.0795869 4.55858C5.09975 21.818 16.0165 33.6058 26.532 43.9699L29.3398 41.121C18.8827 30.8144 8.63263 19.6421 3.92041 3.44142L0.0795869 4.55858ZM26.532 43.9699C48.6456 65.7653 73.0266 81.8141 98.3461 95.222L100.218 91.6871C75.129 78.4012 51.0981 62.5662 29.3398 41.121L26.532 43.9699ZM98.3461 95.222C129.015 111.463 160.992 122.232 193.838 125.181L194.196 121.197C161.987 118.306 130.523 107.735 100.218 91.6871L98.3461 95.222Z" fill="#D9D9D9"/>
<path d="M2.03781 6.3768C2.03781 4.24033 0.383391 2.3023 3.35848 1.70729C6.55543 1.06789 7.81093 2.82017 8.82983 5.62213C9.20362 6.65005 9.51551 7.77452 9.89894 8.86092C10.9841 11.9355 12.5392 14.8245 13.6408 17.8541C14.2239 19.4575 15.1052 21.3054 16.125 22.6651C17.1367 24.014 18.5531 25.4805 19.3323 26.9415C21.2814 30.5962 24.5457 33.7774 27.0362 37.0981C31.1233 42.5475 36.3191 47.7331 41.0919 52.506C42.5022 53.9162 43.7311 55.5853 45.1168 56.9711C46.1483 58.0025 47.5318 59.1596 48.167 60.43" stroke="#D9D9D9" stroke-width="3" stroke-linecap="round"/>
<path d="M22.131 34.96C22.0243 34.0002 19.9945 31.6025 19.3324 30.9036C17.8578 29.3471 16.5326 27.5012 15.4018 25.6838C13.6438 22.8585 11.6616 20.4061 10.5908 17.1938C9.03277 12.5196 6.37784 8.07663 4.86792 3.54688" stroke="#D9D9D9" stroke-width="3" stroke-linecap="round"/>
</svg>
