<svg width="211" height="125" viewBox="0 0 211 125" fill="none" xmlns="http://www.w3.org/2000/svg">
<path d="M180.583 0.0867549C180.079 -0.138252 179.487 0.0882181 179.262 0.59259C179.037 1.09696 179.264 1.68824 179.768 1.91325L180.583 0.0867549ZM209.976 29.4018L208.977 29.4357L209.976 29.4018ZM170.681 83.1918L170.185 82.3233L170.681 83.1918ZM57.8278 106.297L57.9808 107.285L57.8278 106.297ZM0 121L11.0584 124.323L8.40731 113.085L0 121ZM3.34917 121.237C3.88579 121.107 4.21494 120.566 4.08435 120.029C3.95376 119.493 3.41288 119.163 2.87625 119.294L3.34917 121.237ZM11.1034 117.157C10.5707 117.303 10.257 117.853 10.4028 118.386C10.5485 118.918 11.0985 119.232 11.6312 119.086L11.1034 117.157ZM17.8012 117.355C18.3321 117.203 18.6394 116.65 18.4875 116.119C18.3356 115.588 17.782 115.28 17.251 115.432L17.8012 117.355ZM25.442 113.066C24.9114 113.219 24.6057 113.774 24.7591 114.304C24.9125 114.835 25.467 115.141 25.9975 114.987L25.442 113.066ZM32.1406 113.231C32.6723 113.081 32.9821 112.529 32.8326 111.997C32.6831 111.466 32.1309 111.156 31.5993 111.305L32.1406 113.231ZM39.8542 109.074C39.3193 109.211 38.997 109.756 39.1345 110.291C39.2719 110.826 39.817 111.148 40.3519 111.011L39.8542 109.074ZM46.5407 109.504C47.0791 109.381 47.4158 108.845 47.2927 108.306C47.1696 107.768 46.6334 107.431 46.095 107.554L46.5407 109.504ZM54.4981 105.837C53.9543 105.934 53.5918 106.453 53.6885 106.997C53.7851 107.541 54.3042 107.903 54.848 107.806L54.4981 105.837ZM61.0444 106.831C61.5912 106.753 61.9716 106.247 61.894 105.7C61.8164 105.153 61.3102 104.773 60.7634 104.851L61.0444 106.831ZM69.0168 103.8C68.4681 103.862 68.0742 104.358 68.137 104.907C68.1999 105.456 68.6956 105.849 69.2443 105.787L69.0168 103.8ZM75.4157 105.127C75.9652 105.071 76.366 104.581 76.3109 104.032C76.2557 103.482 75.7656 103.081 75.216 103.137L75.4157 105.127ZM83.483 102.357C82.933 102.407 82.527 102.893 82.5764 103.443C82.6257 103.993 83.1116 104.399 83.6617 104.349L83.483 102.357ZM89.8563 103.803C90.4065 103.754 90.8133 103.269 90.7651 102.719C90.7168 102.169 90.2317 101.762 89.6815 101.81L89.8563 103.803ZM97.9366 101.071C97.3867 101.122 96.9823 101.609 97.0334 102.159C97.0845 102.709 97.5717 103.113 98.1216 103.062L97.9366 101.071ZM104.322 102.458C104.872 102.402 105.271 101.911 105.215 101.361C105.159 100.812 104.667 100.412 104.118 100.469L104.322 102.458ZM112.339 99.5451C111.791 99.6128 111.401 100.112 111.469 100.66C111.537 101.208 112.036 101.598 112.584 101.53L112.339 99.5451ZM118.77 100.702C119.317 100.623 119.696 100.115 119.616 99.5686C119.537 99.0221 119.03 98.6433 118.483 98.7226L118.77 100.702ZM126.633 97.3964C126.09 97.4953 125.729 98.0159 125.828 98.5593C125.927 99.1026 126.448 99.463 126.991 99.3641L126.633 97.3964ZM133.124 98.1473C133.664 98.0308 134.007 97.4988 133.891 96.9589C133.774 96.4191 133.242 96.0758 132.702 96.1923L133.124 98.1473ZM140.713 94.2563C140.18 94.3999 139.864 94.9486 140.007 95.4819C140.151 96.0152 140.7 96.3311 141.233 96.1874L140.713 94.2563ZM147.245 94.4309C147.772 94.2645 148.064 93.7027 147.897 93.1761C147.731 92.6494 147.169 92.3574 146.642 92.5239L147.245 94.4309ZM154.407 89.8025C153.892 90.0018 153.636 90.5809 153.835 91.096C154.034 91.6111 154.613 91.867 155.128 91.6677L154.407 89.8025ZM160.92 89.257C161.424 89.0317 161.65 88.4403 161.425 87.936C161.2 87.4318 160.608 87.2056 160.104 87.4309L160.92 89.257ZM167.484 83.8161C166.997 84.0767 166.813 84.6827 167.074 85.1696C167.335 85.6566 167.941 85.8401 168.428 85.5796L167.484 83.8161ZM173.783 82.5319C174.256 82.247 174.409 81.6324 174.124 81.1593C173.839 80.6863 173.224 80.5338 172.751 80.8187L173.783 82.5319ZM179.404 76.5105C178.95 76.8261 178.839 77.4493 179.154 77.9025C179.47 78.3558 180.093 78.4674 180.546 78.1518L179.404 76.5105ZM185.421 74.5588C185.856 74.2189 185.934 73.5905 185.594 73.1552C185.254 72.7199 184.626 72.6426 184.19 72.9825L185.421 74.5588ZM190.228 67.8601C189.822 68.2351 189.798 68.8678 190.173 69.2732C190.548 69.6786 191.18 69.7032 191.586 69.3281L190.228 67.8601ZM195.893 65.0474C196.27 64.6437 196.248 64.0109 195.845 63.6341C195.441 63.2572 194.808 63.2789 194.431 63.6826L195.893 65.0474ZM199.478 57.6307C199.15 58.0752 199.245 58.7013 199.69 59.029C200.134 59.3567 200.76 59.262 201.088 58.8174L199.478 57.6307ZM204.456 53.7304C204.736 53.2544 204.577 52.6414 204.101 52.3613C203.625 52.0812 203.012 52.24 202.732 52.7159L204.456 53.7304ZM206.162 45.6774C205.962 46.1922 206.218 46.7716 206.733 46.9715C207.247 47.1714 207.827 46.9161 208.027 46.4013L206.162 45.6774ZM209.855 40.5492C209.982 40.0118 209.65 39.4728 209.113 39.3451C208.575 39.2175 208.036 39.5496 207.909 40.0869L209.855 40.5492ZM208.97 32.3657C208.948 32.9176 209.378 33.3824 209.93 33.4039C210.482 33.4254 210.947 32.9954 210.968 32.4436L208.97 32.3657ZM210.747 26.0491C210.689 25.4999 210.196 25.1021 209.647 25.1606C209.098 25.2191 208.7 25.7117 208.759 26.2609L210.747 26.0491ZM206.804 18.1844C207.018 18.6935 207.604 18.9326 208.113 18.7185C208.622 18.5044 208.862 17.9181 208.647 17.409L206.804 18.1844ZM205.076 11.6603C204.711 11.2464 204.079 11.2072 203.665 11.5728C203.251 11.9384 203.212 12.5704 203.577 12.9843L205.076 11.6603ZM196.985 8.11736C197.48 8.36159 198.08 8.15803 198.324 7.66268C198.568 7.16734 198.365 6.56779 197.869 6.32355L196.985 8.11736ZM191.724 3.88558C191.199 3.71199 190.634 3.9963 190.46 4.52059C190.286 5.04489 190.571 5.61063 191.095 5.78422L191.724 3.88558ZM182.85 3.13415C183.37 3.31947 183.942 3.04794 184.127 2.52768C184.312 2.00741 184.041 1.43542 183.521 1.25011L182.85 3.13415ZM11.6312 119.086C13.6914 118.523 15.7478 117.943 17.8012 117.355L17.251 115.432C15.2022 116.019 13.1537 116.596 11.1034 117.157L11.6312 119.086ZM25.9975 114.987C28.0459 114.395 30.0928 113.807 32.1406 113.231L31.5993 111.305C29.5444 111.883 27.4921 112.473 25.442 113.066L25.9975 114.987ZM40.3519 111.011C42.4123 110.482 44.4747 109.976 46.5407 109.504L46.095 107.554C44.0089 108.031 41.929 108.541 39.8542 109.074L40.3519 111.011ZM54.848 107.806C55.8909 107.621 56.9351 107.447 57.9808 107.285L57.6748 105.309C56.6137 105.473 55.5549 105.649 54.4981 105.837L54.848 107.806ZM57.9808 107.285C58.9999 107.127 60.0212 106.976 61.0444 106.831L60.7634 104.851C59.7323 104.997 58.7027 105.149 57.6748 105.309L57.9808 107.285ZM69.2443 105.787C71.2954 105.552 73.3528 105.333 75.4157 105.127L75.216 103.137C73.1457 103.344 71.0788 103.563 69.0168 103.8L69.2443 105.787ZM83.6617 104.349C85.7233 104.165 87.788 103.984 89.8563 103.803L89.6815 101.81C87.6141 101.992 85.5471 102.172 83.483 102.357L83.6617 104.349ZM98.1216 103.062C100.187 102.87 102.255 102.671 104.322 102.458L104.118 100.469C102.058 100.68 99.9977 100.879 97.9366 101.071L98.1216 103.062ZM112.584 101.53C114.648 101.275 116.71 101.001 118.77 100.702L118.483 98.7226C116.438 99.0193 114.39 99.2918 112.339 99.5451L112.584 101.53ZM126.991 99.3641C129.039 98.9915 131.084 98.5876 133.124 98.1473L132.702 96.1923C130.685 96.6277 128.661 97.0274 126.633 97.3964L126.991 99.3641ZM141.233 96.1874C143.243 95.646 145.248 95.0622 147.245 94.4309L146.642 92.5239C144.674 93.146 142.697 93.7219 140.713 94.2563L141.233 96.1874ZM155.128 91.6677C157.067 90.9175 158.998 90.1155 160.92 89.257L160.104 87.4309C158.214 88.2751 156.315 89.0642 154.407 89.8025L155.128 91.6677ZM168.428 85.5796C169.346 85.088 170.263 84.5818 171.176 84.0603L170.185 82.3233C169.287 82.8356 168.387 83.3331 167.484 83.8161L168.428 85.5796ZM171.176 84.0603C171.988 83.5973 172.86 83.0877 173.783 82.5319L172.751 80.8187C171.843 81.3657 170.984 81.8674 170.185 82.3233L171.176 84.0603ZM180.546 78.1518C182.13 77.0492 183.767 75.851 185.421 74.5588L184.19 72.9825C182.567 74.2502 180.96 75.4267 179.404 76.5105L180.546 78.1518ZM191.586 69.3281C193.049 67.9744 194.493 66.5472 195.893 65.0474L194.431 63.6826C193.067 65.1438 191.658 66.5367 190.228 67.8601L191.586 69.3281ZM201.088 58.8174C202.288 57.1887 203.419 55.4927 204.456 53.7304L202.732 52.7159C201.733 54.4145 200.641 56.0531 199.478 57.6307L201.088 58.8174ZM208.027 46.4013C208.76 44.5123 209.377 42.5612 209.855 40.5492L207.909 40.0869C207.453 42.0055 206.864 43.8692 206.162 45.6774L208.027 46.4013ZM210.968 32.4436C211.008 31.4308 211.011 30.4056 210.976 29.368L208.977 29.4357C209.01 30.4246 209.007 31.4013 208.97 32.3657L210.968 32.4436ZM210.976 29.368C210.936 28.2085 210.86 27.1032 210.747 26.0491L208.759 26.2609C208.865 27.2641 208.939 28.3212 208.977 29.4357L210.976 29.368ZM208.647 17.409C207.693 15.1407 206.482 13.2521 205.076 11.6603L203.577 12.9843C204.837 14.4105 205.933 16.113 206.804 18.1844L208.647 17.409ZM197.869 6.32355C195.886 5.34545 193.802 4.57383 191.724 3.88558L191.095 5.78422C193.135 6.45954 195.12 7.19771 196.985 8.11736L197.869 6.32355ZM183.521 1.25011C182.507 0.888907 181.525 0.506722 180.583 0.0867549L179.768 1.91325C180.769 2.35962 181.801 2.7607 182.85 3.13415L183.521 1.25011Z" fill="#BB8B9E"/>
</svg>
