<svg width="211" height="127" viewBox="0 0 211 127" fill="none" xmlns="http://www.w3.org/2000/svg">
<path d="M1.4801 0.860355C1.40298 0.595201 1.12551 0.442773 0.860355 0.519897C0.595201 0.597021 0.442773 0.874492 0.519897 1.13965L1.4801 0.860355ZM26.9359 39.5455L26.5849 39.9016L26.5849 39.9016L26.9359 39.5455ZM98.2821 90.4545L98.516 90.0127L98.516 90.0127L98.2821 90.4545ZM211 121L206.023 118.073L205.977 123.847L211 121ZM1.54855 4.36415C1.63924 4.62497 1.9242 4.7629 2.18503 4.67221C2.44585 4.58152 2.58377 4.29656 2.49309 4.03573L1.54855 4.36415ZM5.97677 12.2054C5.8516 11.9593 5.55059 11.8612 5.30444 11.9864C5.0583 12.1115 4.96023 12.4125 5.0854 12.6587L5.97677 12.2054ZM8.43508 18.5324C8.5828 18.7657 8.89169 18.8351 9.125 18.6873C9.3583 18.5396 9.42768 18.2307 9.27995 17.9974L8.43508 18.5324ZM14.4469 25.2425C14.2754 25.0261 13.9609 24.9897 13.7445 25.1612C13.5281 25.3327 13.4917 25.6472 13.6632 25.8636L14.4469 25.2425ZM18.0183 31.0153C18.2026 31.221 18.5187 31.2383 18.7244 31.0541C18.93 30.8698 18.9474 30.5537 18.7631 30.348L18.0183 31.0153ZM24.9102 36.8246C24.7155 36.6287 24.3989 36.6278 24.2031 36.8224C24.0072 37.0171 24.0062 37.3337 24.2009 37.5295L24.9102 36.8246ZM28.8409 42.0976C29.04 42.289 29.3565 42.2828 29.5479 42.0837C29.7393 41.8847 29.7331 41.5681 29.534 41.3768L28.8409 42.0976ZM35.6556 47.0711C35.4504 46.8863 35.1342 46.9029 34.9495 47.1082C34.7647 47.3134 34.7814 47.6296 34.9866 47.8143L35.6556 47.0711ZM39.7172 51.9692C39.9269 52.1489 40.2425 52.1246 40.4222 51.9149C40.6019 51.7052 40.5776 51.3896 40.368 51.2099L39.7172 51.9692ZM46.8024 56.5495C46.5871 56.3765 46.2724 56.4108 46.0994 56.6261C45.9265 56.8413 45.9607 57.156 46.176 57.329L46.8024 56.5495ZM51.1283 61.2149C51.3475 61.3829 51.6614 61.3413 51.8293 61.1221C51.9973 60.9029 51.9557 60.5891 51.7366 60.4211L51.1283 61.2149ZM58.4498 65.4073C58.2257 65.2459 57.9133 65.2968 57.7519 65.5209C57.5905 65.745 57.6414 66.0575 57.8655 66.2188L58.4498 65.4073ZM63.0121 69.841C63.2396 69.9976 63.5509 69.94 63.7074 69.7125C63.8639 69.485 63.8064 69.1737 63.5789 69.0172L63.0121 69.841ZM70.5337 73.6627C70.3021 73.5124 69.9924 73.5784 69.8422 73.8101C69.6919 74.0418 69.7579 74.3514 69.9896 74.5017L70.5337 73.6627ZM75.3024 77.8747C75.5369 78.0204 75.8452 77.9485 75.991 77.7139C76.1367 77.4794 76.0648 77.1711 75.8303 77.0253L75.3024 77.8747ZM82.9888 81.3539C82.7508 81.2138 82.4443 81.2932 82.3043 81.5312C82.1642 81.7692 82.2436 82.0757 82.4816 82.2157L82.9888 81.3539ZM87.931 85.3603C88.1713 85.4963 88.4764 85.4118 88.6124 85.1714C88.7484 84.9311 88.6638 84.626 88.4235 84.49L87.931 85.3603ZM95.7483 88.5342C95.5052 88.4032 95.2019 88.4941 95.0709 88.7372C94.94 88.9803 95.0308 89.2835 95.2739 89.4145L95.7483 88.5342ZM100.852 92.3642C101.098 92.4911 101.399 92.3951 101.526 92.1498C101.653 91.9045 101.557 91.6028 101.312 91.476L100.852 92.3642ZM108.834 95.2412C108.585 95.1209 108.286 95.2249 108.166 95.4735C108.045 95.7221 108.149 96.0211 108.398 96.1414L108.834 95.2412ZM114.125 98.8396C114.376 98.9547 114.672 98.8445 114.788 98.5934C114.903 98.3424 114.792 98.0456 114.541 97.9306L114.125 98.8396ZM122.236 101.325C121.982 101.217 121.688 101.336 121.58 101.59C121.473 101.844 121.591 102.138 121.846 102.246L122.236 101.325ZM127.702 104.651C127.959 104.753 128.25 104.627 128.352 104.371C128.454 104.114 128.328 103.823 128.072 103.721L127.702 104.651ZM135.934 106.705C135.674 106.611 135.387 106.745 135.293 107.005C135.2 107.265 135.334 107.551 135.594 107.645L135.934 106.705ZM141.574 109.725C141.836 109.813 142.119 109.671 142.207 109.409C142.294 109.148 142.153 108.864 141.891 108.777L141.574 109.725ZM149.909 111.306C149.644 111.228 149.366 111.379 149.288 111.643C149.209 111.908 149.36 112.186 149.625 112.265L149.909 111.306ZM155.719 113.988C155.985 114.059 156.259 113.901 156.331 113.634C156.403 113.368 156.244 113.093 155.978 113.022L155.719 113.988ZM164.135 115.054C163.866 114.993 163.597 115.161 163.535 115.43C163.474 115.699 163.642 115.967 163.911 116.029L164.135 115.054ZM170.102 117.362C170.373 117.416 170.637 117.24 170.691 116.97C170.745 116.699 170.57 116.435 170.299 116.381L170.102 117.362ZM178.571 117.875C178.298 117.831 178.041 118.017 177.998 118.289C177.954 118.562 178.139 118.819 178.412 118.862L178.571 117.875ZM184.68 119.774C184.954 119.81 185.205 119.617 185.24 119.343C185.276 119.069 185.083 118.818 184.809 118.783L184.68 119.774ZM193.164 119.7C192.889 119.676 192.646 119.879 192.621 120.154C192.597 120.429 192.8 120.672 193.075 120.696L193.164 119.7ZM199.392 121.162C199.668 121.178 199.904 120.968 199.92 120.692C199.936 120.416 199.726 120.18 199.45 120.164L199.392 121.162ZM207.848 120.475C207.572 120.47 207.345 120.691 207.34 120.967C207.336 121.243 207.556 121.47 207.832 121.475L207.848 120.475ZM0.519897 1.13965C0.838922 2.23646 1.18235 3.31092 1.54855 4.36415L2.49309 4.03573C2.13248 2.99861 1.79429 1.94053 1.4801 0.860355L0.519897 1.13965ZM5.0854 12.6587C6.12238 14.6979 7.24444 16.652 8.43508 18.5324L9.27995 17.9974C8.10495 16.1417 6.99861 14.2148 5.97677 12.2054L5.0854 12.6587ZM13.6632 25.8636C15.0709 27.6399 16.5289 29.3528 18.0183 31.0153L18.7631 30.348C17.285 28.6982 15.8403 27.0007 14.4469 25.2425L13.6632 25.8636ZM24.2009 37.5295C24.9947 38.3282 25.7903 39.1184 26.5849 39.9016L27.2869 39.1893C26.494 38.4079 25.701 37.6203 24.9102 36.8246L24.2009 37.5295ZM26.5849 39.9016C27.3343 40.6402 28.0863 41.3721 28.8409 42.0976L29.534 41.3768C28.7824 40.6541 28.0333 39.925 27.2869 39.1893L26.5849 39.9016ZM34.9866 47.8143C36.5534 49.2246 38.1304 50.6092 39.7172 51.9692L40.368 51.2099C38.7872 49.8551 37.2163 48.4758 35.6556 47.0711L34.9866 47.8143ZM46.176 57.329C47.8174 58.648 49.4683 59.943 51.1283 61.2149L51.7366 60.4211C50.0826 59.1538 48.4377 57.8636 46.8024 56.5495L46.176 57.329ZM57.8655 66.2188C59.5725 67.448 61.2882 68.655 63.0121 69.841L63.5789 69.0172C61.8607 67.8351 60.1509 66.6322 58.4498 65.4073L57.8655 66.2188ZM69.9896 74.5017C71.7529 75.6455 73.524 76.7694 75.3024 77.8747L75.8303 77.0253C74.0572 75.9234 72.2916 74.8029 70.5337 73.6627L69.9896 74.5017ZM82.4816 82.2157C84.2915 83.2809 86.1082 84.3286 87.931 85.3603L88.4235 84.49C86.6055 83.461 84.7937 82.4161 82.9888 81.3539L82.4816 82.2157ZM95.2739 89.4145C96.1973 89.9121 97.122 90.406 98.0481 90.8964L98.516 90.0127C97.5921 89.5234 96.6695 89.0306 95.7483 88.5342L95.2739 89.4145ZM98.0481 90.8964C98.9817 91.3908 99.9165 91.8801 100.852 92.3642L101.312 91.476C100.379 90.9934 99.4469 90.5056 98.516 90.0127L98.0481 90.8964ZM108.398 96.1414C110.302 97.0628 112.211 97.9624 114.125 98.8396L114.541 97.9306C112.634 97.0563 110.732 96.1597 108.834 95.2412L108.398 96.1414ZM121.846 102.246C123.794 103.071 125.746 103.873 127.702 104.651L128.072 103.721C126.122 102.947 124.177 102.148 122.236 101.325L121.846 102.246ZM135.594 107.645C137.583 108.364 139.576 109.058 141.574 109.725L141.891 108.777C139.901 108.112 137.915 107.421 135.934 106.705L135.594 107.645ZM149.625 112.265C151.652 112.867 153.683 113.441 155.719 113.988L155.978 113.022C153.951 112.478 151.928 111.906 149.909 111.306L149.625 112.265ZM163.911 116.029C165.971 116.503 168.035 116.947 170.102 117.362L170.299 116.381C168.241 115.968 166.186 115.526 164.135 115.054L163.911 116.029ZM178.412 118.862C180.498 119.197 182.587 119.502 184.68 119.774L184.809 118.783C182.726 118.511 180.647 118.209 178.571 117.875L178.412 118.862ZM193.075 120.696C195.177 120.884 197.283 121.04 199.392 121.162L199.45 120.164C197.351 120.042 195.256 119.887 193.164 119.7L193.075 120.696ZM1.96021 0.720709C1.80596 0.190402 1.25102 -0.114455 0.720709 0.0397934C0.190402 0.194042 -0.114455 0.748983 0.0397934 1.27929L1.96021 0.720709ZM26.9359 39.5455L26.2339 40.2577L26.2339 40.2577L26.9359 39.5455ZM98.2821 90.4545L98.75 89.5708L98.75 89.5708L98.2821 90.4545ZM211 121L201.046 115.147L200.954 126.694L211 121ZM1.07628 4.52835C1.25766 5.05 1.82758 5.32585 2.34923 5.14447C2.87088 4.9631 3.14673 4.39318 2.96535 3.87153L1.07628 4.52835ZM6.42245 11.9788C6.17211 11.4865 5.57009 11.2903 5.0778 11.5407C4.58551 11.791 4.38937 12.393 4.63971 12.8853L6.42245 11.9788ZM8.01264 18.7999C8.30809 19.2665 8.92586 19.4052 9.39248 19.1098C9.85909 18.8143 9.99784 18.1966 9.70239 17.7299L8.01264 18.7999ZM14.8388 24.9319C14.4957 24.4991 13.8668 24.4263 13.4339 24.7693C13.0011 25.1124 12.9283 25.7413 13.2713 26.1742L14.8388 24.9319ZM17.6459 31.3489C18.0144 31.7603 18.6467 31.795 19.058 31.4265C19.4694 31.0579 19.5041 30.4257 19.1355 30.0144L17.6459 31.3489ZM25.2648 36.4721C24.8755 36.0804 24.2423 36.0785 23.8506 36.4678C23.4589 36.8571 23.4569 37.4903 23.8463 37.882L25.2648 36.4721ZM28.4944 42.4581C28.8925 42.8408 29.5256 42.8284 29.9084 42.4303C30.2911 42.0321 30.2787 41.3991 29.8805 41.0163L28.4944 42.4581ZM35.9901 46.6994C35.5796 46.33 34.9473 46.3632 34.5778 46.7737C34.2084 47.1842 34.2416 47.8165 34.6521 48.186L35.9901 46.6994ZM39.3918 52.3488C39.8112 52.7082 40.4425 52.6596 40.8019 52.2403C41.1613 51.8209 41.1127 51.1897 40.6933 50.8302L39.3918 52.3488ZM47.1156 56.1598C46.6851 55.8138 46.0556 55.8824 45.7097 56.3129C45.3637 56.7434 45.4323 57.3728 45.8628 57.7188L47.1156 56.1598ZM50.8242 61.6118C51.2626 61.9477 51.8903 61.8646 52.2262 61.4263C52.5621 60.9879 52.479 60.3602 52.0407 60.0243L50.8242 61.6118ZM58.742 65.0015C58.2938 64.6788 57.6689 64.7805 57.3461 65.2287C57.0234 65.6769 57.1251 66.3019 57.5733 66.6246L58.742 65.0015ZM62.7286 70.253C63.1836 70.566 63.8063 70.4509 64.1193 69.9959C64.4324 69.5409 64.3173 68.9183 63.8623 68.6053L62.7286 70.253ZM70.8058 73.2432C70.3425 72.9427 69.7232 73.0747 69.4227 73.538C69.1221 74.0014 69.2541 74.6206 69.7175 74.9212L70.8058 73.2432ZM75.0384 78.2993C75.5075 78.5909 76.1241 78.4469 76.4156 77.9779C76.7072 77.5088 76.5633 76.8922 76.0942 76.6007L75.0384 78.2993ZM83.2424 80.923C82.7664 80.6429 82.1534 80.8016 81.8733 81.2776C81.5932 81.7536 81.752 82.3665 82.228 82.6466L83.2424 80.923ZM87.6847 85.7954C88.1653 86.0675 88.7755 85.8984 89.0475 85.4177C89.3196 84.9371 89.1504 84.3269 88.6698 84.0549L87.6847 85.7954ZM95.9855 88.0941C95.4993 87.8321 94.8928 88.0138 94.6308 88.5C94.3688 88.9862 94.5505 89.5927 95.0367 89.8547L95.9855 88.0941ZM100.623 92.8083C101.113 93.062 101.717 92.8701 101.97 92.3795C102.224 91.889 102.032 91.2856 101.542 91.0319L100.623 92.8083ZM109.051 94.7911C108.554 94.5506 107.956 94.7586 107.716 95.2557C107.475 95.7528 107.683 96.3509 108.18 96.5914L109.051 94.7911ZM113.916 99.2941C114.418 99.5243 115.012 99.3038 115.242 98.8018C115.472 98.2997 115.252 97.7062 114.75 97.476L113.916 99.2941ZM122.431 100.865C121.922 100.649 121.336 100.887 121.12 101.395C120.905 101.904 121.142 102.491 121.651 102.706L122.431 100.865ZM127.518 105.115C128.031 105.319 128.612 105.069 128.816 104.555C129.02 104.042 128.77 103.461 128.256 103.257L127.518 105.115ZM136.104 106.235C135.584 106.047 135.011 106.316 134.823 106.835C134.635 107.354 134.904 107.928 135.424 108.115L136.104 106.235ZM141.416 110.199C141.94 110.374 142.506 110.092 142.681 109.568C142.856 109.044 142.573 108.478 142.05 108.303L141.416 110.199ZM150.051 110.827C149.522 110.67 148.965 110.972 148.808 111.501C148.651 112.031 148.953 112.587 149.482 112.744L150.051 110.827ZM155.589 114.471C156.122 114.614 156.671 114.297 156.814 113.764C156.957 113.231 156.641 112.682 156.107 112.539L155.589 114.471ZM164.247 114.567C163.709 114.443 163.172 114.779 163.048 115.318C162.924 115.856 163.26 116.393 163.799 116.516L164.247 114.567ZM170.004 117.852C170.546 117.96 171.073 117.609 171.181 117.068C171.29 116.526 170.939 115.999 170.397 115.891L170.004 117.852ZM178.65 117.381C178.105 117.294 177.592 117.665 177.504 118.21C177.416 118.755 177.787 119.268 178.333 119.356L178.65 117.381ZM184.615 120.27C185.163 120.342 185.665 119.955 185.736 119.408C185.808 118.86 185.421 118.358 184.874 118.287L184.615 120.27ZM193.208 119.202C192.658 119.153 192.172 119.559 192.123 120.109C192.074 120.66 192.48 121.145 193.03 121.194L193.208 119.202ZM199.363 121.661C199.914 121.693 200.387 121.272 200.419 120.721C200.451 120.169 200.03 119.697 199.479 119.665L199.363 121.661ZM207.856 119.975C207.304 119.966 206.849 120.407 206.84 120.959C206.832 121.511 207.272 121.966 207.824 121.975L207.856 119.975ZM0.0397934 1.27929C0.361239 2.38443 0.707279 3.46707 1.07628 4.52835L2.96535 3.87153C2.60754 2.84245 2.27197 1.79256 1.96021 0.720709L0.0397934 1.27929ZM4.63971 12.8853C5.68427 14.9394 6.81419 16.9071 8.01264 18.7999L9.70239 17.7299C8.5352 15.8866 7.43672 13.9733 6.42245 11.9788L4.63971 12.8853ZM13.2713 26.1742C14.6862 27.9595 16.1509 29.6802 17.6459 31.3489L19.1355 30.0144C17.6631 28.3708 16.225 26.6811 14.8388 24.9319L13.2713 26.1742ZM23.8463 37.882C24.6416 38.6822 25.4384 39.4736 26.2339 40.2577L27.6379 38.8332C26.8459 38.0527 26.0541 37.2663 25.2648 36.4721L23.8463 37.882ZM26.2339 40.2577C26.9848 40.9977 27.7383 41.7312 28.4944 42.4581L29.8805 41.0163C29.1304 40.2951 28.3828 39.5675 27.6379 38.8332L26.2339 40.2577ZM34.6521 48.186C36.222 49.599 37.802 50.9862 39.3918 52.3488L40.6933 50.8302C39.1157 49.4781 37.5478 48.1015 35.9901 46.6994L34.6521 48.186ZM45.8628 57.7188C47.5073 59.0402 49.1612 60.3375 50.8242 61.6118L52.0407 60.0243C50.3897 58.7592 48.7479 57.4714 47.1156 56.1598L45.8628 57.7188ZM57.5733 66.6246C59.2833 67.8558 61.0019 69.0649 62.7286 70.253L63.8623 68.6053C62.147 67.4252 60.4401 66.2243 58.742 65.0015L57.5733 66.6246ZM69.7175 74.9212C71.4836 76.0667 73.2574 77.1924 75.0384 78.2993L76.0942 76.6007C74.3238 75.5004 72.5609 74.3816 70.8058 73.2432L69.7175 74.9212ZM82.228 82.6466C84.0405 83.7132 85.8595 84.7624 87.6847 85.7954L88.6698 84.0549C86.8541 83.0272 85.0448 81.9837 83.2424 80.923L82.228 82.6466ZM95.0367 89.8547C95.9612 90.3529 96.887 90.8473 97.8141 91.3383L98.75 89.5708C97.8271 89.0821 96.9056 88.5899 95.9855 88.0941L95.0367 89.8547ZM97.8141 91.3383C98.7491 91.8334 99.6854 92.3235 100.623 92.8083L101.542 91.0319C100.61 90.55 99.6794 90.063 98.75 89.5708L97.8141 91.3383ZM108.18 96.5914C110.088 97.5144 112 98.4155 113.916 99.2941L114.75 97.476C112.846 96.6033 110.946 95.7082 109.051 94.7911L108.18 96.5914ZM121.651 102.706C123.602 103.533 125.558 104.336 127.518 105.115L128.256 103.257C126.31 102.483 124.369 101.686 122.431 100.865L121.651 102.706ZM135.424 108.115C137.417 108.836 139.414 109.531 141.416 110.199L142.05 108.303C140.064 107.639 138.082 106.95 136.104 106.235L135.424 108.115ZM149.482 112.744C151.514 113.347 153.549 113.923 155.589 114.471L156.107 112.539C154.085 111.996 152.066 111.425 150.051 110.827L149.482 112.744ZM163.799 116.516C165.863 116.991 167.932 117.436 170.004 117.852L170.397 115.891C168.343 115.479 166.293 115.038 164.247 114.567L163.799 116.516ZM178.333 119.356C180.423 119.692 182.517 119.997 184.615 120.27L184.874 118.287C182.796 118.016 180.721 117.714 178.65 117.381L178.333 119.356ZM193.03 121.194C195.138 121.383 197.249 121.538 199.363 121.661L199.479 119.665C197.385 119.543 195.295 119.389 193.208 119.202L193.03 121.194Z" fill="#D9D9D9" fill-opacity="0.99"/>
</svg>
