<svg width="198" height="120" viewBox="0 0 198 120" fill="none" xmlns="http://www.w3.org/2000/svg">
<path d="M42.2099 1.44231C41.3496 0.749507 40.0906 0.885276 39.3978 1.74556C38.705 2.60585 38.8408 3.86488 39.701 4.55769L42.2099 1.44231ZM82.9452 69.7237L80.9487 69.6061L82.9452 69.7237ZM26.0298 100.076L26.2198 98.0855L26.2198 98.0855L26.0298 100.076ZM4.09082 90.9183L2.18906 90.2992L4.09082 90.9183ZM36.8195 83.0684L36.8422 85.0683L36.8195 83.0684ZM157.634 100.076L156.834 101.909L157.634 100.076ZM197.5 118L184.527 98.8938L174.467 119.681L197.5 118ZM39.701 4.55769C62.1113 22.6051 82.7043 39.8025 80.9487 69.6061L84.9418 69.8413C86.8354 37.6952 64.3399 19.2641 42.2099 1.44231L39.701 4.55769ZM80.9487 69.6061C80.1983 82.3443 72.4282 89.9292 61.7759 94.1623C51.0295 98.4328 37.5558 99.1671 26.2198 98.0855L25.8398 102.067C37.5265 103.182 51.7018 102.47 63.2531 97.8796C74.8984 93.2518 84.0746 84.562 84.9418 69.8413L80.9487 69.6061ZM26.2198 98.0855C24.9184 97.9613 19.1614 96.95 13.9443 95.3513C11.3252 94.5487 8.9998 93.6441 7.46634 92.7075C6.69036 92.2336 6.26713 91.8402 6.07851 91.5746C5.93343 91.3702 6.03203 91.4163 5.99259 91.5374L2.18906 90.2992C1.74369 91.6673 2.13234 92.926 2.81702 93.8903C3.45817 94.7933 4.40442 95.5245 5.38137 96.1212C7.35377 97.3259 10.0681 98.347 12.7723 99.1757C18.2018 100.84 24.2261 101.913 25.8398 102.067L26.2198 98.0855ZM5.99259 91.5374C6.39864 90.2901 7.7272 89.0608 10.3053 88.0044C12.8136 86.9765 16.0777 86.2917 19.5668 85.849C26.5376 84.9644 33.8744 85.1021 36.8422 85.0683L36.7967 81.0686C33.9869 81.1005 26.328 80.9589 19.0633 81.8808C15.4345 82.3412 11.7708 83.081 8.78863 84.3031C5.87628 85.4965 3.15164 87.3423 2.18906 90.2992L5.99259 91.5374ZM36.8422 85.0683C78.3189 84.5968 119.199 85.467 156.834 101.909L158.435 98.2437C119.925 81.4189 78.2425 80.5974 36.7967 81.0686L36.8422 85.0683ZM156.834 101.909C162.092 104.206 166.279 105.959 170.015 107.521C173.754 109.084 177.028 110.45 180.486 111.987L182.11 108.331C178.605 106.774 175.289 105.39 171.558 103.83C167.824 102.269 163.662 100.527 158.435 98.2437L156.834 101.909Z" fill="#D9D9D9"/>
<path d="M41.3343 2.66185C40.4959 2.57801 36.516 1.35122 36.516 2.88086C36.516 4.33454 36.8605 6.39904 38.7061 6.60411C40.3409 6.78575 42.2944 8.41816 43.7191 9.23229C45.2177 10.0886 47.3908 11.2324 48.6835 12.3958C51.2878 14.7397 54.775 16.3458 57.2007 18.7716C58.2225 19.7934 60.0539 20.7913 61.289 21.4971C63.097 22.5302 64.5201 24.5484 66.302 25.4394" stroke="#D9D9D9" stroke-width="3" stroke-linecap="round"/>
<path d="M38.7062 3.53784C38.7062 4.34818 38.7723 4.86938 39.3632 5.4603C39.652 5.74907 39.5822 4.95938 39.5822 4.85193C39.5822 2.85973 44.5309 7.27497 44.8386 7.48011" stroke="#D9D9D9" stroke-width="3" stroke-linecap="round"/>
<path d="M29.9171 82.7188C24.5536 82.7188 19.3325 83.325 14.0038 84.0081C10.2301 84.4919 6.02767 85.0573 3.57856 88.1187C3.09129 88.7278 3.0298 89.8558 2.64183 90.5542C2.26945 91.2245 2.34429 92.6549 2.34429 93.4305C2.34429 95.5323 3.89974 97.7649 5.45201 99.0068C7.40417 100.568 9.35692 100.588 11.7556 101.068C14.101 101.537 16.6668 101.677 19.0511 101.762C21.6992 101.856 24.3698 102.159 27.0518 102.159C29.0794 102.159 31.0903 101.981 33.113 101.96C35.1012 101.94 37.4023 102.127 39.3505 101.663C40.8891 101.296 42.5286 101.387 44.0892 101.123C46.0221 100.795 48.0519 100.281 50.0071 100.186C51.354 100.12 52.6743 99.8219 53.9744 99.4586C55.8658 98.9301 57.7048 98.5362 59.6058 98.0811C63.8629 97.0617 67.7343 95.0674 71.662 93.1219C73.0336 92.4425 74.0495 91.3759 75.2987 90.5432C76.9101 89.4689 78.193 87.6048 79.6187 86.1791C80.1891 85.6087 80.8428 84.6666 81.0954 83.9089" stroke="#D9D9D9" stroke-width="3" stroke-linecap="round"/>
<path d="M5.31982 96.0093C5.3819 96.5059 6.57844 97.436 6.96185 97.6954C8.47904 98.7217 10.3218 99.0223 12.0532 99.4807C14.1558 100.037 16.2255 100.572 18.4119 100.572" stroke="#D9D9D9" stroke-width="3" stroke-linecap="round"/>
<path d="M81.1055 84.0675C81.2746 82.5451 82.0095 81.1577 82.0095 79.5808C82.0095 77.4447 82.1602 75.3362 82.1602 73.219" stroke="#D9D9D9" stroke-width="3" stroke-linecap="round"/>
<path d="M81.5574 81.6566C81.5574 80.2862 81.93 78.9665 82.1684 77.6554C82.3195 76.8248 82.7628 76.1231 82.7628 75.2781C82.7628 74.4672 82.9134 73.6065 82.9134 72.7668" stroke="#D9D9D9" stroke-width="3" stroke-linecap="round"/>
<path d="M82.7629 74.4243C82.7629 75.913 82.3841 77.3284 82.3108 78.7938C82.2313 80.3854 80.8995 81.6868 80.6534 83.1634" stroke="#D9D9D9" stroke-width="3" stroke-linecap="round"/>
</svg>
