<svg width="211" height="127" viewBox="0 0 211 127" fill="none" xmlns="http://www.w3.org/2000/svg">
<path d="M1.96021 0.720709C1.80596 0.190402 1.25102 -0.114455 0.720709 0.0397934C0.190402 0.194042 -0.114455 0.748983 0.0397934 1.27929L1.96021 0.720709ZM26.9359 39.5455L27.6379 38.8332L26.9359 39.5455ZM98.282 90.4545L97.8141 91.3383L98.282 90.4545ZM211 121L201.046 115.147L200.954 126.694L211 121ZM1.07628 4.52835C1.25766 5.05 1.82758 5.32585 2.34923 5.14447C2.87088 4.9631 3.14673 4.39318 2.96535 3.87153L1.07628 4.52835ZM6.42245 11.9788C6.17211 11.4865 5.57009 11.2903 5.0778 11.5407C4.58551 11.791 4.38937 12.393 4.63971 12.8853L6.42245 11.9788ZM8.01264 18.7999C8.30809 19.2665 8.92586 19.4052 9.39248 19.1098C9.85909 18.8143 9.99784 18.1966 9.70239 17.7299L8.01264 18.7999ZM14.8388 24.9319C14.4957 24.4991 13.8668 24.4263 13.4339 24.7693C13.0011 25.1124 12.9283 25.7413 13.2713 26.1742L14.8388 24.9319ZM17.6459 31.3489C18.0144 31.7603 18.6467 31.795 19.058 31.4265C19.4694 31.0579 19.5041 30.4257 19.1355 30.0144L17.6459 31.3489ZM25.2648 36.4721C24.8755 36.0804 24.2423 36.0785 23.8506 36.4678C23.4589 36.8571 23.4569 37.4903 23.8463 37.882L25.2648 36.4721ZM28.4944 42.4581C28.8925 42.8408 29.5256 42.8284 29.9084 42.4303C30.2911 42.0321 30.2787 41.3991 29.8805 41.0163L28.4944 42.4581ZM35.9901 46.6994C35.5796 46.33 34.9473 46.3632 34.5778 46.7737C34.2084 47.1842 34.2416 47.8165 34.6521 48.186L35.9901 46.6994ZM39.3918 52.3488C39.8112 52.7082 40.4425 52.6596 40.8019 52.2403C41.1613 51.8209 41.1127 51.1897 40.6933 50.8302L39.3918 52.3488ZM47.1156 56.1598C46.6851 55.8138 46.0556 55.8824 45.7097 56.3129C45.3637 56.7434 45.4323 57.3728 45.8628 57.7188L47.1156 56.1598ZM50.8242 61.6118C51.2626 61.9477 51.8903 61.8646 52.2262 61.4263C52.5621 60.9879 52.479 60.3602 52.0407 60.0243L50.8242 61.6118ZM58.742 65.0015C58.2938 64.6788 57.6689 64.7805 57.3461 65.2287C57.0234 65.6769 57.1251 66.3019 57.5733 66.6246L58.742 65.0015ZM62.7286 70.253C63.1836 70.566 63.8063 70.4509 64.1193 69.9959C64.4324 69.5409 64.3173 68.9183 63.8623 68.6053L62.7286 70.253ZM70.8058 73.2432C70.3425 72.9427 69.7232 73.0747 69.4227 73.538C69.1221 74.0014 69.2541 74.6206 69.7175 74.9212L70.8058 73.2432ZM75.0384 78.2993C75.5075 78.5909 76.1241 78.4469 76.4156 77.9779C76.7072 77.5088 76.5633 76.8922 76.0942 76.6007L75.0384 78.2993ZM83.2424 80.923C82.7664 80.6429 82.1534 80.8016 81.8733 81.2776C81.5932 81.7536 81.752 82.3665 82.228 82.6466L83.2424 80.923ZM87.6847 85.7954C88.1653 86.0675 88.7755 85.8984 89.0475 85.4177C89.3196 84.9371 89.1504 84.3269 88.6698 84.0549L87.6847 85.7954ZM95.9855 88.0941C95.4993 87.8321 94.8928 88.0138 94.6308 88.5C94.3688 88.9862 94.5505 89.5927 95.0367 89.8547L95.9855 88.0941ZM100.623 92.8083C101.113 93.062 101.717 92.8701 101.97 92.3795C102.224 91.889 102.032 91.2856 101.542 91.0319L100.623 92.8083ZM109.051 94.7911C108.554 94.5506 107.956 94.7586 107.716 95.2557C107.475 95.7528 107.683 96.3509 108.18 96.5914L109.051 94.7911ZM113.916 99.2941C114.418 99.5243 115.012 99.3038 115.242 98.8018C115.472 98.2997 115.252 97.7062 114.75 97.476L113.916 99.2941ZM122.431 100.865C121.922 100.649 121.336 100.887 121.12 101.395C120.905 101.904 121.142 102.491 121.651 102.706L122.431 100.865ZM127.518 105.115C128.031 105.319 128.612 105.069 128.816 104.555C129.02 104.042 128.77 103.461 128.256 103.257L127.518 105.115ZM136.104 106.235C135.584 106.047 135.011 106.316 134.823 106.835C134.635 107.354 134.904 107.928 135.424 108.115L136.104 106.235ZM141.416 110.199C141.94 110.374 142.506 110.092 142.681 109.568C142.856 109.044 142.573 108.478 142.05 108.303L141.416 110.199ZM150.051 110.827C149.522 110.67 148.965 110.972 148.808 111.501C148.651 112.031 148.953 112.587 149.482 112.744L150.051 110.827ZM155.589 114.471C156.122 114.614 156.671 114.297 156.814 113.764C156.957 113.231 156.641 112.682 156.107 112.539L155.589 114.471ZM164.247 114.567C163.709 114.443 163.172 114.779 163.048 115.318C162.924 115.856 163.26 116.393 163.799 116.516L164.247 114.567ZM170.004 117.852C170.546 117.96 171.073 117.609 171.181 117.068C171.29 116.526 170.939 115.999 170.397 115.891L170.004 117.852ZM178.65 117.381C178.105 117.294 177.592 117.665 177.504 118.21C177.416 118.755 177.787 119.268 178.333 119.356L178.65 117.381ZM184.615 120.27C185.163 120.342 185.665 119.955 185.736 119.408C185.808 118.86 185.421 118.358 184.874 118.287L184.615 120.27ZM193.208 119.202C192.658 119.153 192.172 119.559 192.123 120.109C192.074 120.66 192.48 121.145 193.03 121.194L193.208 119.202ZM199.363 121.661C199.914 121.693 200.387 121.272 200.419 120.721C200.451 120.169 200.03 119.697 199.479 119.665L199.363 121.661ZM207.856 119.975C207.304 119.966 206.849 120.407 206.84 120.959C206.832 121.511 207.272 121.966 207.824 121.975L207.856 119.975ZM0.0397934 1.27929C0.361239 2.38443 0.707279 3.46707 1.07628 4.52835L2.96535 3.87153C2.60754 2.84245 2.27197 1.79256 1.96021 0.720709L0.0397934 1.27929ZM4.63971 12.8853C5.68427 14.9394 6.81419 16.9071 8.01264 18.7999L9.70239 17.7299C8.5352 15.8866 7.43672 13.9733 6.42245 11.9788L4.63971 12.8853ZM13.2713 26.1742C14.6862 27.9595 16.1509 29.6802 17.6459 31.3489L19.1355 30.0144C17.6631 28.3708 16.225 26.6811 14.8388 24.9319L13.2713 26.1742ZM23.8463 37.882C24.6416 38.6822 25.4384 39.4736 26.2339 40.2577L27.6379 38.8332C26.8459 38.0527 26.0541 37.2663 25.2648 36.4721L23.8463 37.882ZM26.2339 40.2577C26.9848 40.9977 27.7383 41.7312 28.4944 42.4581L29.8805 41.0163C29.1304 40.2951 28.3828 39.5675 27.6379 38.8332L26.2339 40.2577ZM34.6521 48.186C36.222 49.599 37.802 50.9862 39.3918 52.3488L40.6933 50.8302C39.1157 49.4781 37.5478 48.1015 35.9901 46.6994L34.6521 48.186ZM45.8628 57.7188C47.5073 59.0402 49.1612 60.3375 50.8242 61.6118L52.0407 60.0243C50.3897 58.7592 48.7479 57.4714 47.1156 56.1598L45.8628 57.7188ZM57.5733 66.6246C59.2833 67.8558 61.0019 69.0649 62.7286 70.253L63.8623 68.6053C62.147 67.4252 60.4401 66.2243 58.742 65.0015L57.5733 66.6246ZM69.7175 74.9212C71.4836 76.0667 73.2574 77.1924 75.0384 78.2993L76.0942 76.6007C74.3238 75.5004 72.5609 74.3816 70.8058 73.2432L69.7175 74.9212ZM82.228 82.6466C84.0405 83.7133 85.8595 84.7625 87.6847 85.7954L88.6698 84.0549C86.8541 83.0272 85.0448 81.9837 83.2424 80.923L82.228 82.6466ZM95.0367 89.8547C95.9612 90.3529 96.887 90.8473 97.8141 91.3383L98.75 89.5708C97.8271 89.0821 96.9056 88.5899 95.9855 88.0941L95.0367 89.8547ZM97.8141 91.3383C98.7491 91.8334 99.6854 92.3235 100.623 92.8083L101.542 91.0319C100.61 90.55 99.6794 90.063 98.75 89.5708L97.8141 91.3383ZM108.18 96.5914C110.088 97.5144 112 98.4155 113.916 99.2941L114.75 97.476C112.846 96.6033 110.946 95.7082 109.051 94.7911L108.18 96.5914ZM121.651 102.706C123.602 103.533 125.558 104.336 127.518 105.115L128.256 103.257C126.31 102.483 124.369 101.686 122.431 100.865L121.651 102.706ZM135.424 108.115C137.417 108.836 139.414 109.531 141.416 110.199L142.05 108.303C140.064 107.639 138.082 106.95 136.104 106.235L135.424 108.115ZM149.482 112.744C151.514 113.347 153.549 113.923 155.589 114.471L156.107 112.539C154.085 111.996 152.066 111.425 150.051 110.827L149.482 112.744ZM163.799 116.516C165.863 116.991 167.932 117.436 170.004 117.852L170.397 115.891C168.343 115.479 166.293 115.038 164.247 114.567L163.799 116.516ZM178.333 119.356C180.423 119.692 182.517 119.997 184.615 120.27L184.874 118.287C182.796 118.016 180.721 117.714 178.65 117.381L178.333 119.356ZM193.03 121.194C195.138 121.383 197.249 121.538 199.363 121.661L199.479 119.665C197.385 119.543 195.295 119.389 193.208 119.202L193.03 121.194Z" fill="#BB8B9E"/>
</svg>
