<svg width="211" height="122" viewBox="0 0 211 122" fill="none" xmlns="http://www.w3.org/2000/svg">
<mask id="path-1-outside-1_162_21425" maskUnits="userSpaceOnUse" x="-1" y="0" width="212" height="122" fill="black">
<rect fill="white" x="-1" width="212" height="122"/>
<path d="M23.0298 98.0764C41.4628 99.8352 65.827 96.9227 75.6388 81.5985C61.7973 80.9003 47.8186 80.9093 33.8195 81.0684C28.0419 81.1341 3.82809 80.5099 1.09082 88.9183C-0.532901 93.9061 20.1148 97.7983 23.0298 98.0764Z"/>
</mask>
<path d="M38.2691 0.610578C38.054 0.437377 37.7393 0.471319 37.5661 0.686391C37.3929 0.901462 37.4268 1.21622 37.6419 1.38942L38.2691 0.610578ZM79.9452 67.7237L79.4461 67.6943L79.4461 67.6943L79.9452 67.7237ZM23.0298 98.0764L23.0773 97.5787L23.0773 97.5787L23.0298 98.0764ZM1.09082 88.9183L1.56627 89.0731L1.56627 89.0731L1.09082 88.9183ZM33.8195 81.0684L33.8138 80.5685L33.8138 80.5685L33.8195 81.0684ZM154.634 98.0764L154.434 98.5346L154.434 98.5346L154.634 98.0764ZM211 121L207.826 116.177L205.236 121.337L211 121ZM39.9338 3.23812C40.1486 3.41173 40.4634 3.37838 40.637 3.16363C40.8106 2.94889 40.7773 2.63407 40.5625 2.46046L39.9338 3.23812ZM46.6447 7.44173C46.4326 7.26488 46.1173 7.29343 45.9404 7.5055C45.7636 7.71758 45.7921 8.03287 46.0042 8.20973L46.6447 7.44173ZM50.4824 12.0215C50.6906 12.2029 51.0064 12.1812 51.1878 11.973C51.3693 11.7648 51.3476 11.449 51.1394 11.2675L50.4824 12.0215ZM56.9695 16.5628C56.7696 16.3723 56.4531 16.3801 56.2627 16.5801C56.0722 16.78 56.08 17.0965 56.2799 17.287L56.9695 16.5628ZM60.4394 21.4255C60.6304 21.6249 60.9469 21.6317 61.1463 21.4406C61.3457 21.2496 61.3525 20.9331 61.1614 20.7337L60.4394 21.4255ZM66.3997 26.6363C66.2253 26.4222 65.9103 26.3901 65.6963 26.5646C65.4822 26.7391 65.4501 27.054 65.6246 27.2681L66.3997 26.6363ZM69.1524 31.9354C69.3102 32.162 69.6218 32.2178 69.8484 32.06C70.075 31.9021 70.1308 31.5905 69.973 31.3639L69.1524 31.9354ZM74.105 38.1085C73.9757 37.8645 73.673 37.7716 73.429 37.9009C73.185 38.0302 73.0921 38.3328 73.2214 38.5768L74.105 38.1085ZM75.6875 43.8656C75.7909 44.1216 76.0823 44.2454 76.3384 44.1419C76.5944 44.0385 76.7182 43.7471 76.6148 43.4911L75.6875 43.8656ZM79.0356 51.0324C78.9709 50.7639 78.7008 50.5987 78.4323 50.6634C78.1639 50.7282 77.9987 50.9982 78.0634 51.2667L79.0356 51.0324ZM79.1136 57.0045C79.1483 57.2785 79.3985 57.4724 79.6725 57.4377C79.9464 57.403 80.1403 57.1527 80.1056 56.8788L79.1136 57.0045ZM80.5494 64.785C80.5526 64.5089 80.3313 64.2825 80.0552 64.2793C79.7791 64.2761 79.5527 64.4974 79.5495 64.7735L80.5494 64.785ZM79.1215 70.7774C79.0794 71.0504 79.2666 71.3057 79.5395 71.3477C79.8125 71.3897 80.0678 71.2026 80.1098 70.9296L79.1215 70.7774ZM77.6231 79.0692C77.7431 78.8205 77.6386 78.5216 77.3899 78.4017C77.1412 78.2817 76.8423 78.3862 76.7224 78.6349L77.6231 79.0692ZM73.4355 83.7834C73.2606 83.997 73.292 84.3121 73.5057 84.487C73.7194 84.6619 74.0344 84.6304 74.2093 84.4167L73.4355 83.7834ZM68.0495 90.0634C68.2759 89.9053 68.3313 89.5936 68.1733 89.3672C68.0152 89.1408 67.7035 89.0854 67.4771 89.2434L68.0495 90.0634ZM62.2018 92.3007C61.9529 92.4202 61.8479 92.7188 61.9674 92.9678C62.0869 93.2167 62.3856 93.3217 62.6345 93.2022L62.2018 92.3007ZM54.8517 96.1421C55.1169 96.0649 55.2692 95.7874 55.1921 95.5223C55.1149 95.2572 54.8374 95.1048 54.5722 95.182L54.8517 96.1421ZM48.604 96.6046C48.3327 96.6562 48.1547 96.9179 48.2062 97.1892C48.2578 97.4605 48.5196 97.6386 48.7909 97.587L48.604 96.6046ZM40.571 98.6992C40.8461 98.6759 41.0503 98.4339 41.0269 98.1588C41.0036 97.8836 40.7616 97.6795 40.4865 97.7028L40.571 98.6992ZM34.3435 98.0149C34.0674 98.0199 33.8476 98.2477 33.8526 98.5238C33.8576 98.7999 34.0855 99.0197 34.3616 99.0147L34.3435 98.0149ZM26.0776 98.8212C26.3531 98.8389 26.5909 98.6299 26.6086 98.3543C26.6264 98.0787 26.4173 97.841 26.1418 97.8232L26.0776 98.8212ZM20.4738 97.175C20.2021 97.1256 19.9419 97.3059 19.8925 97.5775C19.8431 97.8492 20.0233 98.1095 20.295 98.1589L20.4738 97.175ZM13.2703 96.6052C13.5375 96.6749 13.8106 96.5148 13.8803 96.2476C13.9501 95.9804 13.7899 95.7073 13.5227 95.6376L13.2703 96.6052ZM8.42426 94.1042C8.1637 94.0127 7.87834 94.1498 7.78688 94.4104C7.69542 94.6709 7.8325 94.9563 8.09305 95.0477L8.42426 94.1042ZM1.59524 91.662C1.79307 91.8546 2.10963 91.8504 2.30228 91.6526C2.49494 91.4547 2.49074 91.1382 2.2929 90.9455L1.59524 91.662ZM2.74811 87.137C2.93714 86.9357 2.92719 86.6192 2.72589 86.4302C2.52459 86.2412 2.20816 86.2511 2.01913 86.4524L2.74811 87.137ZM7.99592 83.092C7.73341 83.1777 7.59008 83.46 7.67578 83.7225C7.76148 83.985 8.04376 84.1283 8.30627 84.0426L7.99592 83.092ZM13.1046 82.8631C13.3762 82.8133 13.556 82.5528 13.5063 82.2811C13.4565 82.0095 13.1959 81.8297 12.9243 81.8795L13.1046 82.8631ZM19.5972 81.0168C19.3221 81.0403 19.1181 81.2825 19.1416 81.5576C19.1652 81.8327 19.4073 82.0367 19.6824 82.0132L19.5972 81.0168ZM24.6622 81.7065C24.9381 81.6954 25.1528 81.4627 25.1416 81.1867C25.1305 80.9108 24.8978 80.6962 24.6219 80.7073L24.6622 81.7065ZM31.3236 80.5779C31.0474 80.5788 30.8243 80.8034 30.8252 81.0796C30.8261 81.3557 31.0507 81.5788 31.3269 81.5779L31.3236 80.5779ZM36.8119 81.5369C37.0881 81.5343 37.3098 81.3083 37.3071 81.0321C37.3044 80.756 37.0784 80.5343 36.8023 80.537L36.8119 81.5369ZM44.7729 80.4844C44.4968 80.4853 44.2736 80.7098 44.2745 80.986C44.2753 81.2621 44.4999 81.4853 44.776 81.4844L44.7729 80.4844ZM50.7482 81.4857C51.0243 81.4868 51.249 81.2638 51.2501 80.9876C51.2511 80.7115 51.0281 80.4868 50.752 80.4858L50.7482 81.4857ZM58.725 80.5606C58.4488 80.5563 58.2215 80.7767 58.2173 81.0528C58.213 81.3289 58.4334 81.5562 58.7095 81.5604L58.725 80.5606ZM64.6785 81.6841C64.9546 81.6913 65.1842 81.4734 65.1914 81.1974C65.1987 80.9213 64.9808 80.6917 64.7047 80.6844L64.6785 81.6841ZM72.6759 80.9593C72.4 80.9474 72.1667 81.1613 72.1548 81.4372C72.1428 81.7131 72.3568 81.9464 72.6327 81.9584L72.6759 80.9593ZM78.504 82.2543C78.7797 82.2702 79.0161 82.0597 79.032 81.784C79.048 81.5083 78.8374 81.2719 78.5617 81.256L78.504 82.2543ZM86.2828 81.7849C86.0076 81.763 85.7666 81.9684 85.7447 82.2436C85.7227 82.5189 85.9281 82.7598 86.2034 82.7818L86.2828 81.7849ZM91.9679 83.2935C92.2427 83.3204 92.4874 83.1195 92.5144 82.8447C92.5413 82.5699 92.3404 82.3252 92.0656 82.2982L91.9679 83.2935ZM99.7595 83.1566C99.4856 83.1222 99.2356 83.3164 99.2012 83.5904C99.1668 83.8644 99.361 84.1144 99.635 84.1488L99.7595 83.1566ZM105.367 84.9326C105.64 84.9731 105.894 84.7845 105.935 84.5114C105.975 84.2382 105.786 83.9839 105.513 83.9434L105.367 84.9326ZM113.155 85.2015C112.883 85.1522 112.623 85.3324 112.573 85.6041C112.524 85.8758 112.704 86.1361 112.976 86.1854L113.155 85.2015ZM118.652 87.2926C118.922 87.349 119.187 87.1757 119.244 86.9054C119.3 86.6351 119.127 86.3702 118.856 86.3137L118.652 87.2926ZM126.409 88.038C126.141 87.9714 125.87 88.1347 125.803 88.4027C125.736 88.6707 125.9 88.942 126.168 89.0085L126.409 88.038ZM131.757 90.4855C132.023 90.56 132.299 90.4049 132.373 90.1391C132.448 89.8732 132.293 89.5972 132.027 89.5226L131.757 90.4855ZM139.442 91.7705C139.18 91.6848 138.898 91.8281 138.812 92.0906C138.726 92.3531 138.87 92.6354 139.132 92.7211L139.442 91.7705ZM144.596 94.605C144.856 94.6993 145.143 94.5654 145.237 94.3059C145.331 94.0464 145.197 93.7595 144.938 93.6652L144.596 94.605ZM152.16 96.4778C151.905 96.3717 151.612 96.4923 151.506 96.7473C151.4 97.0022 151.521 97.2949 151.776 97.401L152.16 96.4778ZM157.438 99.8191C157.693 99.9258 157.986 99.8058 158.093 99.5511C158.199 99.2964 158.079 99.0034 157.825 98.8967L157.438 99.8191ZM165.882 102.132C165.625 102.032 165.335 102.16 165.235 102.417C165.136 102.675 165.263 102.964 165.521 103.064L165.882 102.132ZM171.621 105.39C171.88 105.487 172.168 105.356 172.265 105.098C172.363 104.839 172.232 104.551 171.974 104.454L171.621 105.39ZM180.119 107.499C179.86 107.402 179.572 107.533 179.475 107.792C179.379 108.051 179.51 108.339 179.769 108.435L180.119 107.499ZM185.871 110.733C186.129 110.831 186.418 110.702 186.516 110.444C186.614 110.186 186.484 109.897 186.226 109.798L185.871 110.733ZM194.337 112.964C194.081 112.86 193.789 112.985 193.686 113.241C193.583 113.497 193.707 113.788 193.963 113.891L194.337 112.964ZM199.978 116.388C200.231 116.497 200.525 116.38 200.635 116.127C200.744 115.873 200.626 115.579 200.373 115.47L199.978 116.388ZM208.306 119.088C208.057 118.968 207.758 119.071 207.637 119.319C207.516 119.567 207.619 119.866 207.868 119.987L208.306 119.088ZM37.6419 1.38942C38.4072 2.00574 39.1714 2.62176 39.9338 3.23812L40.5625 2.46046C39.7994 1.84352 39.0346 1.22705 38.2691 0.610578L37.6419 1.38942ZM46.0042 8.20973C47.5176 9.47175 49.0128 10.7408 50.4824 12.0215L51.1394 11.2675C49.6632 9.98118 48.1624 8.70738 46.6447 7.44173L46.0042 8.20973ZM56.2799 17.287C57.7075 18.6463 59.0967 20.0242 60.4394 21.4255L61.1614 20.7337C59.8069 19.32 58.4068 17.9314 56.9695 16.5628L56.2799 17.287ZM65.6246 27.2681C66.8652 28.7902 68.0441 30.3442 69.1524 31.9354L69.973 31.3639C68.8492 29.7503 67.6549 28.1763 66.3997 26.6363L65.6246 27.2681ZM73.2214 38.5768C74.1306 40.2925 74.9558 42.0535 75.6875 43.8656L76.6148 43.4911C75.8695 41.6456 75.0296 39.8533 74.105 38.1085L73.2214 38.5768ZM78.0634 51.2667C78.5112 53.1244 78.8639 55.0354 79.1136 57.0045L80.1056 56.8788C79.8513 54.873 79.4919 52.9258 79.0356 51.0324L78.0634 51.2667ZM79.5495 64.7735C79.5385 65.7337 79.5042 66.7072 79.4461 67.6943L80.4444 67.7531C80.5034 66.7504 80.5382 65.7612 80.5494 64.785L79.5495 64.7735ZM79.4461 67.6943C79.3835 68.7565 79.2745 69.7839 79.1215 70.7774L80.1098 70.9296C80.2677 69.9043 80.38 68.8457 80.4444 67.7531L79.4461 67.6943ZM76.7224 78.6349C76.2698 79.5736 75.767 80.4711 75.2177 81.3289L76.0599 81.8681C76.6306 80.9768 77.153 80.0443 77.6231 79.0692L76.7224 78.6349ZM75.2177 81.3289C74.669 82.1859 74.0737 83.0036 73.4355 83.7834L74.2093 84.4167C74.8716 83.6076 75.4898 82.7585 76.0599 81.8681L75.2177 81.3289ZM67.4771 89.2434C65.8368 90.3885 64.0695 91.4043 62.2018 92.3007L62.6345 93.2022C64.5458 92.2849 66.3606 91.2424 68.0495 90.0634L67.4771 89.2434ZM54.5722 95.182C52.6309 95.747 50.634 96.2185 48.604 96.6046L48.7909 97.587C50.8492 97.1955 52.8772 96.7168 54.8517 96.1421L54.5722 95.182ZM40.4865 97.7028C38.4338 97.8768 36.3788 97.9781 34.3435 98.0149L34.3616 99.0147C36.4178 98.9776 38.495 98.8752 40.571 98.6992L40.4865 97.7028ZM26.1418 97.8232C25.1047 97.7565 24.0821 97.6746 23.0773 97.5787L22.9823 98.5742C23.9974 98.671 25.0302 98.7538 26.0776 98.8212L26.1418 97.8232ZM23.0773 97.5787C22.6268 97.5357 21.7055 97.3989 20.4738 97.175L20.295 98.1589C21.5318 98.3837 22.4876 98.527 22.9823 98.5742L23.0773 97.5787ZM13.5227 95.6376C11.8024 95.1888 10.0475 94.674 8.42426 94.1042L8.09305 95.0477C9.74921 95.6291 11.5316 96.1516 13.2703 96.6052L13.5227 95.6376ZM2.2929 90.9455C1.57929 90.2506 1.38119 89.6416 1.56627 89.0731L0.615383 88.7635C0.26052 89.8536 0.753831 90.8426 1.59524 91.662L2.2929 90.9455ZM1.56627 89.0731C1.79544 88.3691 2.19487 87.7261 2.74811 87.137L2.01913 86.4524C1.38045 87.1326 0.896466 87.9001 0.615383 88.7635L1.56627 89.0731ZM8.30627 84.0426C9.77595 83.5628 11.4004 83.1754 13.1046 82.8631L12.9243 81.8795C11.1888 82.1975 9.51896 82.5948 7.99592 83.092L8.30627 84.0426ZM19.6824 82.0132C21.387 81.8674 23.07 81.7707 24.6622 81.7065L24.6219 80.7073C23.018 80.772 21.3197 80.8695 19.5972 81.0168L19.6824 82.0132ZM31.3269 81.5779C32.339 81.5746 33.1928 81.5756 33.8251 81.5684L33.8138 80.5685C33.1867 80.5756 32.3433 80.5746 31.3236 80.5779L31.3269 81.5779ZM33.8251 81.5684C34.8209 81.5571 35.8165 81.5465 36.8119 81.5369L36.8023 80.537C35.8062 80.5466 34.81 80.5572 33.8138 80.5685L33.8251 81.5684ZM44.776 81.4844C46.768 81.4783 48.7589 81.4782 50.7482 81.4857L50.752 80.4858C48.7601 80.4782 46.767 80.4783 44.7729 80.4844L44.776 81.4844ZM58.7095 81.5604C60.7012 81.5913 62.691 81.632 64.6785 81.6841L64.7047 80.6844C62.7134 80.6322 60.72 80.5915 58.725 80.5606L58.7095 81.5604ZM72.6327 81.9584C73.6271 82.0014 74.6207 82.0478 75.6136 82.0979L75.664 81.0992C74.6686 81.049 73.6726 81.0024 72.6759 80.9593L72.6327 81.9584ZM75.6136 82.0979C76.5778 82.1465 77.5413 82.1986 78.504 82.2543L78.5617 81.256C77.5965 81.2001 76.6306 81.1479 75.664 81.0992L75.6136 82.0979ZM86.2034 82.7818C88.1284 82.9352 90.05 83.1052 91.9679 83.2935L92.0656 82.2982C90.1413 82.1094 88.2137 81.9388 86.2828 81.7849L86.2034 82.7818ZM99.635 84.1488C101.55 84.3892 103.46 84.65 105.367 84.9326L105.513 83.9434C103.599 83.6596 101.681 83.3979 99.7595 83.1566L99.635 84.1488ZM112.976 86.1854C114.873 86.5299 116.765 86.8984 118.652 87.2926L118.856 86.3137C116.961 85.9177 115.06 85.5475 113.155 85.2015L112.976 86.1854ZM126.168 89.0085C128.037 89.4728 129.9 89.9646 131.757 90.4855L132.027 89.5226C130.16 88.999 128.287 88.5046 126.409 88.038L126.168 89.0085ZM139.132 92.7211C140.96 93.3178 142.781 93.9453 144.596 94.605L144.938 93.6652C143.112 93.0016 141.281 92.3706 139.442 91.7705L139.132 92.7211ZM151.776 97.401C152.664 97.7705 153.55 98.1483 154.434 98.5346L154.834 97.6183C153.945 97.2296 153.053 96.8495 152.16 96.4778L151.776 97.401ZM154.434 98.5346C155.421 98.9659 156.423 99.3938 157.438 99.8191L157.825 98.8967C156.814 98.4732 155.816 98.0473 154.834 97.6183L154.434 98.5346ZM165.521 103.064C167.529 103.842 169.566 104.616 171.621 105.39L171.974 104.454C169.92 103.681 167.886 102.908 165.882 102.132L165.521 103.064ZM179.769 108.435C181.805 109.196 183.842 109.961 185.871 110.733L186.226 109.798C184.195 109.025 182.155 108.26 180.119 107.499L179.769 108.435ZM193.963 113.891C195.998 114.71 198.007 115.541 199.978 116.388L200.373 115.47C198.393 114.619 196.377 113.785 194.337 112.964L193.963 113.891ZM38.5827 0.221157C38.1526 -0.125246 37.523 -0.057362 37.1766 0.372781C36.8302 0.802924 36.8981 1.43244 37.3283 1.77884L38.5827 0.221157ZM79.9452 67.7237L78.947 67.6649L78.947 67.6649L79.9452 67.7237ZM23.0298 98.0764L23.1248 97.081L23.1248 97.081L23.0298 98.0764ZM1.09082 88.9183L2.04171 89.2278L2.04171 89.2278L1.09082 88.9183ZM33.8195 81.0684L33.8081 80.0685L33.8081 80.0685L33.8195 81.0684ZM154.634 98.0764L154.234 98.9928L154.234 98.9928L154.634 98.0764ZM211 121L204.652 111.355L199.473 121.675L211 121ZM39.6195 3.62695C40.049 3.97416 40.6786 3.90747 41.0259 3.47798C41.3731 3.04849 41.3064 2.41885 40.8769 2.07163L39.6195 3.62695ZM46.9649 7.05773C46.5407 6.70402 45.9102 6.76112 45.5564 7.18528C45.2027 7.60943 45.2598 8.24001 45.684 8.59373L46.9649 7.05773ZM50.1539 12.3984C50.5703 12.7612 51.202 12.7179 51.5648 12.3015C51.9276 11.8851 51.8842 11.2534 51.4679 10.8906L50.1539 12.3984ZM57.3143 16.2007C56.9144 15.8198 56.2814 15.8353 55.9006 16.2353C55.5197 16.6352 55.5352 17.2682 55.9351 17.6491L57.3143 16.2007ZM60.0784 21.7714C60.4604 22.1702 61.0935 22.1837 61.4922 21.8016C61.891 21.4195 61.9046 20.7865 61.5225 20.3877L60.0784 21.7714ZM66.7873 26.3204C66.4384 25.8923 65.8085 25.8281 65.3804 26.177C64.9523 26.526 64.8881 27.1559 65.237 27.584L66.7873 26.3204ZM68.7421 32.2212C69.0577 32.6744 69.681 32.7859 70.1342 32.4703C70.5874 32.1546 70.6989 31.5314 70.3833 31.0782L68.7421 32.2212ZM74.5468 37.8744C74.2881 37.3864 73.6829 37.2005 73.1949 37.4591C72.7069 37.7177 72.521 38.3229 72.7796 38.8109L74.5468 37.8744ZM75.2239 44.0528C75.4307 44.5649 76.0135 44.8124 76.5256 44.6056C77.0377 44.3988 77.2852 43.816 77.0784 43.3039L75.2239 44.0528ZM79.5216 50.9152C79.3922 50.3783 78.8521 50.048 78.3152 50.1774C77.7783 50.3068 77.4479 50.8469 77.5773 51.3838L79.5216 50.9152ZM78.6175 57.0674C78.687 57.6153 79.1875 58.0032 79.7354 57.9337C80.2833 57.8643 80.6711 57.3638 80.6016 56.8159L78.6175 57.0674ZM81.0494 64.7908C81.0558 64.2385 80.6132 63.7857 80.061 63.7793C79.5087 63.773 79.0559 64.2155 79.0495 64.7678L81.0494 64.7908ZM78.6273 70.7013C78.5432 71.2472 78.9176 71.7578 79.4634 71.8419C80.0093 71.926 80.5199 71.5516 80.604 71.0057L78.6273 70.7013ZM78.0735 79.2864C78.3134 78.7889 78.1045 78.1912 77.6071 77.9513C77.1096 77.7114 76.5119 77.9203 76.272 78.4177L78.0735 79.2864ZM73.0486 83.4667C72.6988 83.894 72.7617 84.5241 73.189 84.8739C73.6164 85.2237 74.2465 85.1608 74.5963 84.7334L73.0486 83.4667ZM68.3357 90.4734C68.7886 90.1573 68.8994 89.5339 68.5833 89.081C68.2671 88.6282 67.6437 88.5173 67.1909 88.8335L68.3357 90.4734ZM61.9855 91.8499C61.4876 92.0889 61.2777 92.6862 61.5166 93.1841C61.7556 93.682 62.353 93.892 62.8509 93.653L61.9855 91.8499ZM54.9915 96.6222C55.5217 96.4678 55.8265 95.9128 55.6721 95.3826C55.5178 94.8523 54.9628 94.5475 54.4325 94.7019L54.9915 96.6222ZM48.5106 96.1134C47.968 96.2166 47.6119 96.7401 47.7151 97.2826C47.8182 97.8252 48.3417 98.1813 48.8843 98.0782L48.5106 96.1134ZM40.6132 99.1974C41.1635 99.1508 41.5718 98.6668 41.5251 98.1165C41.4785 97.5662 40.9945 97.1579 40.4442 97.2046L40.6132 99.1974ZM34.3345 97.515C33.7823 97.5249 33.3427 97.9806 33.3527 98.5328C33.3627 99.085 33.8184 99.5246 34.3706 99.5146L34.3345 97.515ZM26.0455 99.3201C26.5966 99.3556 27.0721 98.9375 27.1076 98.3864C27.143 97.8352 26.725 97.3597 26.1739 97.3243L26.0455 99.3201ZM20.5632 96.6831C20.0199 96.5843 19.4993 96.9447 19.4005 97.4881C19.3018 98.0315 19.6622 98.5521 20.2056 98.6508L20.5632 96.6831ZM13.1441 97.089C13.6785 97.2284 14.2248 96.9082 14.3642 96.3738C14.5036 95.8394 14.1834 95.2932 13.649 95.1537L13.1441 97.089ZM8.58986 93.6324C8.06875 93.4495 7.49802 93.7236 7.3151 94.2448C7.13218 94.7659 7.40634 95.3366 7.92745 95.5195L8.58986 93.6324ZM1.2464 92.0202C1.64208 92.4055 2.27518 92.3971 2.66049 92.0014C3.0458 91.6057 3.0374 90.9726 2.64173 90.5873L1.2464 92.0202ZM3.11259 87.4792C3.49065 87.0766 3.47076 86.4438 3.06816 86.0657C2.66556 85.6877 2.03271 85.7076 1.65464 86.1102L3.11259 87.4792ZM7.84074 82.6167C7.31573 82.7881 7.02907 83.3526 7.20047 83.8777C7.37187 84.4027 7.93643 84.6893 8.46144 84.5179L7.84074 82.6167ZM13.1947 83.3549C13.7379 83.2553 14.0976 82.7343 13.9981 82.191C13.8985 81.6478 13.3774 81.2881 12.8342 81.3877L13.1947 83.3549ZM19.5546 80.5186C19.0043 80.5657 18.5964 81.0499 18.6435 81.6002C18.6905 82.1505 19.1748 82.5584 19.725 82.5113L19.5546 80.5186ZM24.6823 82.2061C25.2342 82.1838 25.6635 81.7184 25.6412 81.1666C25.619 80.6148 25.1536 80.1854 24.6017 80.2077L24.6823 82.2061ZM31.3219 80.0779C30.7696 80.0798 30.3234 80.5289 30.3252 81.0812C30.327 81.6335 30.7762 82.0797 31.3285 82.0779L31.3219 80.0779ZM36.8168 82.0369C37.369 82.0316 37.8124 81.5796 37.8071 81.0273C37.8018 80.4751 37.3497 80.0317 36.7975 80.037L36.8168 82.0369ZM44.7714 79.9844C44.2191 79.9861 43.7728 80.4352 43.7745 80.9875C43.7762 81.5398 44.2253 81.9861 44.7775 81.9844L44.7714 79.9844ZM50.7463 81.9857C51.2986 81.9878 51.748 81.5418 51.7501 80.9895C51.7522 80.4372 51.3062 79.9878 50.7539 79.9858L50.7463 81.9857ZM58.7327 80.0606C58.1805 80.0521 57.7259 80.4928 57.7173 81.045C57.7088 81.5972 58.1495 82.0518 58.7017 82.0604L58.7327 80.0606ZM64.6654 82.1839C65.2175 82.1984 65.6768 81.7626 65.6913 81.2105C65.7058 80.6584 65.2699 80.1991 64.7178 80.1846L64.6654 82.1839ZM72.6975 80.4598C72.1458 80.4359 71.6791 80.8638 71.6552 81.4156C71.6314 81.9674 72.0593 82.434 72.6111 82.4579L72.6975 80.4598ZM78.4751 82.7535C79.0265 82.7853 79.4993 82.3642 79.5312 81.8129C79.5631 81.2615 79.142 80.7887 78.5906 80.7568L78.4751 82.7535ZM86.3225 81.2865C85.772 81.2426 85.2901 81.6534 85.2463 82.2039C85.2024 82.7544 85.6131 83.2363 86.1637 83.2802L86.3225 81.2865ZM91.9191 83.7911C92.4687 83.845 92.958 83.4432 93.012 82.8935C93.0659 82.3439 92.6641 81.8546 92.1144 81.8006L91.9191 83.7911ZM99.8218 82.6605C99.2739 82.5917 98.7739 82.9801 98.7051 83.5281C98.6363 84.0761 99.0247 84.5761 99.5727 84.6449L99.8218 82.6605ZM105.293 85.4272C105.84 85.5082 106.348 85.131 106.429 84.5847C106.51 84.0384 106.133 83.5298 105.587 83.4488L105.293 85.4272ZM113.244 84.7095C112.701 84.6109 112.18 84.9714 112.081 85.5148C111.983 86.0582 112.343 86.5787 112.887 86.6774L113.244 84.7095ZM118.55 87.782C119.09 87.8949 119.62 87.5482 119.733 87.0076C119.846 86.467 119.499 85.9372 118.959 85.8243L118.55 87.782ZM126.529 87.5528C125.993 87.4196 125.451 87.7462 125.318 88.2822C125.185 88.8182 125.511 89.3606 126.047 89.4938L126.529 87.5528ZM131.622 90.9669C132.154 91.116 132.706 90.8059 132.855 90.2741C133.004 89.7423 132.694 89.1903 132.162 89.0412L131.622 90.9669ZM139.598 91.2952C139.073 91.1237 138.508 91.4104 138.337 91.9354C138.165 92.4604 138.452 93.025 138.977 93.1964L139.598 91.2952ZM144.425 95.0749C144.944 95.2636 145.518 94.9958 145.707 94.4767C145.896 93.9577 145.628 93.3839 145.109 93.1953L144.425 95.0749ZM152.352 96.0161C151.842 95.8039 151.257 96.0453 151.045 96.5552C150.833 97.0651 151.074 97.6504 151.584 97.8626L152.352 96.0161ZM157.245 100.28C157.754 100.494 158.34 100.254 158.554 99.7443C158.767 99.2349 158.527 98.649 158.018 98.4356L157.245 100.28ZM166.063 101.666C165.548 101.466 164.969 101.722 164.769 102.237C164.57 102.751 164.825 103.331 165.34 103.53L166.063 101.666ZM171.445 105.858C171.962 106.052 172.539 105.791 172.733 105.274C172.928 104.757 172.667 104.18 172.15 103.986L171.445 105.858ZM180.294 107.03C179.777 106.837 179.2 107.1 179.007 107.617C178.814 108.134 179.076 108.71 179.594 108.904L180.294 107.03ZM185.693 111.2C186.209 111.397 186.787 111.138 186.983 110.622C187.18 110.105 186.92 109.528 186.404 109.331L185.693 111.2ZM194.523 112.5C194.011 112.293 193.429 112.542 193.222 113.054C193.016 113.566 193.264 114.149 193.777 114.355L194.523 112.5ZM199.78 116.848C200.288 117.066 200.876 116.831 201.094 116.324C201.312 115.817 201.077 115.228 200.57 115.01L199.78 116.848ZM208.525 118.639C208.028 118.397 207.43 118.603 207.188 119.1C206.946 119.596 207.152 120.195 207.649 120.437L208.525 118.639ZM37.3283 1.77884C38.0935 2.39508 38.8575 3.01088 39.6195 3.62695L40.8769 2.07163C40.1134 1.4544 39.3483 0.837702 38.5827 0.221157L37.3283 1.77884ZM45.684 8.59373C47.1952 9.85393 48.6875 11.1206 50.1539 12.3984L51.4679 10.8906C49.9884 9.60138 48.4848 8.32519 46.9649 7.05773L45.684 8.59373ZM55.9351 17.6491C57.3578 19.0038 58.7416 20.3763 60.0784 21.7714L61.5225 20.3877C60.1621 18.968 58.7564 17.5739 57.3143 16.2007L55.9351 17.6491ZM65.237 27.584C66.4704 29.0972 67.6416 30.6411 68.7421 32.2212L70.3833 31.0782C69.2517 29.4534 68.0498 27.8693 66.7873 26.3204L65.237 27.584ZM72.7796 38.8109C73.6811 40.5121 74.4989 42.2575 75.2239 44.0528L77.0784 43.3039C76.3263 41.4416 75.4791 39.6337 74.5468 37.8744L72.7796 38.8109ZM77.5773 51.3838C78.0208 53.2238 78.3702 55.1166 78.6175 57.0674L80.6016 56.8159C80.345 54.7918 79.9823 52.8265 79.5216 50.9152L77.5773 51.3838ZM79.0495 64.7678C79.0386 65.72 79.0047 66.6855 78.947 67.6649L80.9435 67.7825C81.003 66.7721 81.0381 65.7749 81.0494 64.7908L79.0495 64.7678ZM78.947 67.6649C78.8853 68.712 78.7778 69.7238 78.6273 70.7013L80.604 71.0057C80.7644 69.9644 80.8782 68.8902 80.9435 67.7825L78.947 67.6649ZM76.272 78.4177C75.8282 79.3382 75.3352 80.2182 74.7966 81.0593L76.481 82.1378C77.0624 81.2297 77.5946 80.2797 78.0735 79.2864L76.272 78.4177ZM74.7966 81.0593C74.2586 81.8996 73.6748 82.7016 73.0486 83.4667L74.5963 84.7334C75.2705 83.9096 75.9002 83.0449 76.481 82.1378L74.7966 81.0593ZM67.1909 88.8335C65.575 89.9615 63.8314 90.964 61.9855 91.8499L62.8509 93.653C64.784 92.7252 66.6224 91.6694 68.3357 90.4734L67.1909 88.8335ZM54.4325 94.7019C52.5078 95.2621 50.5264 95.73 48.5106 96.1134L48.8843 98.0782C50.9568 97.684 53.0004 97.2017 54.9915 96.6222L54.4325 94.7019ZM40.4442 97.2046C38.4032 97.3776 36.3594 97.4784 34.3345 97.515L34.3706 99.5146C36.4373 99.4773 38.5256 99.3745 40.6132 99.1974L40.4442 97.2046ZM26.1739 97.3243C25.142 97.2579 24.1245 97.1764 23.1248 97.081L22.9348 99.0719C23.955 99.1693 24.993 99.2524 26.0455 99.3201L26.1739 97.3243ZM23.1248 97.081C22.6964 97.0401 21.7923 96.9065 20.5632 96.6831L20.2056 98.6508C21.4449 98.8761 22.418 99.0226 22.9348 99.0719L23.1248 97.081ZM13.649 95.1537C11.9377 94.7074 10.1967 94.1964 8.58986 93.6324L7.92745 95.5195C9.60005 96.1066 11.3963 96.633 13.1441 97.089L13.649 95.1537ZM2.64173 90.5873C1.99202 89.9546 1.94153 89.5356 2.04171 89.2278L0.139942 88.6087C-0.299816 89.9596 0.341102 91.1386 1.2464 92.0202L2.64173 90.5873ZM2.04171 89.2278C2.24493 88.6036 2.60208 88.0229 3.11259 87.4792L1.65464 86.1102C0.973233 86.8358 0.446977 87.6656 0.139942 88.6087L2.04171 89.2278ZM8.46144 84.5179C9.90444 84.0468 11.5061 83.6643 13.1947 83.3549L12.8342 81.3877C11.0831 81.7086 9.39047 82.1107 7.84074 82.6167L8.46144 84.5179ZM19.725 82.5113C21.4206 82.3663 23.0959 82.2701 24.6823 82.2061L24.6017 80.2077C22.992 80.2727 21.286 80.3705 19.5546 80.5186L19.725 82.5113ZM31.3285 82.0779C32.3369 82.0746 33.1959 82.0756 33.8308 82.0684L33.8081 80.0685C33.1837 80.0756 32.3454 80.0745 31.3219 80.0779L31.3285 82.0779ZM33.8308 82.0684C34.8263 82.0571 35.8216 82.0465 36.8168 82.0369L36.7975 80.037C35.8011 80.0466 34.8046 80.0572 33.8081 80.0685L33.8308 82.0684ZM44.7775 81.9844C46.7686 81.9783 48.7582 81.9782 50.7463 81.9857L50.7539 79.9858C48.7607 79.9782 46.7664 79.9783 44.7714 79.9844L44.7775 81.9844ZM58.7017 82.0604C60.6919 82.0912 62.6798 82.1318 64.6654 82.1839L64.7178 80.1846C62.7246 80.1323 60.7294 80.0915 58.7327 80.0606L58.7017 82.0604ZM72.6111 82.4579C73.6043 82.5008 74.5967 82.5472 75.5884 82.5973L75.6892 80.5998C74.6926 80.5495 73.6953 80.5029 72.6975 80.4598L72.6111 82.4579ZM75.5884 82.5973C76.5514 82.6458 77.5136 82.6978 78.4751 82.7535L78.5906 80.7568C77.6241 80.7009 76.6569 80.6486 75.6892 80.5998L75.5884 82.5973ZM86.1637 83.2802C88.0858 83.4334 90.0044 83.6032 91.9191 83.7911L92.1144 81.8006C90.187 81.6115 88.2563 81.4406 86.3225 81.2865L86.1637 83.2802ZM99.5727 84.6449C101.484 84.8849 103.391 85.1451 105.293 85.4272L105.587 83.4488C103.669 83.1645 101.747 82.9022 99.8218 82.6605L99.5727 84.6449ZM112.887 86.6774C114.78 87.0211 116.667 87.3888 118.55 87.782L118.959 85.8243C117.059 85.4274 115.154 85.0563 113.244 84.7095L112.887 86.6774ZM126.047 89.4938C127.911 89.9569 129.77 90.4474 131.622 90.9669L132.162 89.0412C130.29 88.5162 128.412 88.0205 126.529 87.5528L126.047 89.4938ZM138.977 93.1964C140.8 93.7915 142.616 94.4172 144.425 95.0749L145.109 93.1953C143.278 92.5298 141.441 91.897 139.598 91.2952L138.977 93.1964ZM151.584 97.8626C152.469 98.231 153.352 98.6076 154.234 98.9928L155.035 97.1601C154.142 96.7702 153.248 96.3889 152.352 96.0161L151.584 97.8626ZM154.234 98.9928C155.223 99.4251 156.228 99.8541 157.245 100.28L158.018 98.4356C157.009 98.013 156.014 97.588 155.035 97.1601L154.234 98.9928ZM165.34 103.53C167.35 104.309 169.389 105.084 171.445 105.858L172.15 103.986C170.097 103.213 168.064 102.441 166.063 101.666L165.34 103.53ZM179.594 108.904C181.629 109.664 183.666 110.429 185.693 111.2L186.404 109.331C184.371 108.557 182.331 107.792 180.294 107.03L179.594 108.904ZM193.777 114.355C195.808 115.173 197.813 116.002 199.78 116.848L200.57 115.01C198.586 114.158 196.567 113.322 194.523 112.5L193.777 114.355Z" fill="#D9D9D9" fill-opacity="0.99" mask="url(#path-1-outside-1_162_21425)"/>
</svg>
