<svg width="92" height="64" viewBox="0 0 92 64" fill="none" xmlns="http://www.w3.org/2000/svg">
<path d="M22.5546 12.7327C22.1521 11.3952 22.045 3.33913 22.4197 2.58807C22.7944 1.83701 29.2989 1.37754 29.6984 2.4913C30.0979 3.60506 30.1675 11.0648 29.8332 12.636C29.499 14.2072 22.9571 14.0703 22.5546 12.7327Z" fill="#D9D9D9"/>
<path d="M21.7507 12.9959C21.2668 11.9693 21.1844 5.77238 21.6469 5.19233C22.1094 4.61227 30.0615 4.21962 30.5431 5.07405C31.0246 5.92847 31.0647 11.6669 30.6468 12.8776C30.2289 14.0884 22.2345 14.0225 21.7507 12.9959Z" fill="#D9D9D9"/>
<path d="M5.00436 58.6541C0.509664 52.2161 -0.00860921 13.2361 4.35173 9.5682C8.71208 5.90027 83.2913 3.10391 87.7714 8.45909C92.2515 13.8143 92.3924 49.9114 88.424 57.545C84.4557 65.1786 9.49905 65.0921 5.00436 58.6541Z" fill="#D9D9D9"/>
<path d="M1.11361 43.2576C0.371758 38.9356 0.284484 32.4391 0.578839 28.8252C0.873195 25.2113 90.9514 25.4577 90.985 27.9841C91.0186 30.5105 91.1386 39.5337 90.5017 43.1521C89.8648 46.7704 1.85545 47.5796 1.11361 43.2576Z" fill="#D9D9D9"/>
<path d="M1.14266 45.4229C0.400811 41.1009 0.313537 34.6044 0.607892 30.9905C0.902248 27.3766 90.9805 27.623 91.0141 30.1493C91.0476 32.6757 91.1676 41.699 90.5307 45.3173C89.8939 48.9357 1.88451 49.7449 1.14266 45.4229Z" fill="#D9D9D9"/>
<ellipse cx="47.258" cy="34.5938" rx="16.0954" ry="16.965" transform="rotate(-0.761735 47.258 34.5938)" fill="#D9D9D9"/>
<ellipse cx="46.5635" cy="33.881" rx="15.4105" ry="16.2431" transform="rotate(-0.761735 46.5635 33.881)" fill="#D9D9D9"/>
<ellipse cx="46.9103" cy="34.2379" rx="14.3831" ry="15.1602" transform="rotate(-0.761735 46.9103 34.2379)" fill="#D9D9D9"/>
<ellipse cx="46.91" cy="34.237" rx="10.9585" ry="11.5507" transform="rotate(-0.761735 46.91 34.237)" fill="#D9D9D9"/>
<path d="M21.2727 13.923C20.8981 12.7179 20.8015 5.45882 21.1512 4.7819C21.5008 4.10498 27.5645 3.68826 27.9365 4.69169C28.3084 5.69511 28.3702 12.4169 28.058 13.8328C27.7458 15.2487 21.6474 15.1281 21.2727 13.923Z" fill="#5A4F51"/>
<path d="M20.5224 14.1603C20.0718 13.2355 19.9976 7.65152 20.4289 7.12865C20.8603 6.60579 28.2735 6.24868 28.7221 7.01839C29.1706 7.7881 29.2057 12.9589 28.8156 14.05C28.4255 15.1412 20.9731 15.0851 20.5224 14.1603Z" fill="#5A4F51"/>
<path d="M5.51871 55.7998C1.29114 50.001 0.824134 14.8771 4.93065 11.5697C9.03716 8.26224 79.2429 5.70257 83.4573 10.5256C87.6716 15.3487 87.785 47.8751 84.0453 54.7558C80.3057 61.6364 9.74629 61.5986 5.51871 55.7998Z" fill="#2C2627"/>
<path d="M81.0853 14.5125C80.9864 17.3256 77.8367 16.8031 73.9336 16.6587C70.0306 16.5143 66.9116 16.9073 66.9512 13.9895C66.9907 11.0717 70.1999 11.6988 74.1029 11.8432C78.006 11.9876 81.1842 11.6993 81.0853 14.5125Z" fill="#D9D9D9"/>
<path d="M2.53401 41.3754C1.84425 37.4812 1.76558 31.6274 2.04147 28.3709C2.31736 25.1144 86.2875 25.2991 86.3178 27.5755C86.348 29.852 86.4561 37.9826 85.8609 41.2433C85.2658 44.504 3.22376 45.2696 2.53401 41.3754Z" fill="#81818F"/>
<path d="M2.55989 43.3268C1.87013 39.4326 1.79146 33.5788 2.06735 30.3223C2.34324 27.0658 86.3134 27.2505 86.3436 29.5269C86.3739 31.8034 86.482 39.934 85.8868 43.1947C85.2916 46.4554 3.24964 47.221 2.55989 43.3268Z" fill="#535359"/>
<ellipse cx="43.936" cy="33.6682" rx="15.0044" ry="15.2868" transform="rotate(-0.761735 43.936 33.6682)" fill="#2C2627"/>
<ellipse cx="43.2889" cy="33.0263" rx="14.3659" ry="14.6363" transform="rotate(-0.761735 43.2889 33.0263)" fill="#6B4C4C"/>
<ellipse cx="43.6123" cy="33.3478" rx="13.4082" ry="13.6605" transform="rotate(-0.761735 43.6123 33.3478)" fill="#D9D9D9"/>
<ellipse cx="43.6125" cy="33.3477" rx="10.2157" ry="10.408" transform="rotate(-0.761735 43.6125 33.3477)" fill="#2C2627"/>
</svg>
