<svg width="431" height="535" viewBox="0 0 431 535" fill="none" xmlns="http://www.w3.org/2000/svg">
<path d="M290.945 458.161L408.903 445.661L411.128 431.161L282.488 445.661L290.945 458.161Z" fill="#685B5E"/>
<path d="M305.756 533.661H409.256C409.256 533.661 376.256 363.661 376.256 346.661C376.256 329.661 408.756 185.661 408.756 185.661L295.756 128.161L240.256 258.161C240.256 258.161 272.06 322.659 284.756 366.661C289.228 382.161 305.756 533.661 305.756 533.661Z" fill="#D9D9D9"/>
<path d="M392.256 186.161C392.256 186.161 312.756 88.6609 308.756 86.1611C304.756 83.6614 272.756 82.1611 272.756 82.1611L245.256 86.1611" stroke="#685B5E" stroke-opacity="0.99" stroke-width="30" stroke-linecap="round"/>
<path d="M394.256 183.161C394.256 183.161 314.756 85.6609 310.756 83.1611C306.756 80.6614 274.756 79.1611 274.756 79.1611L245.756 83.1611" stroke="#D9D9D9" stroke-width="27" stroke-linecap="round"/>
<path d="M229.83 78.5977C229.83 78.5977 268.285 70.4365 259.763 66.3936C251.24 62.3507 231.442 71.8566 225.417 76.2981C219.392 80.7396 229.83 78.5977 229.83 78.5977Z" fill="#D9D9D9"/>
<path d="M232.574 76.6929C232.574 76.6929 265.234 69.8718 257.987 66.4552C250.741 63.0386 233.934 71.0177 228.822 74.7501C223.709 78.4825 232.574 76.6929 232.574 76.6929Z" fill="#D9D9D9"/>
<path d="M380.256 189.661C380.256 189.661 337.256 138.661 317.756 130.161C298.64 121.828 271.756 134.661 271.756 134.661L238.256 151.661" stroke="#685B5E" stroke-opacity="0.99" stroke-width="30" stroke-linecap="round"/>
<path d="M392.756 175.662C392.756 175.662 343.755 119.663 334.756 110.162C333.893 109.251 282.256 119.161 282.256 119.161L254.256 133.662" stroke="#685B5E" stroke-opacity="0.99" stroke-width="30" stroke-linecap="round"/>
<path d="M392.256 181.163L360.506 149.663C360.506 149.663 333.366 119.982 331.756 117.163C329.756 113.661 283.256 123.163 283.256 123.163L238.256 145.663" stroke="#D9D9D9" stroke-width="35" stroke-linecap="round"/>
<path d="M390.256 186.161L359.256 153.161L339.756 132.161C339.756 132.161 333.244 125.926 328.256 123.161C312.885 114.642 283.256 123.161 283.256 123.161L238.256 145.661" stroke="#D9D9D9" stroke-width="35" stroke-linecap="round"/>
<path d="M219.636 145.898C233.509 146.616 257.599 118.296 246.365 121.026C235.132 123.755 222.773 132.947 218.35 139.102C213.926 145.258 216.581 145.74 219.636 145.898Z" fill="#D9D9D9"/>
<path d="M219.799 143.553C232.325 142.668 255.103 118.119 244.845 121.413C234.588 124.706 223.088 133.146 218.872 138.398C214.656 143.649 217.04 143.748 219.799 143.553Z" fill="#D9D9D9"/>
<path d="M353.256 196.161L298.256 179.161L268.756 218.661L251.256 248.161" stroke="#685B5E" stroke-opacity="0.99" stroke-width="40" stroke-linecap="round"/>
<path d="M353.256 188.162C353.256 188.162 305.756 167.662 297.756 169.161C289.756 170.661 268.256 210.161 268.256 210.161L251.256 246.161" stroke="#685B5E" stroke-opacity="0.99" stroke-width="40" stroke-linecap="round"/>
<path d="M373.256 198.677C373.256 198.677 299.759 163.839 294.256 171.177C289.756 177.177 266.256 214.177 266.256 214.177L250.756 246.177" stroke="#D9D9D9" stroke-width="35" stroke-linecap="round"/>
<path d="M236.616 261.343C247.105 252.555 246.651 215.96 240.248 225.465C233.846 234.971 230.709 249.893 231.395 257.302C232.082 264.711 234.306 263.279 236.616 261.343Z" fill="#D9D9D9"/>
<path d="M234.748 258.717C242.563 249.333 244.459 216.891 239.438 226.298C234.417 235.704 231.337 249.433 231.366 255.912C231.395 262.391 233.027 260.784 234.748 258.717Z" fill="#D9D9D9"/>
<path d="M334.256 240.661L311.256 218.661L297.256 244.661L279.756 270.661" stroke="#685B5E" stroke-opacity="0.99" stroke-width="30" stroke-linecap="round"/>
<path d="M359.256 226.661C359.256 226.661 326.001 214.162 309.756 214.161C306.756 214.161 294.756 240.161 294.756 240.161L280.256 267.661" stroke="#D9D9D9" stroke-width="30" stroke-linecap="round"/>
<path d="M331.256 250.161L327.756 281.161" stroke="#685B5E" stroke-opacity="0.99" stroke-width="6" stroke-linecap="round"/>
<path d="M337.256 256.892L327.358 286.477" stroke="#D9D9D9" stroke-width="6" stroke-linecap="round"/>
<path d="M344.756 245.661C344.756 245.661 326.001 214.162 309.756 214.161C306.756 214.161 294.756 240.161 294.756 240.161L280.256 267.661" stroke="#D9D9D9" stroke-width="30" stroke-linecap="round"/>
<path d="M265.735 278.688C275.911 272.735 278.411 241.249 271.871 248.438C265.33 255.626 261.309 267.961 261.34 274.426C261.371 280.891 263.494 279.999 265.735 278.688Z" fill="#D9D9D9"/>
<path d="M263.775 276.494C271.321 269.519 276.046 242.579 270.874 249.887C265.702 257.195 261.766 268.339 261.169 273.765C260.572 279.191 262.114 278.03 263.775 276.494Z" fill="#D9D9D9"/>
<path d="M296.256 534.161H422.756L414.256 482.661L296.256 493.661V534.161Z" fill="#D9D9D9"/>
<path d="M415.078 502.649C423.502 482.69 409.256 424.161 409.255 433.161C409.255 438.16 296.141 443.381 288.256 438C272.832 427.475 285.408 502.649 293.926 516.603C305.781 536.023 410.665 513.104 415.078 502.649Z" fill="#D9D9D9"/>
<path d="M242.061 119.103C242.923 115.175 241.473 92.0191 240.235 89.9441C238.997 87.8692 220.253 87.9668 219.351 91.2519C218.449 94.537 219.877 115.972 221.177 120.411C222.478 124.85 241.199 123.032 242.061 119.103Z" fill="#D9D9D9"/>
<path d="M244.422 119.684C245.585 116.631 244.47 98.8187 243.018 97.2538C241.566 95.689 218.687 96.2939 217.493 98.8522C216.299 101.411 217.436 117.897 218.897 121.282C220.359 124.668 243.259 122.737 244.422 119.684Z" fill="#D9D9D9"/>
<path d="M304.467 247.752C316.069 228.279 309.053 116.237 295.632 106.663C282.21 97.0884 65.7375 105.437 53.9405 121.798C42.1434 138.158 49.6217 241.839 62.7754 262.886C75.9291 283.934 292.864 267.225 304.467 247.752Z" fill="#D9D9D9"/>
<path d="M310.173 202.084C311.357 189.512 310.19 170.838 308.558 160.526C306.926 150.213 48.7941 170.543 49.2488 177.805C49.7035 185.066 51.3276 211.002 53.9422 221.253C56.5568 231.504 308.99 214.656 310.173 202.084Z" fill="#D9D9D9"/>
<path d="M310.563 208.308C311.747 195.736 310.58 177.063 308.948 166.75C307.317 156.437 49.1842 176.767 49.6389 184.029C50.0937 191.291 51.7177 217.226 54.3323 227.477C56.9469 237.728 309.38 220.88 310.563 208.308Z" fill="#D9D9D9"/>
<ellipse cx="46.2672" cy="48.8541" rx="46.2672" ry="48.8541" transform="matrix(-0.998045 0.0624972 0.0624972 0.998045 219.147 135.608)" fill="#D9D9D9"/>
<ellipse cx="44.2984" cy="46.7752" rx="44.2984" ry="46.7752" transform="matrix(-0.998045 0.0624972 0.0624972 0.998045 219.147 135.608)" fill="#D9D9D9"/>
<ellipse cx="41.3452" cy="43.6569" rx="41.3452" ry="43.6569" transform="matrix(-0.998045 0.0624972 0.0624972 0.998045 215.477 140.005)" fill="#D9D9D9"/>
<ellipse cx="31.5011" cy="33.2624" rx="31.5011" ry="33.2624" transform="matrix(-0.998045 0.0624972 0.0624972 0.998045 206.302 150.993)" fill="#D9D9D9"/>
<path d="M244.44 122.341C245.278 118.797 243.971 97.9324 242.795 96.0665C241.619 94.2006 223.701 94.3529 222.827 97.3169C221.954 100.281 223.245 119.595 224.473 123.591C225.701 127.587 243.603 125.885 244.44 122.341Z" fill="#2C2627"/>
<path d="M246.697 122.856C247.819 120.1 246.814 104.05 245.431 102.644C244.049 101.239 222.176 101.863 221.026 104.173C219.876 106.483 220.906 121.338 222.292 124.384C223.678 127.43 245.575 125.611 246.697 122.856Z" fill="#2C2627"/>
<path d="M299.929 239.079C311.087 221.488 304.765 120.531 291.968 111.947C279.171 103.364 72.2134 111.632 60.8803 126.418C49.5471 141.204 56.3397 234.625 68.8412 253.55C81.3427 272.474 288.771 256.67 299.929 239.079Z" fill="#AA9D9E"/>
<path d="M68.727 137.338C69.6341 145.394 78.7797 143.193 90.2225 141.91C101.665 140.627 110.921 141.062 110.165 132.692C109.41 124.323 100.113 126.838 88.6698 128.121C77.2269 129.404 67.82 129.283 68.727 137.338Z" fill="#F5F6F4"/>
<path d="M305.544 196.997C306.718 185.662 305.667 168.836 304.143 159.547C302.618 150.258 55.7962 169.468 56.2059 176.011C56.6157 182.554 58.0791 205.924 60.5432 215.154C63.0073 224.385 304.369 208.332 305.544 196.997Z" fill="#B8B8D4"/>
<path d="M305.895 202.606C307.07 191.271 306.019 174.445 304.494 165.156C302.969 155.867 56.1475 175.076 56.5572 181.62C56.967 188.163 58.4304 211.533 60.8945 220.763C63.3587 229.994 304.72 213.941 305.895 202.606Z" fill="#7C7BB0"/>
<ellipse cx="44.2374" cy="44.0212" rx="44.2374" ry="44.0212" transform="matrix(-0.998045 0.0624972 0.0624972 0.998045 223.538 137.379)" fill="#2C2627"/>
<ellipse cx="42.355" cy="42.148" rx="42.355" ry="42.148" transform="matrix(-0.998045 0.0624972 0.0624972 0.998045 223.538 137.379)" fill="#C6BEBE"/>
<ellipse cx="39.5313" cy="39.3381" rx="39.5313" ry="39.3381" transform="matrix(-0.998045 0.0624972 0.0624972 0.998045 220.015 141.353)" fill="#F5F6F4"/>
<ellipse cx="30.1191" cy="29.9719" rx="30.1191" ry="29.9719" transform="matrix(-0.998045 0.0624972 0.0624972 0.998045 211.206 151.29)" fill="#2C2627"/>
<path d="M298.945 455.161L416.903 442.661L419.128 428.161L290.488 442.661L298.945 455.161Z" fill="#41393A"/>
<path d="M313.756 530.661H417.256C417.256 530.661 384.256 360.661 384.256 343.661C384.256 326.661 416.756 182.661 416.756 182.661L303.756 125.161L248.256 255.161C248.256 255.161 280.06 319.659 292.756 363.661C297.228 379.161 313.756 530.661 313.756 530.661Z" fill="#C4A590"/>
<path d="M400.256 183.161C400.256 183.161 320.756 85.6609 316.756 83.1611C312.756 80.6614 280.756 79.1611 280.756 79.1611L253.256 83.1611" stroke="#685B5E" stroke-opacity="0.99" stroke-width="30" stroke-linecap="round"/>
<path d="M402.256 180.161C402.256 180.161 322.756 82.6609 318.756 80.1611C314.756 77.6614 282.756 76.1611 282.756 76.1611L253.756 80.1611" stroke="#C4A590" stroke-width="27" stroke-linecap="round"/>
<path d="M237.83 75.5977C237.83 75.5977 276.285 67.4365 267.763 63.3936C259.24 59.3507 239.442 68.8566 233.417 73.2981C227.392 77.7396 237.83 75.5977 237.83 75.5977Z" fill="#5F6A4E"/>
<path d="M240.574 73.6929C240.574 73.6929 273.234 66.8718 265.987 63.4552C258.741 60.0386 241.934 68.0177 236.822 71.7501C231.709 75.4825 240.574 73.6929 240.574 73.6929Z" fill="#74815F"/>
<path d="M388.256 186.661C388.256 186.661 345.256 135.661 325.756 127.161C306.64 118.828 279.756 131.661 279.756 131.661L246.256 148.661" stroke="#685B5E" stroke-opacity="0.99" stroke-width="30" stroke-linecap="round"/>
<path d="M400.756 172.662C400.756 172.662 351.755 116.663 342.756 107.162C341.893 106.251 290.256 116.161 290.256 116.161L262.256 130.662" stroke="#685B5E" stroke-opacity="0.99" stroke-width="30" stroke-linecap="round"/>
<path d="M400.256 178.163L368.506 146.663C368.506 146.663 341.366 116.982 339.756 114.163C337.756 110.661 291.256 120.163 291.256 120.163L246.256 142.663" stroke="#C4A590" stroke-width="35" stroke-linecap="round"/>
<path d="M398.256 183.161L367.256 150.161L347.756 129.161C347.756 129.161 341.244 122.926 336.256 120.161C320.885 111.642 291.256 120.161 291.256 120.161L246.256 142.661" stroke="#C4A590" stroke-width="35" stroke-linecap="round"/>
<path d="M227.636 142.898C241.509 143.616 265.599 115.296 254.365 118.026C243.132 120.755 230.773 129.947 226.35 136.102C221.926 142.258 224.581 142.74 227.636 142.898Z" fill="#5F6A4E"/>
<path d="M227.799 140.553C240.325 139.668 263.103 115.119 252.845 118.413C242.588 121.706 231.088 130.146 226.872 135.398C222.656 140.649 225.04 140.748 227.799 140.553Z" fill="#74815F"/>
<path d="M361.256 193.161L306.256 176.161L276.756 215.661L259.256 245.161" stroke="#685B5E" stroke-opacity="0.99" stroke-width="40" stroke-linecap="round"/>
<path d="M361.256 185.162C361.256 185.162 313.756 164.662 305.756 166.161C297.756 167.661 276.256 207.161 276.256 207.161L259.256 243.161" stroke="#685B5E" stroke-opacity="0.99" stroke-width="40" stroke-linecap="round"/>
<path d="M381.256 195.677C381.256 195.677 307.759 160.839 302.256 168.177C297.756 174.177 274.256 211.177 274.256 211.177L258.756 243.177" stroke="#C4A590" stroke-width="35" stroke-linecap="round"/>
<path d="M244.616 258.343C255.105 249.555 254.651 212.96 248.248 222.465C241.846 231.971 238.709 246.893 239.395 254.302C240.082 261.711 242.306 260.279 244.616 258.343Z" fill="#5F6A4E"/>
<path d="M242.748 255.717C250.563 246.333 252.459 213.891 247.438 223.298C242.417 232.704 239.337 246.433 239.366 252.912C239.395 259.391 241.027 257.784 242.748 255.717Z" fill="#74815F"/>
<path d="M342.256 237.661L319.256 215.661L305.256 241.661L287.756 267.661" stroke="#685B5E" stroke-opacity="0.99" stroke-width="30" stroke-linecap="round"/>
<path d="M367.256 223.661C367.256 223.661 334.001 211.162 317.756 211.161C314.756 211.161 302.756 237.161 302.756 237.161L288.256 264.661" stroke="#C4A590" stroke-width="30" stroke-linecap="round"/>
<path d="M339.256 247.161L335.756 278.161" stroke="#685B5E" stroke-opacity="0.99" stroke-width="6" stroke-linecap="round"/>
<path d="M345.256 253.892L335.358 283.477" stroke="#C4A590" stroke-width="6" stroke-linecap="round"/>
<path d="M352.756 242.661C352.756 242.661 334.001 211.162 317.756 211.161C314.756 211.161 302.756 237.161 302.756 237.161L288.256 264.661" stroke="#C4A590" stroke-width="30" stroke-linecap="round"/>
<path d="M273.735 275.688C283.911 269.735 286.411 238.249 279.871 245.438C273.33 252.626 269.309 264.961 269.34 271.426C269.371 277.891 271.494 276.999 273.735 275.688Z" fill="#5F6A4E"/>
<path d="M271.775 273.494C279.321 266.519 284.046 239.579 278.874 246.887C273.702 254.195 269.766 265.339 269.169 270.765C268.572 276.191 270.114 275.03 271.775 273.494Z" fill="#74815F"/>
<path d="M304.256 533.161H430.756L422.256 481.661L304.256 492.661V533.161Z" fill="#41393A"/>
<path d="M423.078 499.649C431.502 479.69 417.256 421.161 417.255 430.161C417.255 435.16 304.063 449.067 296.178 443.687C280.754 433.162 293.408 499.649 301.926 513.603C313.781 533.023 418.665 510.104 423.078 499.649Z" fill="#685B5E"/>
<path d="M427.966 500.649C436.828 480.69 417.107 406.423 417.108 432.738C417.108 439.21 300.533 452.308 294.487 444.687C281.43 428.233 291.573 500.649 300.533 514.603C313.003 534.023 423.324 511.105 427.966 500.649Z" fill="#685B5E"/>
<path d="M31.3369 63.2785C26.3143 54.3493 11.059 49.5349 2.49999 45.2554" stroke="#F5F6F4" stroke-width="4" stroke-linecap="round"/>
<path d="M55.3677 42.8522L51.7631 10.4106" stroke="#F5F6F4" stroke-width="4" stroke-linecap="round"/>
<path d="M83.0032 38.0462C85.4873 25.3494 90.3586 14.0611 95.0186 2" stroke="#F5F6F4" stroke-width="4" stroke-linecap="round"/>
<path d="M114.243 46.4569C117.771 43.0673 121.089 40.6915 125.057 38.0461" stroke="#F5F6F4" stroke-width="4" stroke-linecap="round"/>
</svg>
