<svg width="226" height="324" viewBox="0 0 226 324" fill="none" xmlns="http://www.w3.org/2000/svg">
<path d="M109.306 29.8196C109.665 27.6448 108.207 15.0127 107.47 13.9126C106.733 12.8124 96.4767 13.4036 96.0772 15.2275C95.6777 17.0514 97.0739 28.7424 97.9131 31.1345C98.7523 33.5266 108.947 31.9944 109.306 29.8196Z" fill="#D9D9D9"/>
<path d="M110.615 30.0696C111.164 28.3652 110.043 18.6482 109.203 17.8334C108.363 17.0186 95.8587 18.006 95.2787 19.4405C94.6986 20.875 95.7936 29.8657 96.6909 31.6767C97.5882 33.4877 110.066 31.774 110.615 30.0696Z" fill="#D9D9D9"/>
<path d="M147.153 98.4413C152.945 87.4503 145.89 26.3289 138.27 21.4735C130.649 16.6182 12.4078 27.3979 6.4204 36.691C0.43296 45.984 7.50051 102.516 15.3037 113.659C23.1068 124.801 141.361 109.432 147.153 98.4413Z" fill="#D9D9D9"/>
<path d="M148.967 73.2825C149.254 66.3676 148.079 56.1807 146.89 50.5831C145.701 44.9855 5.0026 63.5182 5.45981 67.4796C5.91702 71.4411 7.54999 85.5897 9.27511 91.1254C11.0002 96.661 148.679 80.1973 148.967 73.2825Z" fill="#D9D9D9"/>
<path d="M149.358 76.6777C149.645 69.7628 148.471 59.576 147.282 53.9784C146.093 48.3807 5.3942 66.9135 5.85141 70.8749C6.30862 74.8363 7.94159 88.9849 9.66671 94.5206C11.3918 100.056 149.071 83.5926 149.358 76.6777Z" fill="#D9D9D9"/>
<ellipse cx="25.3579" cy="26.7757" rx="25.3579" ry="26.7757" transform="matrix(-0.993405 0.114654 0.114654 0.993405 97.2383 39.5103)" fill="#D9D9D9"/>
<ellipse cx="24.2789" cy="25.6363" rx="24.2789" ry="25.6363" transform="matrix(-0.993405 0.114654 0.114654 0.993405 97.2383 39.5103)" fill="#D9D9D9"/>
<ellipse cx="22.6603" cy="23.9273" rx="22.6603" ry="23.9273" transform="matrix(-0.993405 0.114654 0.114654 0.993405 95.356 42.0222)" fill="#D9D9D9"/>
<ellipse cx="17.265" cy="18.2303" rx="17.265" ry="18.2303" transform="matrix(-0.993405 0.114654 0.114654 0.993405 90.6499 48.2991)" fill="#D9D9D9"/>
<path d="M110.702 31.5234C111.059 29.5599 109.745 18.1774 109.048 17.1899C108.35 16.2024 98.5479 16.7998 98.1547 18.4471C97.7616 20.0944 99.0222 30.6286 99.809 32.7806C100.596 34.9325 110.345 33.4869 110.702 31.5234Z" fill="#2C2627"/>
<path d="M111.952 31.7401C112.487 30.1996 111.476 21.4439 110.679 20.7144C109.882 19.9849 97.9289 20.9537 97.3657 22.251C96.8025 23.5482 97.7923 31.6492 98.6383 33.2767C99.4842 34.9043 111.417 33.2806 111.952 31.7401Z" fill="#2C2627"/>
<path d="M144.421 93.825C150.024 83.877 143.667 28.802 136.417 24.4713C129.166 20.1405 16.1306 30.6031 10.3519 39.0211C4.57319 47.4391 10.9711 98.3755 18.3564 108.375C25.7417 118.374 138.819 103.773 144.421 93.825Z" fill="#2C2627"/>
<path d="M14.9597 44.7725C15.6872 49.1555 20.6297 47.6885 26.8558 46.6581C33.0819 45.6277 38.1601 45.6 37.5065 41.041C36.8529 36.4819 31.8365 38.1249 25.6104 39.1554C19.3842 40.1858 14.2321 40.3895 14.9597 44.7725Z" fill="#D9D9D9"/>
<path d="M146.287 70.6316C146.605 64.394 145.547 55.2149 144.446 50.1744C143.345 45.1339 8.80447 62.7289 9.21646 66.2985C9.62844 69.868 11.0999 82.617 12.7133 87.5982C14.3268 92.5795 145.969 76.8692 146.287 70.6316Z" fill="#81818F"/>
<path d="M146.64 73.6914C146.958 67.4538 145.9 58.2747 144.799 53.2342C143.698 48.1937 9.1575 65.7887 9.56948 69.3583C9.98146 72.9278 11.4529 85.6768 13.0664 90.658C14.6798 95.6393 146.322 79.929 146.64 73.6914Z" fill="#535359"/>
<ellipse cx="24.2454" cy="24.127" rx="24.2454" ry="24.127" transform="matrix(-0.993405 0.114654 0.114654 0.993405 99.6929 40.353)" fill="#2C2627"/>
<ellipse cx="23.2137" cy="23.1003" rx="23.2137" ry="23.1003" transform="matrix(-0.993405 0.114654 0.114654 0.993405 99.6929 40.353)" fill="#6B4C4C"/>
<ellipse cx="21.6661" cy="21.5603" rx="21.6661" ry="21.5603" transform="matrix(-0.993405 0.114654 0.114654 0.993405 97.8789 42.6296)" fill="#D9D9D9"/>
<ellipse cx="16.5075" cy="16.4269" rx="16.5075" ry="16.4269" transform="matrix(-0.993405 0.114654 0.114654 0.993405 93.3423 48.321)" fill="#2C2627"/>
<path d="M137.118 209.444L198.821 202.905L199.985 195.32L132.694 202.905L137.118 209.444Z" fill="#D9D9D9"/>
<path d="M144.865 248.938H199.006C199.006 248.938 181.744 160.011 181.744 151.118C181.744 142.226 198.744 66.8996 198.744 66.8996L139.634 36.8215L110.602 104.824C110.602 104.824 127.239 138.563 133.88 161.58C136.219 169.688 144.865 248.938 144.865 248.938Z" fill="#D9D9D9"/>
<path d="M105.148 10.8949C105.148 10.8949 125.264 6.62581 120.806 4.51097C116.348 2.39614 105.992 7.3687 102.84 9.69201C99.6884 12.0153 105.148 10.8949 105.148 10.8949Z" fill="#D9D9D9"/>
<path d="M106.584 9.89851C106.584 9.89851 123.668 6.33044 119.877 4.54323C116.087 2.75601 107.295 6.92983 104.621 8.88225C101.947 10.8347 106.584 9.89851 106.584 9.89851Z" fill="#D9D9D9"/>
<path d="M99.8159 46.0997C107.073 46.4751 119.674 31.6609 113.798 33.0889C107.922 34.5168 101.457 39.3248 99.1432 42.5448C96.8291 45.7647 98.2177 46.017 99.8159 46.0997Z" fill="#D9D9D9"/>
<path d="M99.9013 44.8729C106.454 44.4098 118.369 31.5683 113.003 33.2913C107.637 35.0142 101.622 39.4292 99.4161 42.1761C97.2108 44.923 98.4583 44.9748 99.9013 44.8729Z" fill="#D9D9D9"/>
<path d="M123.931 115.562C129.253 112.448 130.561 95.9777 127.14 99.7379C123.719 103.498 121.615 109.95 121.631 113.332C121.647 116.714 122.758 116.247 123.931 115.562Z" fill="#D9D9D9"/>
<path d="M122.905 114.414C126.852 110.765 129.324 96.6733 126.619 100.496C123.913 104.319 121.854 110.148 121.542 112.987C121.23 115.825 122.036 115.217 122.905 114.414Z" fill="#D9D9D9"/>
<path d="M202.051 232.715C206.458 222.275 199.006 191.658 199.005 196.366C199.005 198.981 139.795 206.256 135.67 203.442C127.602 197.936 134.221 232.715 138.677 240.015C144.878 250.173 199.743 238.184 202.051 232.715Z" fill="#D9D9D9"/>
<path d="M204.608 233.238C209.244 222.798 198.928 183.949 198.928 197.714C198.928 201.1 137.948 207.951 134.785 203.965C127.956 195.358 133.261 233.238 137.948 240.538C144.471 250.696 202.18 238.708 204.608 233.238Z" fill="#D9D9D9"/>
<path d="M140.916 228.602C140.916 228.602 139.323 272.51 138.857 300.657C138.857 300.657 230.873 345.422 224.895 310.97C218.84 276.078 204.279 222.672 204.279 222.672L140.916 228.602Z" fill="#D9D9D9"/>
<path d="M140.871 208.193L202.574 201.654L203.739 194.069L136.447 201.654L140.871 208.193Z" fill="#41393A"/>
<path d="M148.618 247.687H202.759C202.759 247.687 185.497 158.76 185.497 149.867C185.497 140.975 202.497 65.6487 202.497 65.6487L143.387 35.5706L114.355 103.573C114.355 103.573 130.992 137.312 137.633 160.329C139.972 168.437 148.618 247.687 148.618 247.687Z" fill="#D1B6AE"/>
<path d="M193.866 65.9106C193.866 65.9106 152.28 14.9083 150.188 13.6007C148.095 12.2931 131.356 11.5083 131.356 11.5083L116.971 13.6007" stroke="#685B5E" stroke-opacity="0.99" stroke-width="15.6929" stroke-linecap="round"/>
<path d="M194.912 64.3413C194.912 64.3413 153.326 13.339 151.234 12.0314C149.141 10.7237 132.402 9.93896 132.402 9.93896L117.232 12.0314" stroke="#D1B6AE" stroke-width="14.1236" stroke-linecap="round"/>
<path d="M108.901 9.64426C108.901 9.64426 129.017 5.37514 124.559 3.26031C120.101 1.14547 109.745 6.11803 106.593 8.44134C103.441 10.7647 108.901 9.64426 108.901 9.64426Z" fill="#B37E93"/>
<path d="M110.337 8.64754C110.337 8.64754 127.421 5.07948 123.63 3.29226C119.84 1.50504 111.048 5.67886 108.374 7.63128C105.7 9.5837 110.337 8.64754 110.337 8.64754Z" fill="#BB8B9E"/>
<path d="M187.589 67.7411C187.589 67.7411 165.095 41.0633 154.895 36.6169C144.896 32.2581 130.833 38.9708 130.833 38.9708L113.309 47.8634" stroke="#685B5E" stroke-opacity="0.99" stroke-width="15.6929" stroke-linecap="round"/>
<path d="M194.127 60.4181C194.127 60.4181 168.495 31.1251 163.788 26.1552C163.336 25.6788 136.325 30.8628 136.325 30.8628L121.678 38.448" stroke="#685B5E" stroke-opacity="0.99" stroke-width="15.6929" stroke-linecap="round"/>
<path d="M193.866 63.2957L177.258 46.8181C177.258 46.8181 163.061 31.2924 162.219 29.8174C161.172 27.9857 136.848 32.956 136.848 32.956L113.309 44.7257" stroke="#D1B6AE" stroke-width="18.3084" stroke-linecap="round"/>
<path d="M192.82 65.9105L176.604 48.6483L166.403 37.6633C166.403 37.6633 162.997 34.4015 160.388 32.9554C152.347 28.4992 136.848 32.9554 136.848 32.9554L113.309 44.7251" stroke="#D1B6AE" stroke-width="18.3084" stroke-linecap="round"/>
<path d="M103.569 44.849C110.826 45.2245 123.427 30.4103 117.551 31.8382C111.675 33.2662 105.21 38.0742 102.896 41.2942C100.582 44.5141 101.971 44.7663 103.569 44.849Z" fill="#B37E93"/>
<path d="M103.654 43.6222C110.206 43.1591 122.121 30.3177 116.756 32.0406C111.39 33.7636 105.374 38.1785 103.169 40.9254C100.963 43.6724 102.211 43.7242 103.654 43.6222Z" fill="#BB8B9E"/>
<path d="M173.465 71.1412L144.695 62.2485L129.264 82.9109L120.109 98.3423" stroke="#685B5E" stroke-opacity="0.99" stroke-width="20.9239" stroke-linecap="round"/>
<path d="M173.465 66.9567C173.465 66.9567 148.618 56.2331 144.433 57.0176C140.249 57.8021 129.002 78.4646 129.002 78.4646L120.109 97.2961" stroke="#685B5E" stroke-opacity="0.99" stroke-width="20.9239" stroke-linecap="round"/>
<path d="M183.927 72.4574C183.927 72.4574 145.481 54.2334 142.603 58.0719C140.249 61.2106 127.956 80.5651 127.956 80.5651L119.848 97.3043" stroke="#D1B6AE" stroke-width="18.3084" stroke-linecap="round"/>
<path d="M112.451 105.238C117.938 100.641 117.7 81.4984 114.351 86.4705C111.002 91.4426 109.361 99.2486 109.72 103.124C110.079 107 111.243 106.251 112.451 105.238Z" fill="#B37E93"/>
<path d="M111.474 103.864C115.562 98.9553 116.553 81.9848 113.927 86.9054C111.301 91.826 109.69 99.0074 109.705 102.397C109.72 105.786 110.573 104.945 111.474 103.864Z" fill="#BB8B9E"/>
<path d="M163.526 94.419L151.495 82.9109L144.172 96.5114L135.018 110.112" stroke="#685B5E" stroke-opacity="0.99" stroke-width="10.462" stroke-linecap="round"/>
<path d="M176.604 87.0959C176.604 87.0959 159.208 80.5573 150.71 80.5571C149.141 80.5571 142.864 94.1577 142.864 94.1577L135.279 108.543" stroke="#D1B6AE" stroke-width="10.462" stroke-linecap="round"/>
<path d="M161.957 99.3889L160.126 115.605" stroke="#685B5E" stroke-opacity="0.99" stroke-width="3.13859" stroke-linecap="round"/>
<path d="M165.096 102.91L159.918 118.386" stroke="#D1B6AE" stroke-width="3.13859" stroke-linecap="round"/>
<path d="M169.019 97.0347C169.019 97.0347 159.209 80.5573 150.711 80.5571C149.141 80.5571 142.864 94.1577 142.864 94.1577L135.279 108.543" stroke="#D1B6AE" stroke-width="10.462" stroke-linecap="round"/>
<path d="M127.683 114.311C133.006 111.197 134.314 94.727 130.893 98.4872C127.472 102.247 125.368 108.7 125.384 112.082C125.4 115.463 126.511 114.997 127.683 114.311Z" fill="#B37E93"/>
<path d="M126.658 113.163C130.606 109.515 133.077 95.4226 130.372 99.2454C127.666 103.068 125.607 108.898 125.295 111.736C124.983 114.574 125.789 113.967 126.658 113.163Z" fill="#BB8B9E"/>
<path d="M143.649 227.809C143.649 227.809 142.097 270.417 141.643 297.73C141.643 297.73 231.281 341.169 225.458 307.738C219.56 273.879 205.374 222.055 205.374 222.055L143.649 227.809Z" fill="#41393A"/>
<path d="M205.804 231.464C210.211 221.024 202.759 190.408 202.758 195.116C202.758 197.731 143.547 205.005 139.423 202.191C131.355 196.685 137.974 231.464 142.43 238.764C148.631 248.922 203.495 236.934 205.804 231.464Z" fill="#D9D9D9"/>
<path d="M208.362 235.741C212.997 225.3 202.681 186.451 202.681 200.216C202.682 203.602 141.701 210.453 138.538 206.467C131.709 197.86 137.014 235.741 141.701 243.04C148.224 253.198 205.933 241.21 208.362 235.741Z" fill="#363030"/>
<path d="M208.362 231.988C212.997 221.547 202.681 182.698 202.681 196.463C202.682 199.849 141.701 206.7 138.538 202.714C131.709 194.107 137.014 231.988 141.701 239.287C148.224 249.446 205.933 237.457 208.362 231.988Z" fill="white"/>
</svg>
