<svg width="30" height="31" viewBox="0 0 30 31" fill="none" xmlns="http://www.w3.org/2000/svg">
<ellipse cx="15" cy="15.5" rx="15" ry="15.5" fill="#685B5E" fill-opacity="0.99"/>
<path d="M11.64 7H18.36C20.92 7 23 9.08 23 11.64V18.36C23 19.5906 22.5111 20.7708 21.641 21.641C20.7708 22.5111 19.5906 23 18.36 23H11.64C9.08 23 7 20.92 7 18.36V11.64C7 10.4094 7.48886 9.22919 8.35902 8.35902C9.22919 7.48886 10.4094 7 11.64 7ZM11.48 8.6C10.7162 8.6 9.98364 8.90343 9.44353 9.44353C8.90343 9.98364 8.6 10.7162 8.6 11.48V18.52C8.6 20.112 9.888 21.4 11.48 21.4H18.52C19.2838 21.4 20.0164 21.0966 20.5565 20.5565C21.0966 20.0164 21.4 19.2838 21.4 18.52V11.48C21.4 9.888 20.112 8.6 18.52 8.6H11.48ZM19.2 9.8C19.4652 9.8 19.7196 9.90536 19.9071 10.0929C20.0946 10.2804 20.2 10.5348 20.2 10.8C20.2 11.0652 20.0946 11.3196 19.9071 11.5071C19.7196 11.6946 19.4652 11.8 19.2 11.8C18.9348 11.8 18.6804 11.6946 18.4929 11.5071C18.3054 11.3196 18.2 11.0652 18.2 10.8C18.2 10.5348 18.3054 10.2804 18.4929 10.0929C18.6804 9.90536 18.9348 9.8 19.2 9.8ZM15 11C16.0609 11 17.0783 11.4214 17.8284 12.1716C18.5786 12.9217 19 13.9391 19 15C19 16.0609 18.5786 17.0783 17.8284 17.8284C17.0783 18.5786 16.0609 19 15 19C13.9391 19 12.9217 18.5786 12.1716 17.8284C11.4214 17.0783 11 16.0609 11 15C11 13.9391 11.4214 12.9217 12.1716 12.1716C12.9217 11.4214 13.9391 11 15 11ZM15 12.6C14.3635 12.6 13.753 12.8529 13.3029 13.3029C12.8529 13.753 12.6 14.3635 12.6 15C12.6 15.6365 12.8529 16.247 13.3029 16.6971C13.753 17.1471 14.3635 17.4 15 17.4C15.6365 17.4 16.247 17.1471 16.6971 16.6971C17.1471 16.247 17.4 15.6365 17.4 15C17.4 14.3635 17.1471 13.753 16.6971 13.3029C16.247 12.8529 15.6365 12.6 15 12.6Z" fill="#F7F7F6"/>
</svg>
