<svg width="31" height="31" viewBox="0 0 31 31" fill="none" xmlns="http://www.w3.org/2000/svg">
<circle cx="15.5" cy="15.5" r="15.5" fill="#685B5E" fill-opacity="0.99"/>
<path d="M17.4951 7C16.4074 7 15.3643 7.4272 14.5952 8.18762C13.8262 8.94804 13.3941 9.9794 13.3941 11.0548V13.3123H11.1995C11.0896 13.3123 11 13.4 11 13.5096V16.4904C11 16.5991 11.0887 16.6877 11.1995 16.6877H13.3941V22.8027C13.3941 22.9115 13.4828 23 13.5936 23H16.6084C16.7183 23 16.8079 22.9123 16.8079 22.8027V16.6877H19.022C19.1133 16.6877 19.1931 16.6263 19.2153 16.5386L19.969 13.5578C19.9764 13.5287 19.977 13.4983 19.9707 13.469C19.9645 13.4396 19.9516 13.4121 19.9329 13.3884C19.9143 13.3647 19.8904 13.3456 19.8632 13.3324C19.8359 13.3192 19.806 13.3124 19.7757 13.3123H16.8079V11.0548C16.8079 10.9656 16.8257 10.8772 16.8602 10.7948C16.8947 10.7123 16.9453 10.6374 17.0092 10.5743C17.073 10.5113 17.1487 10.4612 17.2321 10.4271C17.3155 10.3929 17.4048 10.3753 17.4951 10.3753H19.8005C19.9104 10.3753 20 10.2877 20 10.1781V7.19726C20 7.08855 19.9113 7 19.8005 7H17.4951Z" fill="#F7F7F6"/>
</svg>
