<svg xmlns="http://www.w3.org/2000/svg" fill="none" viewBox="0 0 30 31">
<ellipse cx="15" cy="15.5" rx="15" ry="15.5" fill="#685B5E" fill-opacity="0.99"/>
<path d="M6.2709 15.1543C6.40161 12.7309 6.04664 10.1609 7.45959 7.73727C9.39919 6.60884 11.5883 7.05639 13.4548 7.26733C17.0587 7.6746 18.9155 6.68418 22.4744 7.54113C23.0424 7.67791 24.8752 8.47441 24.9493 9.06343C24.9055 9.87667 25.2552 21.5778 24.5675 22.0096C23.8729 22.4457 23.2453 22.7873 22.4744 23.0207C21.7325 23.2453 20.829 23.2352 20.0685 23.3606C19.1163 23.5175 18.1758 23.7453 17.2135 23.8194C14.3055 24.0435 10.1023 24.2877 7.45959 23.0207C5.31318 20.7357 6.12613 17.8385 6.2709 15.1543Z" stroke="#F7F7F6" stroke-width="2" stroke-linecap="round"/>
<path d="M12.1052 15.9619C11.531 14.3299 13.4104 13 15.2561 13C18.3585 13 18.4926 16.7226 17.3163 17.439C16.5082 17.9312 15.0502 18.1068 14.1897 17.9369C13.0768 17.7173 12.4558 16.9585 12.1052 15.9619Z" stroke="#F7F7F6" stroke-width="2" stroke-linecap="round"/>
<path d="M21.0002 13C21.0002 13 20.9893 13.3232 21.1509 13" stroke="#F7F7F6" stroke-width="2" stroke-linecap="round"/>
</svg>