<svg xmlns="http://www.w3.org/2000/svg" fill="none" viewBox="0 0.05 31 31">
<circle cx="15.5" cy="15.5547" r="15.5" fill="#685B5E" fill-opacity="0.99"/>
<path d="M8 12.2765C8 13.8163 8.61729 15.513 8.90421 17.032C9.0845 17.9865 9.30822 18.9403 9.47352 19.8953C9.63484 20.8274 9.89652 20.506 10.7629 20.2637C13.6721 19.4501 16.734 19.7617 19.6877 19.3679C20.6557 19.2388 21.634 18.91 22.5761 18.7651C22.7751 18.7344 23.3888 18.8771 23.5055 18.673C23.6586 18.405 23.3448 17.5429 23.2961 17.2832C22.9352 15.3584 22.8651 13.1391 21.9817 11.3723C21.5846 10.5781 19.4676 11.2887 18.7835 11.3723C16.5375 11.647 14.3051 11.596 12.0522 11.7072C10.8634 11.7659 9.6918 11.9119 8.51908 12.0924C7.26667 12.285 9.9345 13.2228 10.227 13.3398C11.8871 14.0039 13.665 14.2807 15.3257 14.9306C15.5907 15.0343 16.5692 15.453 16.7407 15.6673C17.2227 16.2699 17.8684 14.5583 17.963 14.3864C18.6269 13.1792 19.7462 12.2139 20.5082 11.0709" stroke="#F7F7F6" stroke-width="2" stroke-linecap="round"/>
</svg>