<svg xmlns="http://www.w3.org/2000/svg" fill="none" viewBox="3.57 7.24 213.21 266.76">
<path d="M151.945 63.3185C162.043 96.5027 144.95 114.906 140.942 146.361C135.968 185.394 162.68 234.291 174.5 274L47.4999 274C58.3494 232.399 81.7142 183.943 80.0189 148.667C78.5926 118.99 51.3909 91.4134 68.066 66.494C88.8016 35.5063 141.847 30.1343 151.945 63.3185Z" fill="#685B5E" fill-opacity="0.99"/>
<path d="M104.419 100.017C104.471 103.687 101.998 106.707 98.8952 106.761C95.7927 106.815 93.2354 103.884 93.1833 100.214C93.1313 96.5437 95.6042 93.5244 98.7067 93.4701C101.809 93.4158 104.367 96.347 104.419 100.017Z" fill="#685B5E" fill-opacity="0.99"/>
<ellipse cx="5.61849" cy="6.64608" rx="5.61849" ry="6.64608" transform="matrix(0.999847 -0.0175086 0.0141786 0.999899 120.047 93.0063)" fill="#685B5E" fill-opacity="0.99"/>
<path d="M103.697 99.1219C103.697 99.1219 77.8838 145.603 96.7823 157.459C103.694 161.795 108 146.803 108 146.803C108 146.803 110.224 157.47 116.874 158.567C137.526 161.976 121.612 100.11 121.612 100.11" stroke="#685B5E" stroke-opacity="0.99"/>
<path d="M108.56 145.374C108.56 145.374 105.451 142.072 104.217 140.473C101.458 136.898 117.693 137.794 114.676 141.051C112.768 143.11 108.56 145.374 108.56 145.374Z" fill="#685B5E" fill-opacity="0.99" stroke="#685B5E" stroke-opacity="0.99"/>
<ellipse cx="76.8356" cy="140.601" rx="7.17481" ry="6.65055" transform="rotate(-2.16804 76.8356 140.601)" fill="#685B5E" fill-opacity="0.99"/>
<ellipse cx="50.5158" cy="156.571" rx="7.17481" ry="6.65055" transform="rotate(-2.16804 50.5158 156.571)" fill="#685B5E" fill-opacity="0.99"/>
<ellipse cx="26.6481" cy="142.501" rx="7.17481" ry="6.65055" transform="rotate(-2.16804 26.6481 142.501)" fill="#685B5E" fill-opacity="0.99"/>
<ellipse cx="72.37" cy="117.476" rx="7.17481" ry="6.65055" transform="rotate(-2.16804 72.37 117.476)" fill="#685B5E" fill-opacity="0.99"/>
<ellipse cx="75.7035" cy="110.695" rx="7.17481" ry="6.65055" transform="rotate(-2.16804 75.7035 110.695)" fill="#685B5E" fill-opacity="0.99"/>
<ellipse cx="73.0309" cy="87.502" rx="7.17481" ry="6.65055" transform="rotate(-2.16804 73.0309 87.502)" fill="#685B5E" fill-opacity="0.99"/>
<ellipse cx="26.208" cy="130.871" rx="14.3496" ry="13.3011" transform="rotate(-2.16804 26.208 130.871)" fill="#685B5E" fill-opacity="0.99"/>
<ellipse cx="39.3208" cy="145.349" rx="14.3496" ry="13.3011" transform="rotate(-2.16804 39.3208 145.349)" fill="#685B5E" fill-opacity="0.99"/>
<ellipse cx="64.4773" cy="146.06" rx="14.3496" ry="13.3011" transform="rotate(-2.16804 64.4773 146.06)" fill="#685B5E" fill-opacity="0.99"/>
<ellipse cx="69.2256" cy="129.242" rx="14.3496" ry="13.3011" transform="rotate(-2.16804 69.2256 129.242)" fill="#685B5E" fill-opacity="0.99"/>
<ellipse cx="63.2193" cy="112.831" rx="14.3496" ry="13.3011" transform="rotate(-2.16804 63.2193 112.831)" fill="#685B5E" fill-opacity="0.99"/>
<ellipse cx="68.0938" cy="99.3364" rx="14.3496" ry="13.3011" transform="rotate(-2.16804 68.0938 99.3364)" fill="#685B5E" fill-opacity="0.99"/>
<ellipse cx="62.0874" cy="82.9255" rx="14.3496" ry="13.3011" transform="rotate(-2.16804 62.0874 82.9255)" fill="#685B5E" fill-opacity="0.99"/>
<ellipse cx="18.4094" cy="114.527" rx="14.3496" ry="13.3011" transform="rotate(-2.16804 18.4094 114.527)" fill="#685B5E" fill-opacity="0.99"/>
<ellipse cx="45.9248" cy="130.124" rx="14.3496" ry="13.3011" transform="rotate(-2.16804 45.9248 130.124)" fill="#685B5E" fill-opacity="0.99"/>
<ellipse cx="34.478" cy="112.255" rx="14.3496" ry="13.3011" transform="rotate(-2.16804 34.478 112.255)" fill="#685B5E" fill-opacity="0.99"/>
<ellipse cx="32.1196" cy="97.3701" rx="14.3496" ry="13.3011" transform="rotate(-2.16804 32.1196 97.3701)" fill="#685B5E" fill-opacity="0.99"/>
<ellipse cx="46.0186" cy="85.1972" rx="14.3496" ry="13.3011" transform="rotate(-2.16804 46.0186 85.1972)" fill="#685B5E" fill-opacity="0.99"/>
<ellipse cx="58.251" cy="76.4147" rx="14.3496" ry="13.3011" transform="rotate(-2.16804 58.251 76.4147)" fill="#685B5E" fill-opacity="0.99"/>
<ellipse cx="48.6917" cy="108.39" rx="14.3496" ry="13.3011" transform="rotate(-2.16804 48.6917 108.39)" fill="#685B5E" fill-opacity="0.99"/>
<ellipse cx="77.6752" cy="140.569" rx="6.33393" ry="6.65055" transform="rotate(-2.16804 77.6752 140.569)" fill="#685B5E" fill-opacity="0.99"/>
<ellipse cx="54.5063" cy="156.421" rx="6.33393" ry="6.65055" transform="rotate(-2.16804 54.5063 156.421)" fill="#685B5E" fill-opacity="0.99"/>
<ellipse cx="33.3705" cy="142.246" rx="6.33393" ry="6.65055" transform="rotate(-2.16804 33.3705 142.246)" fill="#685B5E" fill-opacity="0.99"/>
<ellipse cx="73.6298" cy="117.428" rx="6.33393" ry="6.65055" transform="rotate(-2.16804 73.6298 117.428)" fill="#685B5E" fill-opacity="0.99"/>
<ellipse cx="76.5429" cy="110.663" rx="6.33393" ry="6.65055" transform="rotate(-2.16804 76.5429 110.663)" fill="#685B5E" fill-opacity="0.99"/>
<ellipse cx="74.08" cy="87.4623" rx="6.33393" ry="6.65055" transform="rotate(-2.16804 74.08 87.4623)" fill="#685B5E" fill-opacity="0.99"/>
<ellipse cx="32.9291" cy="130.616" rx="12.6679" ry="13.3011" transform="rotate(-2.16804 32.9291 130.616)" fill="#685B5E" fill-opacity="0.99"/>
<ellipse cx="44.5721" cy="145.15" rx="12.6679" ry="13.3011" transform="rotate(-2.16804 44.5721 145.15)" fill="#685B5E" fill-opacity="0.99"/>
<ellipse cx="66.788" cy="145.973" rx="12.6679" ry="13.3011" transform="rotate(-2.16804 66.788 145.973)" fill="#685B5E" fill-opacity="0.99"/>
<ellipse cx="70.9061" cy="129.178" rx="12.6679" ry="13.3011" transform="rotate(-2.16804 70.9061 129.178)" fill="#685B5E" fill-opacity="0.99"/>
<ellipse cx="65.5301" cy="112.744" rx="12.6679" ry="13.3011" transform="rotate(-2.16804 65.5301 112.744)" fill="#685B5E" fill-opacity="0.99"/>
<ellipse cx="69.7738" cy="99.2723" rx="12.6679" ry="13.3011" transform="rotate(-2.16804 69.7738 99.2723)" fill="#685B5E" fill-opacity="0.99"/>
<ellipse cx="64.3978" cy="82.838" rx="12.6679" ry="13.3011" transform="rotate(-2.16804 64.3978 82.838)" fill="#685B5E" fill-opacity="0.99"/>
<ellipse cx="25.9716" cy="114.242" rx="12.6679" ry="13.3011" transform="rotate(-2.16804 25.9716 114.242)" fill="#685B5E" fill-opacity="0.99"/>
<ellipse cx="50.3353" cy="129.957" rx="12.6679" ry="13.3011" transform="rotate(-2.16804 50.3353 129.957)" fill="#685B5E" fill-opacity="0.99"/>
<ellipse cx="40.1498" cy="112.041" rx="12.6679" ry="13.3011" transform="rotate(-2.16804 40.1498 112.041)" fill="#685B5E" fill-opacity="0.99"/>
<ellipse cx="38.0013" cy="97.1475" rx="12.6679" ry="13.3011" transform="rotate(-2.16804 38.0013 97.1475)" fill="#685B5E" fill-opacity="0.99"/>
<ellipse cx="50.2191" cy="85.0384" rx="12.6679" ry="13.3011" transform="rotate(-2.16804 50.2191 85.0384)" fill="#685B5E" fill-opacity="0.99"/>
<ellipse cx="60.9818" cy="76.3114" rx="12.6679" ry="13.3011" transform="rotate(-2.16804 60.9818 76.3114)" fill="#685B5E" fill-opacity="0.99"/>
<ellipse cx="52.683" cy="108.238" rx="12.6679" ry="13.3011" transform="rotate(-2.16804 52.683 108.238)" fill="#685B5E" fill-opacity="0.99"/>
<ellipse cx="161.897" cy="64.1717" rx="7.17481" ry="6.65055" transform="rotate(-2.16804 161.897 64.1717)" fill="#685B5E" fill-opacity="0.99"/>
<ellipse cx="7.16384" cy="6.66237" rx="7.16384" ry="6.66237" transform="matrix(-0.995065 -0.0992242 -0.121224 0.992625 148.38 129.528)" fill="#685B5E" fill-opacity="0.99"/>
<ellipse cx="7.16384" cy="6.66237" rx="7.16384" ry="6.66237" transform="matrix(-0.995065 -0.0992242 -0.121224 0.992625 173.295 147.073)" fill="#685B5E" fill-opacity="0.99"/>
<ellipse cx="7.16384" cy="6.66237" rx="7.16384" ry="6.66237" transform="matrix(-0.995065 -0.0992242 -0.121224 0.992625 198.28 134.503)" fill="#685B5E" fill-opacity="0.99"/>
<ellipse cx="7.16384" cy="6.66237" rx="7.16384" ry="6.66237" transform="matrix(-0.995065 -0.0992242 -0.121224 0.992625 154.771 106.737)" fill="#685B5E" fill-opacity="0.99"/>
<ellipse cx="7.16384" cy="6.66237" rx="7.16384" ry="6.66237" transform="matrix(-0.995065 -0.0992242 -0.121224 0.992625 152.015 99.7678)" fill="#685B5E" fill-opacity="0.99"/>
<ellipse cx="7.16384" cy="6.66237" rx="7.16384" ry="6.66237" transform="matrix(-0.995065 -0.0992242 -0.121224 0.992625 156.623 76.7988)" fill="#685B5E" fill-opacity="0.99"/>
<ellipse cx="7.16384" cy="6.66237" rx="7.16384" ry="6.66237" transform="matrix(-0.995065 -0.0992242 -0.121224 0.992625 157.947 76.8401)" fill="#685B5E" fill-opacity="0.99"/>
<ellipse cx="14.3277" cy="13.3247" rx="14.3277" ry="13.3247" transform="matrix(-0.995065 -0.0992242 -0.121224 0.992625 207.629 117.028)" fill="#685B5E" fill-opacity="0.99"/>
<ellipse cx="14.3277" cy="13.3247" rx="14.3277" ry="13.3247" transform="matrix(-0.995065 -0.0992242 -0.121224 0.992625 193.336 130.664)" fill="#685B5E" fill-opacity="0.99"/>
<ellipse cx="14.3277" cy="13.3247" rx="14.3277" ry="13.3247" transform="matrix(-0.995065 -0.0992242 -0.121224 0.992625 168.185 129.829)" fill="#685B5E" fill-opacity="0.99"/>
<ellipse cx="14.3277" cy="13.3247" rx="14.3277" ry="13.3247" transform="matrix(-0.995065 -0.0992242 -0.121224 0.992625 164.858 112.762)" fill="#685B5E" fill-opacity="0.99"/>
<ellipse cx="14.3277" cy="13.3247" rx="14.3277" ry="13.3247" transform="matrix(-0.995065 -0.0992242 -0.121224 0.992625 172.223 96.7629)" fill="#685B5E" fill-opacity="0.99"/>
<ellipse cx="14.3277" cy="13.3247" rx="14.3277" ry="13.3247" transform="matrix(-0.995065 -0.0992242 -0.121224 0.992625 168.493 83.0029)" fill="#685B5E" fill-opacity="0.99"/>
<ellipse cx="14.3277" cy="13.3247" rx="14.3277" ry="13.3247" transform="matrix(-0.995065 -0.0992242 -0.121224 0.992625 175.857 67.0032)" fill="#685B5E" fill-opacity="0.99"/>
<ellipse cx="14.3277" cy="13.3247" rx="14.3277" ry="13.3247" transform="matrix(-0.995065 -0.0992242 -0.121224 0.992625 216.776 101.205)" fill="#685B5E" fill-opacity="0.99"/>
<ellipse cx="14.3277" cy="13.3247" rx="14.3277" ry="13.3247" transform="matrix(-0.995065 -0.0992242 -0.121224 0.992625 163.694 102.967)" fill="#685B5E" fill-opacity="0.99"/>
<ellipse cx="14.3277" cy="13.3247" rx="14.3277" ry="13.3247" transform="matrix(-0.995065 -0.0992242 -0.121224 0.992625 188.026 115.073)" fill="#685B5E" fill-opacity="0.99"/>
<ellipse cx="14.3277" cy="13.3247" rx="14.3277" ry="13.3247" transform="matrix(-0.995065 -0.0992242 -0.121224 0.992625 200.939 97.9524)" fill="#685B5E" fill-opacity="0.99"/>
<ellipse cx="14.3277" cy="13.3247" rx="14.3277" ry="13.3247" transform="matrix(-0.995065 -0.0992242 -0.121224 0.992625 204.539 83.251)" fill="#685B5E" fill-opacity="0.99"/>
<ellipse cx="14.3277" cy="13.3247" rx="14.3277" ry="13.3247" transform="matrix(-0.995065 -0.0992242 -0.121224 0.992625 191.695 70.2556)" fill="#685B5E" fill-opacity="0.99"/>
<ellipse cx="14.3277" cy="13.3247" rx="14.3277" ry="13.3247" transform="matrix(-0.995065 -0.0992242 -0.121224 0.992625 180.23 60.7454)" fill="#685B5E" fill-opacity="0.99"/>
<ellipse cx="14.3277" cy="13.3247" rx="14.3277" ry="13.3247" transform="matrix(-0.995065 -0.0992242 -0.121224 0.992625 187.087 93.2244)" fill="#685B5E" fill-opacity="0.99"/>
<ellipse cx="153.045" cy="43.7094" rx="11.6591" ry="10.8071" transform="rotate(-2.16804 153.045 43.7094)" fill="#685B5E" fill-opacity="0.99"/>
<ellipse cx="151.63" cy="53.7458" rx="11.6591" ry="10.8071" transform="rotate(-2.16804 151.63 53.7458)" fill="#685B5E" fill-opacity="0.99"/>
<ellipse cx="155.214" cy="53.61" rx="11.6591" ry="10.8071" transform="rotate(-2.16804 155.214 53.61)" fill="#685B5E" fill-opacity="0.99"/>
<ellipse cx="138.076" cy="27.6381" rx="11.6591" ry="10.8071" transform="rotate(-2.16804 138.076 27.6381)" fill="#685B5E" fill-opacity="0.99"/>
<ellipse cx="125.341" cy="23.1288" rx="11.6591" ry="10.8071" transform="rotate(-2.16804 125.341 23.1288)" fill="#685B5E" fill-opacity="0.99"/>
<ellipse cx="70.9082" cy="55.1381" rx="11.6591" ry="10.8071" transform="rotate(-2.16804 70.9082 55.1381)" fill="#685B5E" fill-opacity="0.99"/>
<ellipse cx="150.875" cy="33.8085" rx="11.6591" ry="10.8071" transform="rotate(-2.16804 150.875 33.8085)" fill="#685B5E" fill-opacity="0.99"/>
<ellipse cx="99.0832" cy="40.7612" rx="11.6591" ry="10.8071" transform="rotate(-2.16804 99.0832 40.7612)" fill="#685B5E" fill-opacity="0.99"/>
<ellipse cx="83.2034" cy="48.0168" rx="11.6591" ry="10.8071" transform="rotate(-2.16804 83.2034 48.0168)" fill="#685B5E" fill-opacity="0.99"/>
<ellipse cx="69.6189" cy="68.4975" rx="11.6591" ry="10.8071" transform="rotate(-2.16804 69.6189 68.4975)" fill="#685B5E" fill-opacity="0.99"/>
<ellipse cx="111.505" cy="36.9623" rx="11.6591" ry="10.8071" transform="rotate(-2.16804 111.505 36.9623)" fill="#685B5E" fill-opacity="0.99"/>
<ellipse cx="138.642" cy="42.5908" rx="11.6591" ry="10.8071" transform="rotate(-2.16804 138.642 42.5908)" fill="#685B5E" fill-opacity="0.99"/>
<ellipse cx="132.165" cy="61.1381" rx="11.6591" ry="10.8071" transform="rotate(-2.16804 132.165 61.1381)" fill="#685B5E" fill-opacity="0.99"/>
<ellipse cx="120.53" cy="38.2853" rx="11.6591" ry="10.8071" transform="rotate(-2.16804 120.53 38.2853)" fill="#685B5E" fill-opacity="0.99"/>
<ellipse cx="127.15" cy="47.1854" rx="7.17481" ry="6.65055" transform="rotate(-2.16804 127.15 47.1854)" fill="#685B5E" fill-opacity="0.99"/>
<ellipse cx="114.476" cy="44.3375" rx="7.17481" ry="6.65055" transform="rotate(-2.16804 114.476 44.3375)" fill="#685B5E" fill-opacity="0.99"/>
<ellipse cx="79.0685" cy="57.3248" rx="7.17481" ry="6.65055" transform="rotate(-2.16804 79.0685 57.3248)" fill="#685B5E" fill-opacity="0.99"/>
<ellipse cx="139.758" cy="48.3724" rx="7.17481" ry="6.65055" transform="rotate(-2.16804 139.758 48.3724)" fill="#685B5E" fill-opacity="0.99"/>
<ellipse cx="156.771" cy="71.0218" rx="7.17481" ry="6.65055" transform="rotate(-2.16804 156.771 71.0218)" fill="#685B5E" fill-opacity="0.99"/>
<ellipse cx="139.161" cy="80.0069" rx="7.17481" ry="6.65055" transform="rotate(-2.16804 139.161 80.0069)" fill="#685B5E" fill-opacity="0.99"/>
<ellipse cx="121.364" cy="84.0084" rx="7.17481" ry="6.65055" transform="rotate(-2.16804 121.364 84.0084)" fill="#685B5E" fill-opacity="0.99"/>
<ellipse cx="158.249" cy="62.6463" rx="7.17481" ry="6.65055" transform="rotate(-2.16804 158.249 62.6463)" fill="#685B5E" fill-opacity="0.99"/>
<ellipse cx="92.6847" cy="85.0946" rx="7.17481" ry="6.65055" transform="rotate(-2.16804 92.6847 85.0946)" fill="#685B5E" fill-opacity="0.99"/>
<ellipse cx="72.7162" cy="79.1952" rx="7.17481" ry="6.65055" transform="rotate(-2.16804 72.7162 79.1952)" fill="#685B5E" fill-opacity="0.99"/>
<ellipse cx="61.0807" cy="56.3421" rx="7.17481" ry="6.65055" transform="rotate(-2.16804 61.0807 56.3421)" fill="#685B5E" fill-opacity="0.99"/>
<ellipse cx="63.3143" cy="67.9044" rx="7.17481" ry="6.65055" transform="rotate(-2.16804 63.3143 67.9044)" fill="#685B5E" fill-opacity="0.99"/>
<ellipse cx="68.6755" cy="43.5759" rx="11.6591" ry="10.8071" transform="rotate(-2.16804 68.6755 43.5759)" fill="#685B5E" fill-opacity="0.99"/>
<ellipse cx="126.771" cy="37.2167" rx="12.5559" ry="11.6385" transform="rotate(-2.16804 126.771 37.2167)" fill="#685B5E" fill-opacity="0.99"/>
<ellipse cx="145.891" cy="68.1061" rx="12.5559" ry="11.6385" transform="rotate(-2.16804 145.891 68.1061)" fill="#685B5E" fill-opacity="0.99"/>
<ellipse cx="126.363" cy="73.8365" rx="12.5559" ry="11.6385" transform="rotate(-2.16804 126.363 73.8365)" fill="#685B5E" fill-opacity="0.99"/>
<ellipse cx="118.627" cy="59.1549" rx="12.5559" ry="11.6385" transform="rotate(-2.16804 118.627 59.1549)" fill="#685B5E" fill-opacity="0.99"/>
<ellipse cx="108.627" cy="79.4994" rx="12.5559" ry="11.6385" transform="rotate(-2.16804 108.627 79.4994)" fill="#685B5E" fill-opacity="0.99"/>
<ellipse cx="113.595" cy="21.0773" rx="14.3496" ry="13.3011" transform="rotate(-2.16804 113.595 21.0773)" fill="#685B5E" fill-opacity="0.99"/>
<ellipse cx="104.225" cy="58.0368" rx="14.3496" ry="13.3011" transform="rotate(-2.16804 104.225 58.0368)" fill="#685B5E" fill-opacity="0.99"/>
<ellipse cx="102.998" cy="73.0573" rx="14.3496" ry="13.3011" transform="rotate(-2.16804 102.998 73.0573)" fill="#685B5E" fill-opacity="0.99"/>
<ellipse cx="83.2818" cy="73.8036" rx="14.3496" ry="13.3011" transform="rotate(-2.16804 83.2818 73.8036)" fill="#685B5E" fill-opacity="0.99"/>
<ellipse cx="91.8665" cy="63.4958" rx="14.3496" ry="13.3011" transform="rotate(-2.16804 91.8665 63.4958)" fill="#685B5E" fill-opacity="0.99"/>
<ellipse cx="94.0674" cy="26.8085" rx="14.3496" ry="13.3011" transform="rotate(-2.16804 94.0674 26.8085)" fill="#685B5E" fill-opacity="0.99"/>
<ellipse cx="86.2378" cy="57.0539" rx="14.3496" ry="13.3011" transform="rotate(-2.16804 86.2378 57.0539)" fill="#685B5E" fill-opacity="0.99"/>
<circle cx="78.13" cy="38.1817" r="16.5999" transform="rotate(-2.16804 78.13 38.1817)" fill="#685B5E" fill-opacity="0.99"/>
<ellipse cx="161.923" cy="64.2692" rx="6.91554" ry="6.81085" transform="rotate(-2.16804 161.923 64.2692)" fill="#685B5E" fill-opacity="0.99"/>
<path d="M145.014 171.506C117.702 176.225 102.281 175.901 74.6467 172.215C73.3629 172.593 72.1461 179.443 71.3536 183.092C68.6717 195.439 150.176 191.611 148.232 183.114C147.112 178.22 145.834 170.9 145.014 171.506Z" fill="#685B5E" fill-opacity="0.99"/>
<path d="M99.1471 178.483L97.9025 187.888L95.5367 187.807L95.6105 187.249C95.3533 187.474 95.0921 187.64 94.8269 187.747C94.5617 187.855 94.2924 187.904 94.0191 187.895C93.6522 187.882 93.3466 187.777 93.1023 187.578C92.8585 187.375 92.7143 187.146 92.6695 186.892C92.6287 186.637 92.6459 186.226 92.7212 185.656L93.1986 182.049C93.277 181.457 93.3697 181.038 93.4767 180.793C93.5876 180.547 93.792 180.337 94.0898 180.16C94.3882 179.98 94.7268 179.896 95.1055 179.909C95.3983 179.919 95.6588 179.98 95.887 180.093C96.1191 180.206 96.3208 180.371 96.4923 180.587L96.7813 178.402L99.1471 178.483ZM96.3001 182.039C96.3375 181.756 96.3372 181.565 96.2993 181.467C96.2653 181.368 96.176 181.317 96.0316 181.312C95.891 181.307 95.7895 181.348 95.727 181.436C95.6688 181.519 95.6198 181.712 95.5798 182.014L95.0801 185.79C95.0386 186.103 95.0346 186.311 95.0681 186.414C95.1022 186.512 95.1856 186.564 95.3183 186.568C95.4705 186.573 95.5792 186.523 95.6443 186.416C95.7099 186.305 95.7712 186.035 95.8281 185.605L96.3001 182.039Z" fill="#685B5E" fill-opacity="0.99"/>
<path d="M104.944 180.593L104.876 182.314L102.951 186.814L104.697 186.805L104.635 188.362L100.598 188.383L100.663 186.755L102.632 182.162L101.027 182.17L101.089 180.613L104.944 180.593ZM102.937 179.198L103.618 178.428L105.206 178.42L103.728 180.078L102.076 180.087L100.636 178.443L102.276 178.435L102.937 179.198Z" fill="#685B5E" fill-opacity="0.99"/>
<path d="M111.613 184.388L108.549 184.357L108.422 186.034C108.396 186.384 108.404 186.611 108.448 186.712C108.491 186.814 108.585 186.866 108.729 186.867C108.909 186.869 109.033 186.804 109.101 186.672C109.174 186.536 109.225 186.276 109.254 185.89L109.331 184.868L111.575 184.89L111.532 185.463C111.496 185.942 111.437 186.31 111.355 186.566C111.277 186.823 111.116 187.096 110.871 187.386C110.627 187.676 110.327 187.893 109.972 188.037C109.621 188.178 109.188 188.246 108.673 188.241C108.173 188.236 107.737 188.159 107.365 188.011C106.993 187.863 106.709 187.664 106.513 187.412C106.321 187.157 106.195 186.879 106.136 186.578C106.077 186.273 106.069 185.833 106.112 185.256L106.282 182.995C106.334 182.317 106.466 181.785 106.678 181.397C106.892 181.005 107.215 180.708 107.649 180.506C108.082 180.3 108.571 180.2 109.114 180.205C109.778 180.212 110.315 180.344 110.726 180.601C111.14 180.855 111.418 181.191 111.558 181.61C111.703 182.024 111.747 182.607 111.691 183.359L111.613 184.388ZM109.335 183.102L109.378 182.535C109.408 182.134 109.406 181.875 109.372 181.757C109.338 181.64 109.254 181.581 109.122 181.579C108.957 181.578 108.852 181.627 108.805 181.728C108.759 181.825 108.719 182.092 108.687 182.528L108.644 183.095L109.335 183.102Z" fill="#685B5E" fill-opacity="0.99"/>
<path d="M115.37 179.086L115.407 180.322L112.971 180.406L112.934 179.17L115.37 179.086ZM115.422 180.796L115.608 186.945C115.63 187.668 115.629 188.158 115.606 188.417C115.586 188.672 115.503 188.897 115.357 189.094C115.214 189.294 115.018 189.446 114.767 189.548C114.52 189.651 114.144 189.711 113.641 189.728L112.727 189.76L112.69 188.518C112.971 188.508 113.128 188.472 113.161 188.408C113.194 188.344 113.2 187.953 113.178 187.235L112.986 180.88L115.422 180.796Z" fill="#685B5E" fill-opacity="0.99"/>
<path d="M193.874 134.133C201.793 129.675 207.32 124.321 207.408 118.575C207.512 111.799 204.259 103.549 194.083 103.584C192.204 103.591 185.558 105.533 186.93 107.345C187.474 108.063 190.03 106.384 190.864 105.698C194.895 102.377 195.226 99.2453 194.698 96.521C193.808 91.9302 191.925 84.0697 183.461 85.1054C181.365 85.3618 179.133 85.645 176.961 86.8678C176.614 87.0629 173.7 89.1499 175.208 88.8113C182.217 87.2386 181.092 80.6156 180.329 78.6621C178.71 74.5153 173.956 71.7806 166.734 72.5263" stroke="#685B5E" stroke-opacity="0.99" stroke-linecap="round"/>
<path d="M46.033 155.786C48.8593 156.21 50.0454 157.279 53.3301 156.862C57.6253 156.316 60.0667 154.915 63.2765 152.322C65.6363 150.416 73.6931 143.005 69.6859 139.805C68.4648 138.83 62.2006 136.015 62.2568 138.896C62.3396 143.133 70.2643 140.526 72.31 138.44C74.6642 136.039 76.295 132.959 76.6867 129.867C77.0859 126.716 77.9645 121.836 76.2539 118.786C74.6087 115.852 69.319 112.66 65.4002 114.262C64.7652 114.522 64.899 115.21 65.5041 115.428C67.9743 116.314 69.7626 116.083 72.3399 115.043C76.2536 113.464 77.556 109.114 77.6492 105.749C77.7025 103.828 76.6343 102.253 76.5995 100.472" stroke="#685B5E" stroke-opacity="0.99" stroke-linecap="round"/>
<path d="M164.258 66.8144C160.679 69.4772 152.808 76.0384 149.732 76.88C146.261 77.8299 141.976 75.9581 145.804 71.7814C147.632 69.787 149.509 68.1391 150.11 69.0856C150.645 69.9299 139.883 77.5536 137.759 78.9264C132.115 82.5742 127.639 83.945 126.088 82.9089C124.997 82.1796 126.457 79.7051 130.574 76.6413C130.915 76.3881 132.273 75.3075 132.012 75.8062C131.515 76.7533 126.131 80.4211 124.891 81.3389C119.11 85.6163 115.979 87.3509 113.476 87.0196" stroke="#685B5E" stroke-opacity="0.99" stroke-linecap="round"/>
<path d="M120.357 17.4323C107.932 17.9027 85.7315 16.8326 86.2145 29.5918C86.2741 31.1638 86.3323 32.5847 88.5598 33.3563C89.2307 33.5887 92.8441 35.4454 92.804 34.3876C92.6961 31.5366 87.1442 31.5928 84.2946 31.7713C79.2426 32.0877 75.8714 36.5076 74.6542 39.4825C72.5666 44.5846 70.7603 51.6916 79.2015 53.8088C81.6193 54.4152 77.0593 53.1752 76.6085 53.0199C74.0679 52.1441 70.468 51.8677 67.6145 52.4178C60.8949 53.7133 62.106 62.7889 63.0827 66.0067" stroke="#685B5E" stroke-opacity="0.99" stroke-linecap="round"/>
<path d="M154.795 67.8457C164.14 100.673 148.526 118.817 144.938 149.896C140.53 188.085 164.254 234.948 175.342 274L60.149 274C70.0578 233.107 90.7543 186.652 89.1153 152.009C87.7272 122.672 62.7245 95.3406 77.9373 70.7553C96.8547 40.1832 145.451 35.0183 154.795 67.8457Z" fill="#E9DCD5"/>
<path d="M156.713 67.5781C165.142 100.44 151.37 118.514 148.322 149.573C144.569 187.807 165.895 234.865 175.873 274L73.5005 274C82.052 232.985 100.429 186.29 98.8182 151.447C97.4615 122.109 75.1683 94.6745 88.5561 70.1583C105.204 39.6721 148.285 34.716 156.713 67.5781Z" fill="#E1CFC5"/>
<path d="M111.342 103.99C111.399 107.618 109.142 110.595 106.299 110.641C103.456 110.686 101.104 107.782 101.046 104.154C100.989 100.526 103.247 97.5484 106.09 97.5032C108.933 97.458 111.284 100.362 111.342 103.99Z" fill="#54494B"/>
<ellipse cx="130.896" cy="103.589" rx="5.14833" ry="6.56952" transform="rotate(-0.911427 130.896 103.589)" fill="#54494B"/>
<path d="M110.678 103.103C110.678 103.103 87.1498 148.976 104.501 160.745C110.847 165.05 114.751 150.244 114.751 150.244C114.751 150.244 116.818 160.793 122.916 161.896C141.85 165.321 127.097 104.129 127.097 104.129" stroke="#54494B"/>
<path d="M115.26 148.833C115.26 148.833 112.402 145.561 111.267 143.977C108.729 140.436 123.609 141.365 120.853 144.576C119.11 146.607 115.26 148.833 115.26 148.833Z" fill="#54494B" stroke="#54494B"/>
<g filter="url(#filter0_d_241_752)">
<circle cx="86.1749" cy="144.029" r="6.5742" transform="rotate(-2.16804 86.1749 144.029)" fill="#E9DCD5"/>
<circle cx="62.099" cy="159.742" r="6.5742" transform="rotate(-2.16804 62.099 159.742)" fill="#E9DCD5"/>
<circle cx="40.1888" cy="145.769" r="6.5742" transform="rotate(-2.16804 40.1888 145.769)" fill="#E9DCD5"/>
<circle cx="82.0196" cy="121.159" r="6.5742" transform="rotate(-2.16804 82.0196 121.159)" fill="#E9DCD5"/>
<circle cx="85.056" cy="114.466" r="6.5742" transform="rotate(-2.16804 85.056 114.466)" fill="#E9DCD5"/>
<circle cx="82.5431" cy="91.5344" r="6.5742" transform="rotate(-2.16804 82.5431 91.5344)" fill="#E9DCD5"/>
<circle cx="39.7536" cy="134.273" r="13.1484" transform="rotate(-2.16804 39.7536 134.273)" fill="#E9DCD5"/>
<circle cx="51.8095" cy="148.619" r="13.1484" transform="rotate(-2.16804 51.8095 148.619)" fill="#E9DCD5"/>
<circle cx="74.8644" cy="149.391" r="13.1484" transform="rotate(-2.16804 74.8644 149.391)" fill="#E9DCD5"/>
<circle cx="79.1703" cy="132.78" r="13.1484" transform="rotate(-2.16804 79.1703 132.78)" fill="#E9DCD5"/>
<circle cx="73.6217" cy="116.543" r="13.1484" transform="rotate(-2.16804 73.6217 116.543)" fill="#E9DCD5"/>
<circle cx="78.0512" cy="103.218" r="13.1484" transform="rotate(-2.16804 78.0512 103.218)" fill="#E9DCD5"/>
<circle cx="72.5021" cy="86.9809" r="13.1484" transform="rotate(-2.16804 72.5021 86.9809)" fill="#E9DCD5"/>
<circle cx="32.5627" cy="118.097" r="13.1484" transform="rotate(-2.16804 32.5627 118.097)" fill="#E9DCD5"/>
<circle cx="57.8197" cy="133.588" r="13.1484" transform="rotate(-2.16804 57.8197 133.588)" fill="#E9DCD5"/>
<circle cx="47.2814" cy="115.896" r="13.1484" transform="rotate(-2.16804 47.2814 115.896)" fill="#E9DCD5"/>
<circle cx="45.0795" cy="101.176" r="13.1484" transform="rotate(-2.16804 45.0795 101.176)" fill="#E9DCD5"/>
<circle cx="57.7829" cy="89.1826" r="13.1484" transform="rotate(-2.16804 57.7829 89.1826)" fill="#E9DCD5"/>
<circle cx="68.9687" cy="80.5351" r="13.1484" transform="rotate(-2.16804 68.9687 80.5351)" fill="#E9DCD5"/>
<circle cx="60.2958" cy="112.113" r="13.1484" transform="rotate(-2.16804 60.2958 112.113)" fill="#E9DCD5"/>
</g>
<ellipse cx="86.945" cy="143.999" rx="5.80371" ry="6.5742" transform="rotate(-2.16804 86.945 143.999)" fill="#D1BBAD"/>
<ellipse cx="65.7575" cy="159.603" rx="5.80371" ry="6.5742" transform="rotate(-2.16804 65.7575 159.603)" fill="#D1BBAD"/>
<ellipse cx="46.3495" cy="145.536" rx="5.80371" ry="6.5742" transform="rotate(-2.16804 46.3495 145.536)" fill="#D1BBAD"/>
<ellipse cx="83.1755" cy="121.115" rx="5.80371" ry="6.5742" transform="rotate(-2.16804 83.1755 121.115)" fill="#D1BBAD"/>
<ellipse cx="85.8266" cy="114.436" rx="5.80371" ry="6.5742" transform="rotate(-2.16804 85.8266 114.436)" fill="#D1BBAD"/>
<ellipse cx="83.5065" cy="91.4979" rx="5.80371" ry="6.5742" transform="rotate(-2.16804 83.5065 91.4979)" fill="#D1BBAD"/>
<ellipse cx="45.9139" cy="134.039" rx="11.6074" ry="13.1484" transform="rotate(-2.16804 45.9139 134.039)" fill="#D1BBAD"/>
<ellipse cx="56.6229" cy="148.436" rx="11.6074" ry="13.1484" transform="rotate(-2.16804 56.6229 148.436)" fill="#D1BBAD"/>
<ellipse cx="76.9835" cy="149.31" rx="11.6074" ry="13.1484" transform="rotate(-2.16804 76.9835 149.31)" fill="#D1BBAD"/>
<ellipse cx="80.7113" cy="132.722" rx="11.6074" ry="13.1484" transform="rotate(-2.16804 80.7113 132.722)" fill="#D1BBAD"/>
<ellipse cx="75.7398" cy="116.462" rx="11.6074" ry="13.1484" transform="rotate(-2.16804 75.7398 116.462)" fill="#D1BBAD"/>
<ellipse cx="79.5916" cy="103.159" rx="11.6074" ry="13.1484" transform="rotate(-2.16804 79.5916 103.159)" fill="#D1BBAD"/>
<ellipse cx="74.6202" cy="86.8998" rx="11.6074" ry="13.1484" transform="rotate(-2.16804 74.6202 86.8998)" fill="#D1BBAD"/>
<ellipse cx="39.4925" cy="117.835" rx="11.6074" ry="13.1484" transform="rotate(-2.16804 39.4925 117.835)" fill="#D1BBAD"/>
<ellipse cx="61.8621" cy="133.435" rx="11.6074" ry="13.1484" transform="rotate(-2.16804 61.8621 133.435)" fill="#D1BBAD"/>
<ellipse cx="52.4793" cy="115.698" rx="11.6074" ry="13.1484" transform="rotate(-2.16804 52.4793 115.698)" fill="#D1BBAD"/>
<ellipse cx="50.4703" cy="100.972" rx="11.6074" ry="13.1484" transform="rotate(-2.16804 50.4703 100.972)" fill="#D1BBAD"/>
<ellipse cx="61.6334" cy="89.0368" rx="11.6074" ry="13.1484" transform="rotate(-2.16804 61.6334 89.0368)" fill="#D1BBAD"/>
<ellipse cx="71.472" cy="80.4404" rx="11.6074" ry="13.1484" transform="rotate(-2.16804 71.472 80.4404)" fill="#D1BBAD"/>
<ellipse cx="63.9544" cy="111.975" rx="11.6074" ry="13.1484" transform="rotate(-2.16804 63.9544 111.975)" fill="#D1BBAD"/>
<g filter="url(#filter1_d_241_752)">
<circle cx="163.916" cy="68.717" r="6.5742" transform="rotate(-2.16804 163.916 68.717)" fill="#E9DCD5"/>
<circle cx="6.5742" cy="6.5742" r="6.5742" transform="matrix(-0.99395 -0.109832 -0.109832 0.99395 151.708 133.279)" fill="#E9DCD5"/>
<circle cx="6.5742" cy="6.5742" r="6.5742" transform="matrix(-0.99395 -0.109832 -0.109832 0.99395 174.587 150.688)" fill="#E9DCD5"/>
<circle cx="6.5742" cy="6.5742" r="6.5742" transform="matrix(-0.99395 -0.109832 -0.109832 0.99395 197.449 138.333)" fill="#E9DCD5"/>
<circle cx="6.5742" cy="6.5742" r="6.5742" transform="matrix(-0.99395 -0.109832 -0.109832 0.99395 157.502 110.769)" fill="#E9DCD5"/>
<circle cx="6.5742" cy="6.5742" r="6.5742" transform="matrix(-0.99395 -0.109832 -0.109832 0.99395 154.957 103.873)" fill="#E9DCD5"/>
<circle cx="6.5742" cy="6.5742" r="6.5742" transform="matrix(-0.99395 -0.109832 -0.109832 0.99395 159.117 81.1831)" fill="#E9DCD5"/>
<circle cx="6.5742" cy="6.5742" r="6.5742" transform="matrix(-0.99395 -0.109832 -0.109832 0.99395 160.331 81.2275)" fill="#E9DCD5"/>
<circle cx="13.1484" cy="13.1484" r="13.1484" transform="matrix(-0.99395 -0.109832 -0.109832 0.99395 205.969 121.085)" fill="#E9DCD5"/>
<circle cx="13.1484" cy="13.1484" r="13.1484" transform="matrix(-0.99395 -0.109832 -0.109832 0.99395 192.908 134.524)" fill="#E9DCD5"/>
<circle cx="13.1484" cy="13.1484" r="13.1484" transform="matrix(-0.99395 -0.109832 -0.109832 0.99395 169.857 133.631)" fill="#E9DCD5"/>
<circle cx="13.1484" cy="13.1484" r="13.1484" transform="matrix(-0.99395 -0.109832 -0.109832 0.99395 166.762 116.753)" fill="#E9DCD5"/>
<circle cx="13.1484" cy="13.1484" r="13.1484" transform="matrix(-0.99395 -0.109832 -0.109832 0.99395 173.468 100.958)" fill="#E9DCD5"/>
<circle cx="13.1484" cy="13.1484" r="13.1484" transform="matrix(-0.99395 -0.109832 -0.109832 0.99395 170.011 87.3477)" fill="#E9DCD5"/>
<circle cx="13.1484" cy="13.1484" r="13.1484" transform="matrix(-0.99395 -0.109832 -0.109832 0.99395 176.716 71.5537)" fill="#E9DCD5"/>
<circle cx="13.1484" cy="13.1484" r="13.1484" transform="matrix(-0.99395 -0.109832 -0.109832 0.99395 214.307 105.471)" fill="#E9DCD5"/>
<circle cx="13.1484" cy="13.1484" r="13.1484" transform="matrix(-0.99395 -0.109832 -0.109832 0.99395 165.669 107.067)" fill="#E9DCD5"/>
<circle cx="13.1484" cy="13.1484" r="13.1484" transform="matrix(-0.99395 -0.109832 -0.109832 0.99395 187.999 119.099)" fill="#E9DCD5"/>
<circle cx="13.1484" cy="13.1484" r="13.1484" transform="matrix(-0.99395 -0.109832 -0.109832 0.99395 199.786 102.213)" fill="#E9DCD5"/>
<circle cx="13.1484" cy="13.1484" r="13.1484" transform="matrix(-0.99395 -0.109832 -0.109832 0.99395 203.044 87.6912)" fill="#E9DCD5"/>
<circle cx="13.1484" cy="13.1484" r="13.1484" transform="matrix(-0.99395 -0.109832 -0.109832 0.99395 191.239 74.8115)" fill="#E9DCD5"/>
<circle cx="13.1484" cy="13.1484" r="13.1484" transform="matrix(-0.99395 -0.109832 -0.109832 0.99395 180.706 65.3799)" fill="#E9DCD5"/>
<circle cx="13.1484" cy="13.1484" r="13.1484" transform="matrix(-0.99395 -0.109832 -0.109832 0.99395 187.078 97.502)" fill="#E9DCD5"/>
</g>
<ellipse cx="167.063" cy="68.598" rx="6.15149" ry="6.5742" transform="rotate(-2.16804 167.063 68.598)" fill="#D1BBAD"/>
<ellipse cx="6.16097" cy="6.56531" rx="6.16097" ry="6.56531" transform="matrix(-0.992802 -0.119766 -0.1005 0.994937 155.795 133.124)" fill="#D1BBAD"/>
<ellipse cx="6.16097" cy="6.56531" rx="6.16097" ry="6.56531" transform="matrix(-0.992802 -0.119766 -0.1005 0.994937 177.247 150.588)" fill="#D1BBAD"/>
<ellipse cx="6.16097" cy="6.56531" rx="6.16097" ry="6.56531" transform="matrix(-0.992802 -0.119766 -0.1005 0.994937 198.611 138.289)" fill="#D1BBAD"/>
<ellipse cx="6.16097" cy="6.56531" rx="6.16097" ry="6.56531" transform="matrix(-0.992802 -0.119766 -0.1005 0.994937 161.163 110.631)" fill="#D1BBAD"/>
<ellipse cx="6.16097" cy="6.56531" rx="6.16097" ry="6.56531" transform="matrix(-0.992802 -0.119766 -0.1005 0.994937 158.764 103.729)" fill="#D1BBAD"/>
<ellipse cx="6.16097" cy="6.56531" rx="6.16097" ry="6.56531" transform="matrix(-0.992802 -0.119766 -0.1005 0.994937 162.602 81.0515)" fill="#D1BBAD"/>
<ellipse cx="6.16097" cy="6.56531" rx="6.16097" ry="6.56531" transform="matrix(-0.992802 -0.119766 -0.1005 0.994937 163.738 81.0986)" fill="#D1BBAD"/>
<ellipse cx="12.3219" cy="13.1306" rx="12.3219" ry="13.1306" transform="matrix(-0.992802 -0.119766 -0.1005 0.994937 206.542 121.064)" fill="#D1BBAD"/>
<ellipse cx="12.3219" cy="13.1306" rx="12.3219" ry="13.1306" transform="matrix(-0.992802 -0.119766 -0.1005 0.994937 194.354 134.47)" fill="#D1BBAD"/>
<ellipse cx="12.3219" cy="13.1306" rx="12.3219" ry="13.1306" transform="matrix(-0.992802 -0.119766 -0.1005 0.994937 172.781 133.521)" fill="#D1BBAD"/>
<ellipse cx="12.3219" cy="13.1306" rx="12.3219" ry="13.1306" transform="matrix(-0.992802 -0.119766 -0.1005 0.994937 169.843 116.637)" fill="#D1BBAD"/>
<ellipse cx="12.3219" cy="13.1306" rx="12.3219" ry="13.1306" transform="matrix(-0.992802 -0.119766 -0.1005 0.994937 176.079 100.86)" fill="#D1BBAD"/>
<ellipse cx="12.3219" cy="13.1306" rx="12.3219" ry="13.1306" transform="matrix(-0.992802 -0.119766 -0.1005 0.994937 172.812 87.2419)" fill="#D1BBAD"/>
<ellipse cx="12.3219" cy="13.1306" rx="12.3219" ry="13.1306" transform="matrix(-0.992802 -0.119766 -0.1005 0.994937 179.049 71.4656)" fill="#D1BBAD"/>
<ellipse cx="12.3219" cy="13.1306" rx="12.3219" ry="13.1306" transform="matrix(-0.992802 -0.119766 -0.1005 0.994937 214.308 105.471)" fill="#D1BBAD"/>
<ellipse cx="12.3219" cy="13.1306" rx="12.3219" ry="13.1306" transform="matrix(-0.992802 -0.119766 -0.1005 0.994937 168.796 106.95)" fill="#D1BBAD"/>
<ellipse cx="12.3219" cy="13.1306" rx="12.3219" ry="13.1306" transform="matrix(-0.992802 -0.119766 -0.1005 0.994937 189.722 119.035)" fill="#D1BBAD"/>
<ellipse cx="12.3219" cy="13.1306" rx="12.3219" ry="13.1306" transform="matrix(-0.992802 -0.119766 -0.1005 0.994937 200.711 102.178)" fill="#D1BBAD"/>
<ellipse cx="12.3219" cy="13.1306" rx="12.3219" ry="13.1306" transform="matrix(-0.992802 -0.119766 -0.1005 0.994937 203.724 87.6655)" fill="#D1BBAD"/>
<ellipse cx="12.3219" cy="13.1306" rx="12.3219" ry="13.1306" transform="matrix(-0.992802 -0.119766 -0.1005 0.994937 192.646 74.7588)" fill="#D1BBAD"/>
<ellipse cx="12.3219" cy="13.1306" rx="12.3219" ry="13.1306" transform="matrix(-0.992802 -0.119766 -0.1005 0.994937 182.767 65.3025)" fill="#D1BBAD"/>
<ellipse cx="12.3219" cy="13.1306" rx="12.3219" ry="13.1306" transform="matrix(-0.992802 -0.119766 -0.1005 0.994937 188.808 97.4368)" fill="#D1BBAD"/>
<g filter="url(#filter2_d_241_752)">
<circle cx="155.749" cy="48.4666" r="10.6831" transform="rotate(-2.16804 155.749 48.4666)" fill="#E9DCD5"/>
<circle cx="154.479" cy="58.3831" r="10.6831" transform="rotate(-2.16804 154.479 58.3831)" fill="#E9DCD5"/>
<circle cx="157.764" cy="58.2583" r="10.6831" transform="rotate(-2.16804 157.764 58.2583)" fill="#E9DCD5"/>
<circle cx="141.988" cy="32.5401" r="10.6831" transform="rotate(-2.16804 141.988 32.5401)" fill="#E9DCD5"/>
<circle cx="130.304" cy="28.0484" r="10.6831" transform="rotate(-2.16804 130.304 28.0484)" fill="#E9DCD5"/>
<circle cx="80.5102" cy="59.5384" r="10.6831" transform="rotate(-2.16804 80.5102 59.5384)" fill="#E9DCD5"/>
<circle cx="153.733" cy="38.6746" r="10.6831" transform="rotate(-2.16804 153.733 38.6746)" fill="#E9DCD5"/>
<circle cx="106.291" cy="45.4051" r="10.6831" transform="rotate(-2.16804 106.291 45.4051)" fill="#E9DCD5"/>
<circle cx="91.758" cy="52.5337" r="10.6831" transform="rotate(-2.16804 91.758 52.5337)" fill="#E9DCD5"/>
<circle cx="79.365" cy="72.74" r="10.6831" transform="rotate(-2.16804 79.365 72.74)" fill="#E9DCD5"/>
<circle cx="117.663" cy="41.6849" r="10.6831" transform="rotate(-2.16804 117.663 41.6849)" fill="#E9DCD5"/>
<circle cx="142.547" cy="47.3216" r="10.6831" transform="rotate(-2.16804 142.547 47.3216)" fill="#E9DCD5"/>
<circle cx="136.662" cy="65.6365" r="10.6831" transform="rotate(-2.16804 136.662 65.6365)" fill="#E9DCD5"/>
<circle cx="125.937" cy="43.0162" r="10.6831" transform="rotate(-2.16804 125.937 43.0162)" fill="#E9DCD5"/>
<circle cx="132.028" cy="51.8318" r="6.5742" transform="rotate(-2.16804 132.028 51.8318)" fill="#E9DCD5"/>
<circle cx="120.406" cy="48.9822" r="6.5742" transform="rotate(-2.16804 120.406 48.9822)" fill="#E9DCD5"/>
<circle cx="87.9947" cy="61.7224" r="6.5742" transform="rotate(-2.16804 87.9947 61.7224)" fill="#E9DCD5"/>
<circle cx="143.586" cy="53.0391" r="6.5742" transform="rotate(-2.16804 143.586 53.0391)" fill="#E9DCD5"/>
<circle cx="159.238" cy="75.4726" r="6.5742" transform="rotate(-2.16804 159.238 75.4726)" fill="#E9DCD5"/>
<circle cx="143.125" cy="84.3059" r="6.5742" transform="rotate(-2.16804 143.125 84.3059)" fill="#E9DCD5"/>
<circle cx="126.826" cy="88.2129" r="6.5742" transform="rotate(-2.16804 126.826 88.2129)" fill="#E9DCD5"/>
<circle cx="160.57" cy="67.1987" r="6.5742" transform="rotate(-2.16804 160.57 67.1987)" fill="#E9DCD5"/>
<circle cx="100.547" cy="89.2073" r="6.5742" transform="rotate(-2.16804 100.547 89.2073)" fill="#E9DCD5"/>
<circle cx="82.2325" cy="83.3223" r="6.5742" transform="rotate(-2.16804 82.2325 83.3223)" fill="#E9DCD5"/>
<circle cx="71.5079" cy="60.7019" r="6.5742" transform="rotate(-2.16804 71.5079 60.7019)" fill="#E9DCD5"/>
<circle cx="73.5863" cy="72.1365" r="6.5742" transform="rotate(-2.16804 73.5863 72.1365)" fill="#E9DCD5"/>
<circle cx="78.4326" cy="48.1038" r="10.6831" transform="rotate(-2.16804 78.4326 48.1038)" fill="#E9DCD5"/>
<circle cx="131.654" cy="41.9776" r="11.5049" transform="rotate(-2.16804 131.654 41.9776)" fill="#E9DCD5"/>
<circle cx="149.259" cy="72.5611" r="11.5049" transform="rotate(-2.16804 149.259 72.5611)" fill="#E9DCD5"/>
<circle cx="131.38" cy="78.1717" r="11.5049" transform="rotate(-2.16804 131.38 78.1717)" fill="#E9DCD5"/>
<circle cx="124.251" cy="63.639" r="11.5049" transform="rotate(-2.16804 124.251 63.639)" fill="#E9DCD5"/>
<circle cx="115.143" cy="83.7206" r="11.5049" transform="rotate(-2.16804 115.143 83.7206)" fill="#E9DCD5"/>
<circle cx="119.536" cy="25.9887" r="13.1484" transform="rotate(-2.16804 119.536 25.9887)" fill="#E9DCD5"/>
<circle cx="111.049" cy="62.4941" r="13.1484" transform="rotate(-2.16804 111.049 62.4941)" fill="#E9DCD5"/>
<circle cx="109.967" cy="77.3376" r="13.1484" transform="rotate(-2.16804 109.967 77.3376)" fill="#E9DCD5"/>
<circle cx="91.9008" cy="78.0217" r="13.1484" transform="rotate(-2.16804 91.9008 78.0217)" fill="#E9DCD5"/>
<circle cx="99.7392" cy="67.8564" r="13.1484" transform="rotate(-2.16804 99.7392 67.8564)" fill="#E9DCD5"/>
<circle cx="101.656" cy="31.5998" r="13.1484" transform="rotate(-2.16804 101.656 31.5998)" fill="#E9DCD5"/>
<circle cx="94.5641" cy="61.4736" r="13.1484" transform="rotate(-2.16804 94.5641 61.4736)" fill="#E9DCD5"/>
<circle cx="89.1784" cy="43.0533" r="16.5999" transform="rotate(-2.16804 89.1784 43.0533)" fill="#E9DCD5"/>
</g>
<g filter="url(#filter3_d_241_752)">
<ellipse cx="156.283" cy="51.3107" rx="10.3132" ry="9.67919" transform="rotate(-2.16804 156.283 51.3107)" fill="#D1BBAD"/>
<ellipse cx="155.035" cy="60.2992" rx="10.3132" ry="9.67919" transform="rotate(-2.16804 155.035 60.2992)" fill="#D1BBAD"/>
<ellipse cx="158.206" cy="60.1796" rx="10.3132" ry="9.67919" transform="rotate(-2.16804 158.206 60.1796)" fill="#D1BBAD"/>
<ellipse cx="143.036" cy="36.9108" rx="10.3132" ry="9.67919" transform="rotate(-2.16804 143.036 36.9108)" fill="#D1BBAD"/>
<ellipse cx="131.768" cy="32.8666" rx="10.3132" ry="9.67919" transform="rotate(-2.16804 131.768 32.8666)" fill="#D1BBAD"/>
<ellipse cx="83.6308" cy="61.5118" rx="10.3132" ry="9.67919" transform="rotate(-2.16804 83.6308 61.5118)" fill="#D1BBAD"/>
<ellipse cx="154.36" cy="42.4427" rx="10.3132" ry="9.67919" transform="rotate(-2.16804 154.36 42.4427)" fill="#D1BBAD"/>
<ellipse cx="108.549" cy="48.6473" rx="10.3132" ry="9.67919" transform="rotate(-2.16804 108.549 48.6473)" fill="#D1BBAD"/>
<ellipse cx="94.5046" cy="55.1398" rx="10.3132" ry="9.67919" transform="rotate(-2.16804 94.5046 55.1398)" fill="#D1BBAD"/>
<ellipse cx="82.4963" cy="73.4769" rx="10.3132" ry="9.67919" transform="rotate(-2.16804 82.4963 73.4769)" fill="#D1BBAD"/>
<ellipse cx="119.535" cy="45.2513" rx="10.3132" ry="9.67919" transform="rotate(-2.16804 119.535 45.2513)" fill="#D1BBAD"/>
<ellipse cx="143.542" cy="50.3026" rx="10.3132" ry="9.67919" transform="rotate(-2.16804 143.542 50.3026)" fill="#D1BBAD"/>
<ellipse cx="137.82" cy="66.9113" rx="10.3132" ry="9.67919" transform="rotate(-2.16804 137.82 66.9113)" fill="#D1BBAD"/>
<ellipse cx="127.518" cy="46.4391" rx="10.3132" ry="9.67919" transform="rotate(-2.16804 127.518 46.4391)" fill="#D1BBAD"/>
<ellipse cx="133.378" cy="54.4135" rx="6.34661" ry="5.95642" transform="rotate(-2.16804 133.378 54.4135)" fill="#D1BBAD"/>
<ellipse cx="122.166" cy="51.8576" rx="6.34661" ry="5.95642" transform="rotate(-2.16804 122.166 51.8576)" fill="#D1BBAD"/>
<ellipse cx="90.8506" cy="63.474" rx="6.34661" ry="5.95642" transform="rotate(-2.16804 90.8506 63.474)" fill="#D1BBAD"/>
<ellipse cx="144.532" cy="55.4806" rx="6.34661" ry="5.95642" transform="rotate(-2.16804 144.532 55.4806)" fill="#D1BBAD"/>
<ellipse cx="159.591" cy="75.7733" rx="6.34661" ry="5.95642" transform="rotate(-2.16804 159.591 75.7733)" fill="#D1BBAD"/>
<ellipse cx="144.017" cy="83.8136" rx="6.34661" ry="5.95642" transform="rotate(-2.16804 144.017 83.8136)" fill="#D1BBAD"/>
<ellipse cx="128.275" cy="87.3903" rx="6.34661" ry="5.95642" transform="rotate(-2.16804 128.275 87.3903)" fill="#D1BBAD"/>
<ellipse cx="160.895" cy="68.2733" rx="6.34661" ry="5.95642" transform="rotate(-2.16804 160.895 68.2733)" fill="#D1BBAD"/>
<ellipse cx="102.906" cy="88.351" rx="6.34661" ry="5.95642" transform="rotate(-2.16804 102.906 88.351)" fill="#D1BBAD"/>
<ellipse cx="85.2405" cy="83.0583" rx="6.34661" ry="5.95642" transform="rotate(-2.16804 85.2405 83.0583)" fill="#D1BBAD"/>
<ellipse cx="74.9387" cy="62.5863" rx="6.34661" ry="5.95642" transform="rotate(-2.16804 74.9387 62.5863)" fill="#D1BBAD"/>
<ellipse cx="76.918" cy="72.9423" rx="6.34661" ry="5.95642" transform="rotate(-2.16804 76.918 72.9423)" fill="#D1BBAD"/>
<ellipse cx="81.6508" cy="51.1559" rx="10.3132" ry="9.67919" transform="rotate(-2.16804 81.6508 51.1559)" fill="#D1BBAD"/>
<ellipse cx="133.04" cy="45.4849" rx="11.1066" ry="10.4237" transform="rotate(-2.16804 133.04 45.4849)" fill="#D1BBAD"/>
<ellipse cx="149.966" cy="73.1575" rx="11.1066" ry="10.4237" transform="rotate(-2.16804 149.966 73.1575)" fill="#D1BBAD"/>
<ellipse cx="132.694" cy="78.282" rx="11.1066" ry="10.4237" transform="rotate(-2.16804 132.694 78.282)" fill="#D1BBAD"/>
<ellipse cx="125.844" cy="65.1297" rx="11.1066" ry="10.4237" transform="rotate(-2.16804 125.844 65.1297)" fill="#D1BBAD"/>
<ellipse cx="117.007" cy="83.3462" rx="11.1066" ry="10.4237" transform="rotate(-2.16804 117.007 83.3462)" fill="#D1BBAD"/>
<ellipse cx="121.377" cy="31.0245" rx="12.6932" ry="11.9128" transform="rotate(-2.16804 121.377 31.0245)" fill="#D1BBAD"/>
<ellipse cx="113.104" cy="64.1219" rx="12.6932" ry="11.9128" transform="rotate(-2.16804 113.104 64.1219)" fill="#D1BBAD"/>
<ellipse cx="112.026" cy="77.574" rx="12.6932" ry="11.9128" transform="rotate(-2.16804 112.026 77.574)" fill="#D1BBAD"/>
<ellipse cx="94.5853" cy="78.2349" rx="12.6932" ry="11.9128" transform="rotate(-2.16804 94.5853 78.2349)" fill="#D1BBAD"/>
<ellipse cx="102.174" cy="69.0054" rx="12.6932" ry="11.9128" transform="rotate(-2.16804 102.174 69.0054)" fill="#D1BBAD"/>
<ellipse cx="104.106" cy="36.149" rx="12.6932" ry="11.9128" transform="rotate(-2.16804 104.106 36.149)" fill="#D1BBAD"/>
<ellipse cx="97.1922" cy="63.2342" rx="12.6932" ry="11.9128" transform="rotate(-2.16804 97.1922 63.2342)" fill="#D1BBAD"/>
<circle cx="93.0036" cy="49.2483" r="16.5999" transform="rotate(-2.16804 93.0036 49.2483)" fill="#D1BBAD"/>
</g>
<ellipse cx="163.941" cy="68.8131" rx="6.33663" ry="6.73267" transform="rotate(-2.16804 163.941 68.8131)" fill="#D1BBAD"/>
<path d="M148.738 174.761C123.723 179.351 109.591 178.989 84.2564 175.27C83.0809 175.64 81.9846 182.408 81.2682 186.012C78.8443 198.208 153.524 194.647 151.719 186.244C150.68 181.403 149.488 174.165 148.738 174.761Z" fill="#F6BD60"/>
<path d="M107.205 181.572L106.075 190.991L103.71 190.897L103.777 190.338C103.523 190.562 103.264 190.727 103 190.833C102.736 190.94 102.468 190.987 102.194 190.977C101.828 190.962 101.521 190.854 101.274 190.653C101.028 190.449 100.881 190.219 100.834 189.964C100.79 189.708 100.802 189.296 100.87 188.726L101.304 185.113C101.375 184.52 101.463 184.1 101.566 183.855C101.674 183.61 101.876 183.4 102.172 183.224C102.468 183.045 102.805 182.963 103.184 182.978C103.476 182.99 103.737 183.053 103.967 183.168C104.2 183.282 104.404 183.448 104.578 183.665L104.84 181.478L107.205 181.572ZM104.403 185.12C104.437 184.837 104.435 184.646 104.395 184.547C104.36 184.448 104.27 184.395 104.126 184.39C103.986 184.384 103.885 184.425 103.823 184.512C103.766 184.596 103.719 184.789 103.683 185.091L103.229 188.873C103.192 189.187 103.19 189.395 103.225 189.498C103.26 189.597 103.344 189.649 103.477 189.654C103.629 189.66 103.737 189.61 103.801 189.503C103.865 189.393 103.923 189.122 103.975 188.692L104.403 185.12Z" fill="white"/>
<path d="M112.386 183.671L112.327 185.393L110.428 189.889L112.174 189.884L112.121 191.442L108.084 191.452L108.139 189.824L110.083 185.235L108.477 185.239L108.53 183.681L112.386 183.671ZM110.371 182.271L111.047 181.502L112.635 181.498L111.167 183.153L109.515 183.157L108.065 181.51L109.706 181.506L110.371 182.271Z" fill="white"/>
<path d="M118.643 187.499L115.578 187.457L115.466 189.135C115.442 189.485 115.452 189.712 115.496 189.814C115.54 189.916 115.635 189.968 115.779 189.97C115.959 189.972 116.082 189.908 116.15 189.776C116.222 189.641 116.27 189.38 116.296 188.994L116.365 187.971L118.609 188.002L118.57 188.575C118.538 189.054 118.482 189.422 118.402 189.678C118.327 189.935 118.168 190.208 117.925 190.497C117.683 190.786 117.385 191.002 117.031 191.146C116.682 191.285 116.249 191.352 115.734 191.344C115.234 191.338 114.797 191.259 114.424 191.11C114.051 190.96 113.766 190.759 113.568 190.507C113.374 190.251 113.246 189.972 113.184 189.671C113.122 189.366 113.111 188.925 113.149 188.348L113.301 186.085C113.347 185.407 113.474 184.874 113.684 184.487C113.894 184.096 114.215 183.8 114.647 183.599C115.079 183.395 115.566 183.296 116.109 183.304C116.773 183.313 117.312 183.447 117.724 183.706C118.141 183.962 118.421 184.299 118.565 184.718C118.713 185.134 118.762 185.718 118.712 186.47L118.643 187.499ZM116.354 186.204L116.392 185.636C116.419 185.235 116.415 184.976 116.38 184.858C116.345 184.741 116.261 184.681 116.128 184.679C115.964 184.677 115.859 184.726 115.813 184.827C115.768 184.924 115.73 185.19 115.701 185.627L115.663 186.194L116.354 186.204Z" fill="white"/>
<path d="M121.839 182.181L121.877 183.417L119.441 183.501L119.403 182.265L121.839 182.181ZM121.892 183.891L122.082 190.041C122.104 190.763 122.104 191.253 122.08 191.512C122.061 191.767 121.978 191.992 121.831 192.189C121.689 192.389 121.493 192.541 121.242 192.643C120.995 192.745 120.619 192.805 120.116 192.823L119.202 192.854L119.164 191.613C119.445 191.603 119.602 191.566 119.635 191.502C119.669 191.439 119.674 191.048 119.652 190.329L119.456 183.975L121.892 183.891Z" fill="white"/>
<path d="M193.411 137.955C200.656 133.57 205.705 128.293 205.771 122.614C205.847 115.916 202.844 107.753 193.519 107.76C191.797 107.761 185.712 109.663 186.974 111.458C187.474 112.169 189.813 110.517 190.575 109.84C194.26 106.57 194.554 103.475 194.063 100.781C193.235 96.2404 191.488 88.4659 183.734 89.4664C181.815 89.7142 179.77 89.9879 177.783 91.1906C177.466 91.3826 174.8 93.4375 176.182 93.1069C182.6 91.5715 181.551 85.0221 180.847 83.0892C179.352 78.986 174.987 76.2701 168.372 76.9873" stroke="white" stroke-linecap="round"/>
<path d="M57.9901 158.953C60.5813 159.38 61.6711 160.44 64.68 160.036C68.6146 159.509 70.8481 158.131 73.7824 155.577C75.9398 153.699 83.3027 146.395 79.6218 143.222C78.5001 142.255 72.7519 139.455 72.8114 142.303C72.8988 146.492 80.1538 143.936 82.0228 141.88C84.1736 139.513 85.6596 136.473 86.0102 133.418C86.3674 130.305 87.1591 125.483 85.5833 122.464C84.0676 119.56 79.2114 116.391 75.6247 117.964C75.0435 118.218 75.168 118.899 75.7231 119.116C77.9891 119.998 79.6273 119.775 81.9863 118.754C85.5684 117.204 86.7501 112.908 86.8263 109.582C86.8699 107.683 85.8867 106.124 85.8499 104.364" stroke="white" stroke-linecap="round"/>
<path d="M166.088 71.3351C162.815 73.9573 155.62 80.4211 152.804 81.2445C149.625 82.1739 145.693 80.3121 149.19 76.1942C150.86 74.2279 152.576 72.6043 153.129 73.5414C153.622 74.3774 143.78 81.8834 141.837 83.2345C136.675 86.8246 132.577 88.1674 131.154 87.139C130.151 86.4152 131.482 83.9733 135.247 80.9563C135.558 80.7069 136.8 79.6425 136.562 80.1348C136.11 81.0695 131.186 84.6801 130.052 85.5839C124.766 89.796 121.901 91.5019 119.607 91.1677" stroke="white" stroke-linecap="round"/>
<path d="M125.722 22.4047C114.337 22.8357 93.9895 21.7174 94.467 34.3301C94.5259 35.8841 94.5831 37.2887 96.6265 38.0574C97.2419 38.2889 100.558 40.134 100.519 39.0884C100.412 36.2701 95.3244 36.3105 92.7135 36.4791C88.0848 36.7781 85.0075 41.1375 83.9002 44.0747C82.0011 49.112 80.3652 56.1317 88.1065 58.2474C90.3238 58.8535 86.1416 57.6154 85.7281 57.4606C83.3975 56.588 80.0978 56.305 77.4845 56.8409C71.3302 58.1031 72.4648 67.0769 73.3686 70.26" stroke="white" stroke-linecap="round"/>
<defs>
<filter id="filter0_d_241_752" x="15.4141" y="67.3865" width="81.3352" height="106.93" filterUnits="userSpaceOnUse" color-interpolation-filters="sRGB">
<feFlood flood-opacity="0" result="BackgroundImageFix"/>
<feColorMatrix in="SourceAlpha" type="matrix" values="0 0 0 0 0 0 0 0 0 0 0 0 0 0 0 0 0 0 127 0" result="hardAlpha"/>
<feOffset dy="4"/>
<feGaussianBlur stdDeviation="2"/>
<feComposite in2="hardAlpha" operator="out"/>
<feColorMatrix type="matrix" values="0 0 0 0 0 0 0 0 0 0 0 0 0 0 0 0 0 0 0.25 0"/>
<feBlend mode="normal" in2="BackgroundImageFix" result="effect1_dropShadow_241_752"/>
<feBlend mode="normal" in="SourceGraphic" in2="effect1_dropShadow_241_752" result="shape"/>
</filter>
<filter id="filter1_d_241_752" x="129.876" y="60.1428" width="87.0676" height="112.933" filterUnits="userSpaceOnUse" color-interpolation-filters="sRGB">
<feFlood flood-opacity="0" result="BackgroundImageFix"/>
<feColorMatrix in="SourceAlpha" type="matrix" values="0 0 0 0 0 0 0 0 0 0 0 0 0 0 0 0 0 0 127 0" result="hardAlpha"/>
<feOffset dx="-2" dy="4"/>
<feGaussianBlur stdDeviation="3"/>
<feComposite in2="hardAlpha" operator="out"/>
<feColorMatrix type="matrix" values="0 0 0 0 0.329412 0 0 0 0 0.286275 0 0 0 0 0.294118 0 0 0 0.33 0"/>
<feBlend mode="normal" in2="BackgroundImageFix" result="effect1_dropShadow_241_752"/>
<feBlend mode="normal" in="SourceGraphic" in2="effect1_dropShadow_241_752" result="shape"/>
</filter>
<filter id="filter2_d_241_752" x="53.9336" y="0.840088" width="129.514" height="108.941" filterUnits="userSpaceOnUse" color-interpolation-filters="sRGB">
<feFlood flood-opacity="0" result="BackgroundImageFix"/>
<feColorMatrix in="SourceAlpha" type="matrix" values="0 0 0 0 0 0 0 0 0 0 0 0 0 0 0 0 0 0 127 0" result="hardAlpha"/>
<feOffset dx="2" dy="1"/>
<feGaussianBlur stdDeviation="6.5"/>
<feComposite in2="hardAlpha" operator="out"/>
<feColorMatrix type="matrix" values="0 0 0 0 0.329412 0 0 0 0 0.286275 0 0 0 0 0.294118 0 0 0 0.47 0"/>
<feBlend mode="normal" in2="BackgroundImageFix" result="effect1_dropShadow_241_752"/>
<feBlend mode="normal" in="SourceGraphic" in2="effect1_dropShadow_241_752" result="shape"/>
</filter>
<filter id="filter3_d_241_752" x="57.5925" y="7.11035" width="125.926" height="101.198" filterUnits="userSpaceOnUse" color-interpolation-filters="sRGB">
<feFlood flood-opacity="0" result="BackgroundImageFix"/>
<feColorMatrix in="SourceAlpha" type="matrix" values="0 0 0 0 0 0 0 0 0 0 0 0 0 0 0 0 0 0 127 0" result="hardAlpha"/>
<feOffset dx="2" dy="1"/>
<feGaussianBlur stdDeviation="6.5"/>
<feComposite in2="hardAlpha" operator="out"/>
<feColorMatrix type="matrix" values="0 0 0 0 0.329412 0 0 0 0 0.286275 0 0 0 0 0.294118 0 0 0 0.47 0"/>
<feBlend mode="normal" in2="BackgroundImageFix" result="effect1_dropShadow_241_752"/>
<feBlend mode="normal" in="SourceGraphic" in2="effect1_dropShadow_241_752" result="shape"/>
</filter>
</defs>
</svg>