<svg width="275" height="125" viewBox="0 0 275 125" fill="none" xmlns="http://www.w3.org/2000/svg">
<path d="M235.248 0.52689C234.987 0.437551 234.703 0.576947 234.613 0.838238C234.524 1.09953 234.663 1.38377 234.925 1.47311L235.248 0.52689ZM273.969 29.4018L274.469 29.3798V29.3798L273.969 29.4018ZM222.698 83.1918L222.898 83.6499L222.698 83.1918ZM75.4515 106.297L75.3926 105.8L75.4515 106.297ZM0 121L5.43162 122.957L4.41084 117.275L0 121ZM3.33434 120.909C3.60591 120.859 3.78549 120.598 3.73544 120.327C3.68539 120.055 3.42467 119.876 3.1531 119.926L3.33434 120.909ZM11.7692 118.246C11.4987 118.301 11.3242 118.565 11.3795 118.836C11.4348 119.106 11.699 119.281 11.9695 119.225L11.7692 118.246ZM18.4249 117.87C18.6949 117.812 18.8668 117.546 18.8088 117.276C18.7509 117.006 18.485 116.834 18.215 116.892L18.4249 117.87ZM26.797 115.015C26.5274 115.075 26.3573 115.342 26.417 115.611C26.4768 115.881 26.7437 116.051 27.0134 115.991L26.797 115.015ZM33.448 114.563C33.7176 114.503 33.8877 114.236 33.8279 113.967C33.7682 113.697 33.5011 113.527 33.2315 113.587L33.448 114.563ZM41.8194 111.706C41.5494 111.764 41.3776 112.03 41.4357 112.3C41.4938 112.57 41.7597 112.741 42.0297 112.683L41.8194 111.706ZM48.4749 111.327C48.7454 111.271 48.9197 111.007 48.8642 110.737C48.8087 110.466 48.5444 110.292 48.2739 110.347L48.4749 111.327ZM56.9077 108.657C56.6362 108.707 56.4569 108.968 56.5071 109.24C56.5574 109.511 56.8183 109.691 57.0898 109.64L56.9077 108.657ZM63.5721 108.502C63.8446 108.457 64.0289 108.199 63.9838 107.927C63.9388 107.654 63.6814 107.47 63.4089 107.515L63.5721 108.502ZM72.1158 106.212C71.842 106.249 71.6496 106.5 71.6859 106.774C71.7222 107.048 71.9736 107.24 72.2473 107.204L72.1158 106.212ZM78.4041 106.461C78.6785 106.43 78.8762 106.183 78.8457 105.908C78.8151 105.634 78.5678 105.436 78.2934 105.467L78.4041 106.461ZM86.0415 104.67C85.7666 104.696 85.5649 104.94 85.591 105.215C85.6171 105.49 85.8611 105.692 86.136 105.666L86.0415 104.67ZM91.9432 105.144C92.2184 105.121 92.4225 104.879 92.399 104.604C92.3756 104.328 92.1336 104.124 91.8584 104.148L91.9432 105.144ZM99.6196 103.527C99.3442 103.548 99.1379 103.788 99.1586 104.063C99.1794 104.339 99.4195 104.545 99.6948 104.524L99.6196 103.527ZM105.512 104.1C105.788 104.081 105.995 103.842 105.976 103.566C105.956 103.291 105.717 103.083 105.442 103.103L105.512 104.1ZM113.206 102.569C112.931 102.588 112.723 102.826 112.741 103.102C112.76 103.377 112.998 103.585 113.274 103.567L113.206 102.569ZM119.096 103.175C119.371 103.156 119.58 102.918 119.561 102.642C119.543 102.367 119.304 102.159 119.029 102.177L119.096 103.175ZM126.79 101.644C126.515 101.664 126.307 101.903 126.326 102.178C126.346 102.454 126.585 102.661 126.86 102.642L126.79 101.644ZM132.683 102.219C132.958 102.198 133.165 101.958 133.144 101.683C133.123 101.407 132.883 101.201 132.608 101.221L132.683 102.219ZM140.36 100.605C140.084 100.629 139.88 100.87 139.903 101.146C139.927 101.421 140.169 101.625 140.444 101.602L140.36 100.605ZM146.261 101.085C146.536 101.059 146.738 100.815 146.712 100.54C146.686 100.265 146.443 100.063 146.168 100.089L146.261 101.085ZM153.901 99.3061C153.627 99.3361 153.428 99.5829 153.458 99.8574C153.488 100.132 153.735 100.33 154.01 100.3L153.901 99.3061ZM159.813 99.6257C160.087 99.5919 160.282 99.3423 160.248 99.0682C160.214 98.7942 159.965 98.5994 159.691 98.6332L159.813 99.6257ZM167.392 97.5999C167.118 97.6397 166.929 97.8935 166.969 98.1667C167.009 98.44 167.262 98.6293 167.536 98.5895L167.392 97.5999ZM173.311 97.6945C173.584 97.6497 173.768 97.3924 173.723 97.1199C173.679 96.8475 173.421 96.663 173.149 96.7078L173.311 97.6945ZM180.794 95.3404C180.523 95.3929 180.346 95.6553 180.398 95.9264C180.451 96.1975 180.713 96.3747 180.984 96.3222L180.794 95.3404ZM186.711 95.1439C186.981 95.0851 187.152 94.8187 187.093 94.5489C187.034 94.2791 186.768 94.1081 186.498 94.1669L186.711 95.1439ZM194.054 92.3845C193.786 92.4526 193.624 92.7247 193.692 92.9924C193.76 93.26 194.033 93.4217 194.3 93.3536L194.054 92.3845ZM199.949 91.8328C200.214 91.7572 200.368 91.4806 200.293 91.215C200.217 90.9494 199.94 90.7954 199.675 90.8709L199.949 91.8328ZM207.094 88.6C206.832 88.6861 206.689 88.9687 206.775 89.231C206.861 89.4934 207.144 89.6362 207.406 89.55L207.094 88.6ZM212.936 87.6354C213.195 87.5408 213.329 87.2538 213.234 86.9944C213.14 86.7349 212.853 86.6013 212.593 86.6958L212.936 87.6354ZM219.819 83.877C219.564 83.9832 219.444 84.276 219.55 84.5309C219.656 84.7858 219.949 84.9063 220.204 84.8001L219.819 83.877ZM225.457 82.5076C225.708 82.3931 225.819 82.0966 225.705 81.8453C225.59 81.594 225.294 81.4831 225.042 81.5976L225.457 82.5076ZM231.779 78.3541C231.533 78.4793 231.435 78.7803 231.56 79.0265C231.685 79.2726 231.986 79.3706 232.232 79.2454L231.779 78.3541ZM237.209 76.6038C237.45 76.47 237.537 76.1657 237.404 75.9241C237.27 75.6826 236.965 75.5953 236.724 75.7291L237.209 76.6038ZM243.158 71.9415C242.924 72.088 242.853 72.3966 242.999 72.6306C243.146 72.8646 243.455 72.9355 243.689 72.7889L243.158 71.9415ZM248.402 69.6855C248.629 69.5282 248.685 69.2166 248.528 68.9897C248.371 68.7627 248.059 68.7063 247.832 68.8636L248.402 69.6855ZM253.803 64.4018C253.589 64.5754 253.555 64.8902 253.729 65.1049C253.903 65.3197 254.217 65.353 254.432 65.1794L253.803 64.4018ZM258.709 61.4844C258.912 61.2967 258.924 60.9804 258.736 60.7778C258.548 60.5752 258.232 60.5631 258.029 60.7507L258.709 61.4844ZM263.207 55.4171C263.026 55.6261 263.049 55.9418 263.258 56.1224C263.467 56.3029 263.783 56.2799 263.964 56.071L263.207 55.4171ZM267.449 51.6016C267.607 51.375 267.551 51.0633 267.324 50.9055C267.098 50.7476 266.786 50.8033 266.628 51.0299L267.449 51.6016ZM270.337 44.6322C270.22 44.8826 270.329 45.1799 270.579 45.2963C270.83 45.4127 271.127 45.304 271.244 45.0536L270.337 44.6322ZM273.239 39.7247C273.315 39.4592 273.161 39.1825 272.895 39.1067C272.63 39.0309 272.353 39.1847 272.277 39.4503L273.239 39.7247ZM273.469 32.1899C273.457 32.4658 273.67 32.6994 273.946 32.7117C274.222 32.7241 274.456 32.5104 274.468 32.2346L273.469 32.1899ZM274.228 26.5015C274.193 26.2275 273.943 26.0333 273.669 26.0678C273.395 26.1022 273.201 26.3523 273.236 26.6262L274.228 26.5015ZM271.32 19.498C271.433 19.75 271.729 19.8628 271.981 19.75C272.233 19.6371 272.345 19.3413 272.233 19.0893L271.32 19.498ZM269.152 14.1889C268.974 13.9785 268.658 13.9531 268.448 14.132C268.237 14.3109 268.212 14.6264 268.391 14.8368L269.152 14.1889ZM262.707 10.1668C262.945 10.3063 263.252 10.2262 263.391 9.98794C263.531 9.74963 263.451 9.44335 263.212 9.30382L262.707 10.1668ZM258.019 6.84699C257.762 6.7479 257.472 6.87653 257.373 7.13428C257.274 7.39203 257.403 7.68131 257.661 7.78039L258.019 6.84699ZM250.499 5.54545C250.766 5.6152 251.039 5.45515 251.109 5.18797C251.178 4.92078 251.018 4.64763 250.751 4.57788L250.499 5.54545ZM245.232 3.22642C244.963 3.16268 244.694 3.32883 244.63 3.59751C244.566 3.8662 244.732 4.13568 245.001 4.19942L245.232 3.22642ZM237.651 2.32863C237.916 2.40546 238.193 2.25273 238.27 1.98749C238.347 1.72226 238.194 1.44495 237.929 1.36812L237.651 2.32863ZM11.9695 119.225C14.124 118.785 16.2756 118.332 18.4249 117.87L18.215 116.892C16.0682 117.353 13.9199 117.806 11.7692 118.246L11.9695 119.225ZM27.0134 115.991C29.1573 115.516 31.305 115.038 33.448 114.563L33.2315 113.587C31.0849 114.063 28.9434 114.54 26.797 115.015L27.0134 115.991ZM42.0297 112.683C44.1766 112.222 46.3247 111.768 48.4749 111.327L48.2739 110.347C46.12 110.789 43.9687 111.243 41.8194 111.706L42.0297 112.683ZM57.0898 109.64C59.247 109.241 61.4075 108.86 63.5721 108.502L63.4089 107.515C61.2373 107.874 59.0705 108.256 56.9077 108.657L57.0898 109.64ZM72.2473 107.204C73.3337 107.06 74.4213 106.923 75.5105 106.793L75.3926 105.8C74.2988 105.93 73.2065 106.068 72.1158 106.212L72.2473 107.204ZM75.5105 106.793C76.4737 106.679 77.4382 106.568 78.4041 106.461L78.2934 105.467C77.3252 105.575 76.3583 105.686 75.3926 105.8L75.5105 106.793ZM86.136 105.666C88.0676 105.482 90.0035 105.309 91.9432 105.144L91.8584 104.148C89.9158 104.313 87.9767 104.487 86.0415 104.67L86.136 105.666ZM99.6948 104.524C101.631 104.378 103.57 104.238 105.512 104.1L105.442 103.103C103.499 103.24 101.558 103.381 99.6196 103.527L99.6948 104.524ZM113.274 103.567C115.214 103.436 117.152 103.306 119.096 103.175L119.029 102.177C117.088 102.308 115.144 102.438 113.206 102.569L113.274 103.567ZM126.86 102.642C128.801 102.505 130.742 102.365 132.683 102.219L132.608 101.221C130.669 101.367 128.729 101.507 126.79 101.644L126.86 102.642ZM140.444 101.602C142.384 101.438 144.323 101.266 146.261 101.085L146.168 100.089C144.233 100.27 142.297 100.442 140.36 100.605L140.444 101.602ZM154.01 100.3C155.946 100.088 157.881 99.8643 159.813 99.6257L159.691 98.6332C157.763 98.8712 155.833 99.0948 153.901 99.3061L154.01 100.3ZM167.536 98.5895C169.464 98.3088 171.389 98.0111 173.311 97.6945L173.149 96.7078C171.233 97.0234 169.314 97.3201 167.392 97.5999L167.536 98.5895ZM180.984 96.3222C182.897 95.9516 184.807 95.5595 186.711 95.1439L186.498 94.1669C184.601 94.5807 182.7 94.9712 180.794 95.3404L180.984 96.3222ZM194.3 93.3536C196.188 92.8732 198.071 92.3669 199.949 91.8328L199.675 90.8709C197.807 91.4024 195.933 91.9063 194.054 92.3845L194.3 93.3536ZM207.406 89.55C209.256 88.9424 211.099 88.3048 212.936 87.6354L212.593 86.6958C210.767 87.3615 208.934 87.9956 207.094 88.6L207.406 89.55ZM220.204 84.8001C221.104 84.4252 222.002 84.0419 222.898 83.6499L222.497 82.7337C221.607 83.1233 220.714 83.5043 219.819 83.877L220.204 84.8001ZM222.898 83.6499C223.706 83.2964 224.562 82.9155 225.457 82.5076L225.042 81.5976C224.152 82.0033 223.301 82.382 222.497 82.7337L222.898 83.6499ZM232.232 79.2454C233.84 78.4274 235.507 77.5466 237.209 76.6038L236.724 75.7291C235.034 76.6658 233.377 77.541 231.779 78.3541L232.232 79.2454ZM243.689 72.7889C245.262 71.8037 246.839 70.769 248.402 69.6855L247.832 68.8636C246.283 69.9376 244.719 70.9637 243.158 71.9415L243.689 72.7889ZM254.432 65.1794C255.898 63.9939 257.329 62.7621 258.709 61.4844L258.029 60.7507C256.668 62.012 255.254 63.2292 253.803 64.4018L254.432 65.1794ZM263.964 56.071C265.209 54.6295 266.377 53.1395 267.449 51.6016L266.628 51.0299C265.578 52.5369 264.432 53.9995 263.207 55.4171L263.964 56.071ZM271.244 45.0536C272.046 43.3279 272.718 41.5513 273.239 39.7247L272.277 39.4503C271.771 41.2232 271.118 42.9507 270.337 44.6322L271.244 45.0536ZM274.468 32.2346C274.51 31.2938 274.511 30.3422 274.469 29.3798L273.469 29.4239C273.511 30.3566 273.51 31.2787 273.469 32.1899L274.468 32.2346ZM274.469 29.3798C274.424 28.3796 274.344 27.4209 274.228 26.5015L273.236 26.6262C273.348 27.5175 273.426 28.4493 273.469 29.4239L274.469 29.3798ZM272.233 19.0893C271.399 17.2283 270.36 15.6081 269.152 14.1889L268.391 14.8368C269.537 16.1844 270.526 17.7241 271.32 19.498L272.233 19.0893ZM263.212 9.30382C261.58 8.34822 259.835 7.54473 258.019 6.84699L257.661 7.78039C259.437 8.46327 261.132 9.24439 262.707 10.1668L263.212 9.30382ZM250.751 4.57788C248.918 4.09922 247.064 3.66108 245.232 3.22642L245.001 4.19942C246.836 4.63471 248.678 5.07016 250.499 5.54545L250.751 4.57788ZM237.929 1.36812C237.015 1.10329 236.119 0.824781 235.248 0.52689L234.925 1.47311C235.814 1.77704 236.724 2.06026 237.651 2.32863L237.929 1.36812ZM235.41 0.0537798C234.887 -0.124897 234.319 0.153894 234.14 0.676477C233.962 1.19906 234.24 1.76754 234.763 1.94622L235.41 0.0537798ZM273.969 29.4018L274.968 29.3577L273.969 29.4018ZM222.698 83.1918L223.098 84.108L222.698 83.1918ZM75.4515 106.297L75.3337 105.304L75.4515 106.297ZM0 121L10.8632 124.915L8.82169 113.549L0 121ZM3.42495 121.401C3.96809 121.301 4.32725 120.779 4.22716 120.236C4.12707 119.693 3.60562 119.334 3.06248 119.434L3.42495 121.401ZM11.669 117.756C11.128 117.866 10.779 118.395 10.8896 118.936C11.0003 119.477 11.5286 119.826 12.0697 119.715L11.669 117.756ZM18.5298 118.359C19.0698 118.243 19.4136 117.711 19.2977 117.171C19.1818 116.631 18.6501 116.288 18.1101 116.404L18.5298 118.359ZM26.6889 114.527C26.1497 114.646 25.8094 115.18 25.9289 115.72C26.0483 116.259 26.5823 116.599 27.1215 116.48L26.6889 114.527ZM33.5562 115.051C34.0954 114.932 34.4356 114.398 34.3161 113.858C34.1965 113.319 33.6625 112.979 33.1233 113.099L33.5562 115.051ZM41.7142 111.217C41.1743 111.333 40.8307 111.865 40.9469 112.405C41.063 112.945 41.5949 113.288 42.1348 113.172L41.7142 111.217ZM48.5753 111.817C49.1164 111.706 49.465 111.177 49.354 110.636C49.243 110.095 48.7145 109.746 48.1735 109.857L48.5753 111.817ZM56.8167 108.165C56.2736 108.266 55.9149 108.788 56.0155 109.331C56.1161 109.874 56.6378 110.232 57.1809 110.132L56.8167 108.165ZM63.6537 108.995C64.1986 108.905 64.5673 108.39 64.4771 107.845C64.387 107.3 63.8722 106.932 63.3274 107.022L63.6537 108.995ZM72.05 105.717C71.5025 105.789 71.1176 106.292 71.1902 106.84C71.2629 107.387 71.7656 107.772 72.3131 107.699L72.05 105.717ZM78.4594 106.958C79.0083 106.896 79.4037 106.402 79.3426 105.853C79.2814 105.304 78.7869 104.909 78.238 104.97L78.4594 106.958ZM85.9943 104.172C85.4445 104.225 85.0411 104.713 85.0932 105.262C85.1454 105.812 85.6334 106.216 86.1832 106.164L85.9943 104.172ZM91.9856 105.642C92.5359 105.596 92.9441 105.111 92.8972 104.561C92.8504 104.011 92.3663 103.603 91.816 103.65L91.9856 105.642ZM99.582 103.029C99.0313 103.07 98.6185 103.55 98.66 104.101C98.7016 104.652 99.1817 105.065 99.7324 105.023L99.582 103.029ZM105.548 104.599C106.099 104.56 106.514 104.082 106.475 103.531C106.436 102.98 105.958 102.565 105.407 102.604L105.548 104.599ZM113.173 102.07C112.622 102.107 112.205 102.584 112.242 103.135C112.28 103.686 112.756 104.103 113.307 104.066L113.173 102.07ZM119.13 103.674C119.681 103.637 120.097 103.16 120.06 102.609C120.023 102.058 119.546 101.641 118.995 101.678L119.13 103.674ZM126.755 101.145C126.204 101.184 125.789 101.662 125.828 102.213C125.867 102.764 126.345 103.179 126.896 103.14L126.755 101.145ZM132.72 102.717C133.271 102.676 133.684 102.196 133.643 101.645C133.601 101.094 133.121 100.681 132.57 100.723L132.72 102.717ZM140.318 100.107C139.767 100.154 139.359 100.637 139.405 101.188C139.452 101.738 139.936 102.146 140.486 102.1L140.318 100.107ZM146.308 101.582C146.858 101.531 147.262 101.043 147.21 100.493C147.158 99.9435 146.671 99.5395 146.121 99.5911L146.308 101.582ZM153.847 98.809C153.298 98.869 152.901 99.3628 152.961 99.9118C153.021 100.461 153.515 100.857 154.064 100.797L153.847 98.809ZM159.875 100.122C160.423 100.054 160.812 99.5551 160.744 99.007C160.677 98.4588 160.178 98.0694 159.629 98.137L159.875 100.122ZM167.319 97.1051C166.773 97.1847 166.394 97.6922 166.474 98.2388C166.554 98.7853 167.061 99.1638 167.608 99.0843L167.319 97.1051ZM173.393 98.1879C173.938 98.0981 174.307 97.5836 174.217 97.0387C174.127 96.4937 173.612 96.1247 173.068 96.2145L173.393 98.1879ZM180.699 94.8496C180.157 94.9546 179.802 95.4793 179.907 96.0215C180.012 96.5637 180.537 96.9181 181.079 96.8131L180.699 94.8496ZM186.818 95.6325C187.357 95.5147 187.699 94.9819 187.582 94.4423C187.464 93.9027 186.931 93.5607 186.392 93.6784L186.818 95.6325ZM193.93 91.8999C193.395 92.0361 193.072 92.5804 193.208 93.1156C193.344 93.6509 193.888 93.9744 194.423 93.8382L193.93 91.8999ZM200.085 92.3137C200.617 92.1626 200.925 91.6094 200.774 91.0782C200.622 90.547 200.069 90.2389 199.538 90.39L200.085 92.3137ZM206.938 88.1249C206.413 88.2973 206.128 88.8624 206.3 89.3871C206.473 89.9118 207.038 90.1974 207.562 90.025L206.938 88.1249ZM213.107 88.1051C213.626 87.916 213.893 87.342 213.704 86.8231C213.515 86.3042 212.941 86.0369 212.422 86.2261L213.107 88.1051ZM219.627 83.4155C219.117 83.6279 218.876 84.2133 219.088 84.7232C219.301 85.233 219.886 85.4741 220.396 85.2617L219.627 83.4155ZM225.664 82.9626C226.167 82.7336 226.389 82.1406 226.16 81.638C225.931 81.1354 225.338 80.9136 224.835 81.1426L225.664 82.9626ZM231.552 77.9084C231.06 78.1589 230.864 78.7609 231.114 79.2532C231.365 79.7454 231.967 79.9415 232.459 79.6911L231.552 77.9084ZM237.451 77.0412C237.934 76.7735 238.109 76.1649 237.841 75.6818C237.573 75.1987 236.965 75.0241 236.482 75.2918L237.451 77.0412ZM242.892 71.5177C242.424 71.8109 242.283 72.4279 242.576 72.896C242.869 73.3641 243.486 73.5059 243.954 73.2127L242.892 71.5177ZM248.687 70.0964C249.141 69.7818 249.254 69.1588 248.939 68.7048C248.624 68.2509 248.001 68.138 247.547 68.4527L248.687 70.0964ZM253.489 64.013C253.06 64.3602 252.993 64.9898 253.34 65.4193C253.687 65.8488 254.317 65.9154 254.747 65.5682L253.489 64.013ZM259.049 61.8512C259.454 61.4759 259.478 60.8432 259.103 60.438C258.728 60.0328 258.095 60.0086 257.69 60.3839L259.049 61.8512ZM262.829 55.0902C262.467 55.5081 262.513 56.1396 262.931 56.5007C263.349 56.8618 263.981 56.8158 264.342 56.398L262.829 55.0902ZM267.859 51.8874C268.175 51.4342 268.063 50.811 267.61 50.4952C267.157 50.1795 266.534 50.2909 266.218 50.7441L267.859 51.8874ZM269.883 44.4214C269.651 44.9223 269.868 45.517 270.369 45.7497C270.87 45.9825 271.464 45.7652 271.697 45.2644L269.883 44.4214ZM273.72 39.862C273.871 39.3309 273.564 38.7775 273.033 38.6259C272.502 38.4743 271.948 38.782 271.797 39.313L273.72 39.862ZM272.97 32.1676C272.945 32.7193 273.372 33.1866 273.924 33.2113C274.476 33.2359 274.943 32.8086 274.968 32.2569L272.97 32.1676ZM274.724 26.4391C274.655 25.8911 274.155 25.5028 273.607 25.5717C273.059 25.6406 272.671 26.1406 272.74 26.6886L274.724 26.4391ZM270.864 19.7023C271.089 20.2064 271.681 20.432 272.185 20.2063C272.689 19.9806 272.915 19.389 272.689 18.8849L270.864 19.7023ZM269.533 13.8649C269.175 13.4442 268.544 13.3933 268.124 13.7511C267.703 14.1089 267.652 14.7401 268.01 15.1607L269.533 13.8649ZM262.454 10.5983C262.931 10.8773 263.544 10.7172 263.823 10.2406C264.102 9.76397 263.942 9.15139 263.465 8.87234L262.454 10.5983ZM258.199 6.38028C257.683 6.18211 257.105 6.43936 256.907 6.95487C256.708 7.47038 256.966 8.04893 257.481 8.2471L258.199 6.38028ZM250.372 6.02923C250.907 6.16874 251.453 5.84865 251.593 5.31427C251.732 4.7799 251.412 4.23361 250.878 4.09409L250.372 6.02923ZM245.347 2.73992C244.81 2.61244 244.271 2.94473 244.144 3.48211C244.016 4.01948 244.348 4.55844 244.886 4.68592L245.347 2.73992ZM237.511 2.80889C238.042 2.96255 238.597 2.65709 238.75 2.12661C238.904 1.59614 238.598 1.04153 238.068 0.887863L237.511 2.80889ZM12.0697 119.715C14.2261 119.274 16.3793 118.821 18.5298 118.359L18.1101 116.404C15.9645 116.864 13.8178 117.316 11.669 117.756L12.0697 119.715ZM27.1215 116.48C29.2643 116.005 31.415 115.526 33.5562 115.051L33.1233 113.099C30.9748 113.575 28.8364 114.051 26.6889 114.527L27.1215 116.48ZM42.1348 113.172C44.2806 112.711 46.427 112.257 48.5753 111.817L48.1735 109.857C46.0176 110.3 43.8648 110.754 41.7142 111.217L42.1348 113.172ZM57.1809 110.132C59.3353 109.733 61.4926 109.352 63.6537 108.995L63.3274 107.022C61.1522 107.382 58.9823 107.764 56.8167 108.165L57.1809 110.132ZM72.3131 107.699C73.3972 107.555 74.4826 107.419 75.5694 107.29L75.3337 105.304C74.2375 105.434 73.1429 105.572 72.05 105.717L72.3131 107.699ZM75.5694 107.29C76.5314 107.176 77.4948 107.065 78.4594 106.958L78.238 104.97C77.2688 105.078 76.3006 105.189 75.3337 105.304L75.5694 107.29ZM86.1832 106.164C88.113 105.98 90.0473 105.807 91.9856 105.642L91.816 103.65C89.872 103.815 87.9313 103.989 85.9943 104.172L86.1832 106.164ZM99.7324 105.023C101.668 104.877 103.606 104.736 105.548 104.599L105.407 102.604C103.463 102.741 101.521 102.882 99.582 103.029L99.7324 105.023ZM113.307 104.066C115.249 103.935 117.184 103.805 119.13 103.674L118.995 101.678C117.056 101.809 115.11 101.939 113.173 102.07L113.307 104.066ZM126.896 103.14C128.836 103.004 130.778 102.863 132.72 102.717L132.57 100.723C130.632 100.869 128.693 101.009 126.755 101.145L126.896 103.14ZM140.486 102.1C142.427 101.936 144.368 101.764 146.308 101.582L146.121 99.5911C144.188 99.7723 142.253 99.9436 140.318 100.107L140.486 102.1ZM154.064 100.797C156.003 100.585 157.94 100.361 159.875 100.122L159.629 98.137C157.704 98.3747 155.777 98.598 153.847 98.809L154.064 100.797ZM167.608 99.0843C169.539 98.8032 171.467 98.505 173.393 98.1879L173.068 96.2145C171.155 96.5295 169.239 96.8257 167.319 97.1051L167.608 99.0843ZM181.079 96.8131C182.996 96.4417 184.909 96.0488 186.818 95.6325L186.392 93.6784C184.499 94.0913 182.601 94.4811 180.699 94.8496L181.079 96.8131ZM194.423 93.8382C196.316 93.3566 198.203 92.8491 200.085 92.3137L199.538 90.39C197.675 90.9202 195.805 91.4228 193.93 91.8999L194.423 93.8382ZM207.562 90.025C209.417 89.4158 211.265 88.7765 213.107 88.1051L212.422 86.2261C210.601 86.8899 208.773 87.5222 206.938 88.1249L207.562 90.025ZM220.396 85.2617C221.299 84.8856 222.2 84.5012 223.098 84.108L222.297 82.2756C221.409 82.664 220.519 83.0439 219.627 83.4155L220.396 85.2617ZM223.098 84.108C223.909 83.7535 224.766 83.3716 225.664 82.9626L224.835 81.1426C223.947 81.5471 223.099 81.9249 222.297 82.2756L223.098 84.108ZM232.459 79.6911C234.072 78.8707 235.744 77.9871 237.451 77.0412L236.482 75.2918C234.797 76.2253 233.146 77.0978 231.552 77.9084L232.459 79.6911ZM243.954 73.2127C245.533 72.2236 247.117 71.1847 248.687 70.0964L247.547 68.4527C246.005 69.5219 244.447 70.5438 242.892 71.5177L243.954 73.2127ZM254.747 65.5682C256.221 64.3763 257.66 63.1372 259.049 61.8512L257.69 60.3839C256.337 61.6369 254.931 62.8468 253.489 64.013L254.747 65.5682ZM264.342 56.398C265.598 54.9445 266.777 53.4408 267.859 51.8874L266.218 50.7441C265.179 52.2356 264.043 53.6845 262.829 55.0902L264.342 56.398ZM271.697 45.2644C272.509 43.5165 273.191 41.7154 273.72 39.862L271.797 39.313C271.298 41.0592 270.654 42.7621 269.883 44.4214L271.697 45.2644ZM274.968 32.2569C275.01 31.3014 275.011 30.335 274.968 29.3577L272.97 29.446C273.011 30.3639 273.01 31.2711 272.97 32.1676L274.968 32.2569ZM274.968 29.3577C274.923 28.3448 274.841 27.3726 274.724 26.4391L272.74 26.6886C272.85 27.5658 272.927 28.4841 272.97 29.446L274.968 29.3577ZM272.689 18.8849C271.836 16.9803 270.771 15.32 269.533 13.8649L268.01 15.1607C269.126 16.4726 270.089 17.972 270.864 19.7023L272.689 18.8849ZM263.465 8.87234C261.804 7.90013 260.033 7.08546 258.199 6.38028L257.481 8.2471C259.238 8.92254 260.907 9.69248 262.454 10.5983L263.465 8.87234ZM250.878 4.09409C249.038 3.61375 247.178 3.17427 245.347 2.73992L244.886 4.68592C246.722 5.12152 248.558 5.55564 250.372 6.02923L250.878 4.09409ZM238.068 0.887863C237.16 0.624804 236.272 0.348651 235.41 0.0537798L234.763 1.94622C235.661 2.25317 236.579 2.53875 237.511 2.80889L238.068 0.887863Z" fill="#B3A8A8" fill-opacity="0.99"/>
</svg>
