<svg width="1440" height="169" viewBox="0 0 1440 169" fill="none" xmlns="http://www.w3.org/2000/svg">
<g filter="url(#filter0_d_321_757)">
<path d="M0 50H60C120 50 240 50 360 64.2C480 78 600 107 720 98.2C840 90 960 44 1080 38.7C1200 33 1320 67 1440 92.5C1560 118 1680 135 1800 137.8C1920 141 2040 129 2160 123.7C2280 118 2400 118 2520 118C2640 118 2760 118 2880 120.8C3000 124 3120 129 3240 118C3360 107 3480 78 3600 72.7C3720 67 3840 84 3960 89.7C4080 95 4200 90 4320 84C4440 78 4560 73 4680 64.2C4800 56 4920 44 5040 44.3C5160 44 5280 56 5400 61.3C5520 67 5640 67 5760 69.8C5880 73 6000 78 6120 75.5C6240 73 6360 61 6480 47.2C6600 33 6720 16 6840 16C6960 16 7080 33 7200 33C7320 33 7440 16 7560 27.3C7680 39 7800 78 7920 101C8040 124 8160 129 8280 120.8C8400 112 8520 90 8580 78.3L8640 67V169H8580C8520 169 8400 169 8280 169C8160 169 8040 169 7920 169C7800 169 7680 169 7560 169C7440 169 7320 169 7200 169C7080 169 6960 169 6840 169C6720 169 6600 169 6480 169C6360 169 6240 169 6120 169C6000 169 5880 169 5760 169C5640 169 5520 169 5400 169C5280 169 5160 169 5040 169C4920 169 4800 169 4680 169C4560 169 4440 169 4320 169C4200 169 4080 169 3960 169C3840 169 3720 169 3600 169C3480 169 3360 169 3240 169C3120 169 3000 169 2880 169C2760 169 2640 169 2520 169C2400 169 2280 169 2160 169C2040 169 1920 169 1800 169C1680 169 1560 169 1440 169C1320 169 1200 169 1080 169C960 169 840 169 720 169C600 169 480 169 360 169C240 169 120 169 60 169H0V50Z" fill="url(#paint0_linear_321_757)"/>
</g>
<defs>
<filter id="filter0_d_321_757" x="0" y="0" width="8668" height="169" filterUnits="userSpaceOnUse" color-interpolation-filters="sRGB">
<feFlood flood-opacity="0" result="BackgroundImageFix"/>
<feColorMatrix in="SourceAlpha" type="matrix" values="0 0 0 0 0 0 0 0 0 0 0 0 0 0 0 0 0 0 127 0" result="hardAlpha"/>
<feOffset dx="20" dy="-8"/>
<feGaussianBlur stdDeviation="4"/>
<feComposite in2="hardAlpha" operator="out"/>
<feColorMatrix type="matrix" values="0 0 0 0 0.294479 0 0 0 0 0.255521 0 0 0 0 0.262604 0 0 0 0.35 0"/>
<feBlend mode="normal" in2="BackgroundImageFix" result="effect1_dropShadow_321_757"/>
<feBlend mode="normal" in="SourceGraphic" in2="effect1_dropShadow_321_757" result="shape"/>
</filter>
<linearGradient id="paint0_linear_321_757" x1="0" y1="169" x2="0" y2="16" gradientUnits="userSpaceOnUse">
<stop stop-color="#625559"/>
<stop offset="1" stop-color="#4C4245"/>
</linearGradient>
</defs>
</svg>
