<?xml version="1.0" standalone="no"?>
<svg xmlns:xlink="http://www.w3.org/1999/xlink" id="wave" style="transform:rotate(0deg); transition: 0.3s" viewBox="0 0 1440 490" version="1.1" xmlns="http://www.w3.org/2000/svg"><defs>
<filter color-interpolation-filters="sRGB">
<fedropshadow dx="20" dy="-8" stdDeviation="7" flood-opacity="0.1"/>
</filter>
<linearGradient id="sw-gradient-0" x1="0" x2="0" y1="1" y2="0"><stop stop-color="rgba(243, 106, 62, 1)" offset="0%"/><stop stop-color="rgba(255, 179, 11, 1)" offset="100%"/></linearGradient></defs><path style="transform:translate(0, 0px); opacity:1" fill="url(#sw-gradient-0)" d="M0,0L26.7,40.8C53.3,82,107,163,160,179.7C213.3,196,267,147,320,106.2C373.3,65,427,33,480,89.8C533.3,147,587,294,640,318.5C693.3,343,747,245,800,171.5C853.3,98,907,49,960,89.8C1013.3,131,1067,261,1120,326.7C1173.3,392,1227,392,1280,351.2C1333.3,310,1387,229,1440,236.8C1493.3,245,1547,343,1600,326.7C1653.3,310,1707,180,1760,122.5C1813.3,65,1867,82,1920,130.7C1973.3,180,2027,261,2080,253.2C2133.3,245,2187,147,2240,155.2C2293.3,163,2347,278,2400,285.8C2453.3,294,2507,196,2560,179.7C2613.3,163,2667,229,2720,261.3C2773.3,294,2827,294,2880,269.5C2933.3,245,2987,196,3040,179.7C3093.3,163,3147,180,3200,179.7C3253.3,180,3307,163,3360,204.2C3413.3,245,3467,343,3520,318.5C3573.3,294,3627,147,3680,98C3733.3,49,3787,98,3813,122.5L3840,147L3840,490L3813.3,490C3786.7,490,3733,490,3680,490C3626.7,490,3573,490,3520,490C3466.7,490,3413,490,3360,490C3306.7,490,3253,490,3200,490C3146.7,490,3093,490,3040,490C2986.7,490,2933,490,2880,490C2826.7,490,2773,490,2720,490C2666.7,490,2613,490,2560,490C2506.7,490,2453,490,2400,490C2346.7,490,2293,490,2240,490C2186.7,490,2133,490,2080,490C2026.7,490,1973,490,1920,490C1866.7,490,1813,490,1760,490C1706.7,490,1653,490,1600,490C1546.7,490,1493,490,1440,490C1386.7,490,1333,490,1280,490C1226.7,490,1173,490,1120,490C1066.7,490,1013,490,960,490C906.7,490,853,490,800,490C746.7,490,693,490,640,490C586.7,490,533,490,480,490C426.7,490,373,490,320,490C266.7,490,213,490,160,490C106.7,490,53,490,27,490L0,490Z"/></svg>